<svg width="24" height="25" viewBox="0 0 24 25" fill="none" xmlns="http://www.w3.org/2000/svg">
<path opacity="0.32" fill-rule="evenodd" clip-rule="evenodd" d="M10.8477 23.8174C11.4841 24.4538 12.5159 24.4538 13.1523 23.8174L23.5227 13.4469C24.1591 12.8106 24.1591 11.7788 23.5227 11.1424C22.8863 10.506 21.8545 10.506 21.2182 11.1424L12 20.3606L2.78181 11.1424C2.14543 10.506 1.11365 10.506 0.477272 11.1424C-0.159111 11.7788 -0.159111 12.8106 0.477272 13.4469L10.8477 23.8174Z" fill="#F2F2F2"/>
<path opacity="0.32" fill-rule="evenodd" clip-rule="evenodd" d="M10.8477 14.0057C11.4841 14.6421 12.5159 14.6421 13.1523 14.0057L23.5227 3.6353C24.1591 2.99892 24.1591 1.96714 23.5227 1.33076C22.8863 0.694378 21.8545 0.694378 21.2182 1.33076L12 10.5489L2.78181 1.33076C2.14543 0.694378 1.11365 0.694378 0.477272 1.33076C-0.159111 1.96714 -0.159111 2.99892 0.477272 3.6353L10.8477 14.0057Z" fill="#F2F2F2"/>
</svg>
