<svg width="120" height="100" viewBox="0 0 120 100" fill="none" xmlns="http://www.w3.org/2000/svg">
<path d="M12.7538 30.8947C13.0709 29.2177 13.266 27.492 13.7051 25.8393C16.5833 15.0722 25.3642 7.78079 37.0964 8.29119C46.2188 8.68007 53.6094 12.7876 59.8292 19.2284C61.1708 20.6137 62.3415 22.1693 63.4148 23.4817C65.5124 21.1728 67.5125 18.6451 69.8541 16.5062C76.3422 10.5515 84.0255 8.29119 92.7332 9.99253C98.7579 11.1592 103.612 14.1244 106.71 19.5443C109.71 24.7699 109.88 30.3114 108.149 35.9744C106.246 42.245 102.612 47.4949 98.1969 52.2343C92.6113 58.2376 86.1476 63.1958 79.7326 68.2512C75.269 71.7754 70.9029 75.3726 66.4637 78.9211C65.9759 79.3099 65.8539 79.6502 66.1222 80.2578C68.3662 85.2646 67.3662 89.8339 64.1221 94.0387C62.7318 95.8615 61.1951 97.5386 59.0975 98.6323C55.5607 100.431 51.9996 98.851 51.0727 95.0109C50.4385 92.3616 50.9264 89.7853 51.8532 87.2819C52.9021 84.4139 54.7802 82.0564 56.5608 79.6259C56.8291 79.2613 57.1462 78.8968 57.4633 78.5322C55.0973 76.0531 52.4874 73.9386 49.658 72.1157C44.3895 68.713 39.0478 65.4562 33.7304 62.1021C29.2668 59.2827 24.9983 56.196 21.3152 52.3802C17.2906 48.224 14.2905 43.5089 13.2173 37.7243C13.0465 36.7765 12.9002 35.8286 12.7538 34.8564C12.7538 33.5196 12.7538 32.2071 12.7538 30.8947ZM62.122 74.1573C62.3172 74.0358 62.4391 73.9386 62.5611 73.8413C68.0247 69.4908 73.464 65.0916 78.9765 60.7653C84.6597 56.3176 90.1477 51.651 94.9285 46.2067C98.0262 42.6825 100.709 38.891 102.197 34.3703C105.051 25.6448 99.8555 18.1833 92.0503 16.2875C86.8549 15.0236 82.001 16.166 77.4886 18.8395C72.8542 21.5616 69.6346 25.5719 67.171 30.2628C66.7564 31.0648 66.3173 31.8669 65.7319 32.5717C65.0002 33.471 63.927 33.6411 62.9269 33.0821C62.3171 32.7419 61.683 32.3044 61.2439 31.7454C60.2195 30.4329 59.2926 29.0718 58.3657 27.6865C53.1948 20.0061 46.1944 15.3153 36.7794 14.8535C31.5596 14.6104 26.9008 16.2146 23.5348 20.3221C18.6565 26.2768 18.2175 33.0335 20.8518 40.0333C22.6811 44.87 26.1447 48.5643 30.2425 51.5538C34.828 54.8836 39.6088 57.9217 44.4382 60.9355C50.6581 64.8242 56.9266 68.713 62.122 74.1573ZM58.1706 91.0492C59.8292 89.2749 61 87.3305 60.8049 84.5841C59.2194 86.6014 58.3414 88.6916 58.1706 91.0492Z" fill="white"/>
<path d="M117.783 26.9329C117.735 26.9329 117.686 26.9329 117.637 26.9329C116.515 26.86 115.661 25.8635 115.734 24.7455C116.491 14.4646 108.71 5.49607 98.3921 4.71832L95.0749 4.47527C93.9529 4.40235 93.0992 3.40585 93.1723 2.28783C93.2455 1.16981 94.2456 0.319139 95.3676 0.392054L98.6848 0.635102C111.246 1.58299 120.735 12.5202 119.808 25.0372C119.735 26.1066 118.832 26.9329 117.783 26.9329Z" fill="white"/>
<path d="M38.1836 77.3864C37.9633 77.3592 37.7483 77.2881 37.5388 77.1731L29.7256 73.0442C18.2153 66.9657 9.22483 56.9625 4.42962 44.8683C4.05583 43.9082 4.52447 42.829 5.48754 42.4574C6.45062 42.0857 7.53388 42.5536 7.90768 43.5137C12.3817 54.7658 20.7621 64.092 31.4702 69.7817L39.2834 73.9106C40.1849 74.4007 40.5398 75.5145 40.0681 76.4372C39.6922 77.1265 38.9329 77.4788 38.1836 77.3864Z" fill="white"/>
</svg>
