<svg width="20" height="20" viewBox="0 0 20 20" fill="none" xmlns="http://www.w3.org/2000/svg">
<path d="M19.9458 5.88007C19.899 4.81739 19.7271 4.08681 19.4809 3.45375C19.227 2.78177 18.8363 2.18015 18.3244 1.68002C17.8243 1.17211 17.2187 0.777437 16.5545 0.527448C15.9178 0.281275 15.191 0.109427 14.1283 0.0625734C13.0577 0.0117516 12.7178 0 10.0024 0C7.28706 0 6.94718 0.0117516 5.88053 0.0586054C4.81785 0.105459 4.08727 0.27746 3.45436 0.52348C2.78223 0.777437 2.18061 1.16814 1.68048 1.68002C1.17257 2.18015 0.778047 2.78574 0.527906 3.44993C0.281733 4.08681 0.109885 4.81342 0.0630312 5.8761C0.0122094 6.94672 0.000457764 7.2866 0.000457764 10.002C0.000457764 12.7174 0.0122094 13.0572 0.0590631 14.1239C0.105917 15.1866 0.277918 15.9172 0.524091 16.5502C0.778047 17.2222 1.17257 17.8238 1.68048 18.3239C2.18061 18.8319 2.7862 19.2265 3.45039 19.4765C4.08727 19.7227 4.81388 19.8945 5.87671 19.9414C6.94321 19.9884 7.28324 20 9.99863 20C12.714 20 13.0539 19.9884 14.1205 19.9414C15.1832 19.8945 15.9138 19.7227 16.5467 19.4765C17.8908 18.9569 18.9535 17.8942 19.4732 16.5502C19.7192 15.9133 19.8912 15.1866 19.938 14.1239C19.9849 13.0572 19.9966 12.7174 19.9966 10.002C19.9966 7.2866 19.9927 6.94672 19.9458 5.88007ZM18.1448 14.0458C18.1017 15.0225 17.9377 15.55 17.8009 15.9016C17.4649 16.7729 16.7733 17.4644 15.902 17.8005C15.5504 17.9372 15.0192 18.1013 14.0462 18.1442C12.9913 18.1912 12.6749 18.2028 10.0064 18.2028C7.33788 18.2028 7.01754 18.1912 5.96645 18.1442C4.9897 18.1013 4.46225 17.9372 4.11062 17.8005C3.67703 17.6402 3.28236 17.3863 2.96201 17.0542C2.62992 16.7299 2.37596 16.3391 2.21571 15.9056C2.07896 15.5539 1.9149 15.0225 1.87201 14.0497C1.82501 12.9948 1.81341 12.6783 1.81341 10.0098C1.81341 7.34124 1.82501 7.02089 1.87201 5.96996C1.9149 4.99321 2.07896 4.46576 2.21571 4.11413C2.37596 3.68039 2.62992 3.28587 2.96598 2.96537C3.29014 2.63327 3.68084 2.37932 4.11459 2.21922C4.46622 2.08247 4.99763 1.91841 5.97042 1.87537C7.02532 1.82852 7.34185 1.81677 10.0102 1.81677C12.6827 1.81677 12.9991 1.82852 14.0502 1.87537C15.0269 1.91841 15.5544 2.08247 15.906 2.21922C16.3396 2.37932 16.7343 2.63327 17.0546 2.96537C17.3867 3.28968 17.6407 3.68039 17.8009 4.11413C17.9377 4.46576 18.1017 4.99702 18.1448 5.96996C18.1916 7.02486 18.2034 7.34124 18.2034 10.0098C18.2034 12.6783 18.1916 12.9909 18.1448 14.0458Z" fill="#F2F2F2"/>
<path d="M10.0024 4.86425C7.16603 4.86425 4.8647 7.16542 4.8647 10.002C4.8647 12.8385 7.16603 15.1397 10.0024 15.1397C12.839 15.1397 15.1402 12.8385 15.1402 10.002C15.1402 7.16542 12.839 4.86425 10.0024 4.86425ZM10.0024 13.3347C8.16232 13.3347 6.66972 11.8423 6.66972 10.002C6.66972 8.16171 8.16232 6.66926 10.0024 6.66926C11.8427 6.66926 13.3352 8.16171 13.3352 10.002C13.3352 11.8423 11.8427 13.3347 10.0024 13.3347Z" fill="#F2F2F2"/>
<path d="M16.5429 4.66111C16.5429 5.32347 16.0058 5.86054 15.3433 5.86054C14.681 5.86054 14.1439 5.32347 14.1439 4.66111C14.1439 3.9986 14.681 3.46169 15.3433 3.46169C16.0058 3.46169 16.5429 3.9986 16.5429 4.66111Z" fill="#F2F2F2"/>
</svg>
