<svg width="16" height="17" viewBox="0 0 16 17" fill="none" xmlns="http://www.w3.org/2000/svg">
<path d="M0 9.42024C0 9.10721 0 8.79418 0 8.48114C0.00782587 8.42636 0.0195647 8.37158 0.0273905 8.3168C0.0782587 7.97246 0.105649 7.62421 0.179995 7.28378C0.598679 5.36253 1.58474 3.78953 3.14991 2.60391C5.09855 1.12874 7.2898 0.63962 9.6806 1.13656C11.594 1.53568 13.1475 2.53739 14.337 4.08692C15.6204 5.75774 16.1565 7.65942 15.9569 9.75284C15.7926 11.4471 15.1352 12.9458 14.0044 14.2253C12.764 15.6262 11.2223 16.4987 9.37539 16.8274C9.0741 16.8822 8.76889 16.9096 8.46759 16.9526C8.15456 16.9526 7.84152 16.9526 7.52849 16.9526C7.48936 16.9448 7.45023 16.9292 7.40719 16.9253C6.16287 16.8392 4.99682 16.4831 3.92859 15.8335C1.85473 14.5618 0.575201 12.7267 0.125214 10.328C0.0665199 10.0267 0.0391293 9.72154 0 9.42024ZM10.248 11.1263C10.5649 10.1246 10.5649 7.70638 10.2441 6.7751C8.74541 7.00596 7.23893 7.00205 5.73245 6.7751C5.42333 8.24245 5.42724 9.6785 5.73636 11.1302C7.24284 10.9267 8.7415 10.9267 10.248 11.1263ZM11.2575 6.63815C11.5784 8.17984 11.5745 9.72937 11.2653 11.2358C12.2631 11.5411 13.2414 11.8424 14.2313 12.1436C15.2644 10.015 15.2644 7.87464 14.2157 5.72643C13.7187 5.8986 13.2414 6.08251 12.7562 6.2312C12.267 6.38381 11.7662 6.5012 11.2575 6.63815ZM1.78821 5.76165C0.743458 7.64377 0.731719 10.2263 1.78821 12.1358C2.77036 11.8345 3.74468 11.5371 4.73856 11.2319C4.42553 9.72154 4.42944 8.17202 4.73465 6.66554C3.74077 6.36424 2.77427 6.06686 1.78821 5.76165ZM8.00586 2.22827C7.26632 2.97173 6.16287 4.95167 6.01418 5.78904C6.70677 5.97686 9.46148 5.96904 9.99364 5.7773C9.57104 4.46256 8.90975 3.28476 8.00586 2.22827ZM8.00195 15.6809C8.90975 14.6127 9.57495 13.4349 9.99755 12.1202C9.4067 11.9245 6.45634 11.9284 6.00635 12.128C6.43286 13.4388 7.09415 14.6205 8.00195 15.6809ZM9.20322 2.07958C10.0054 3.16738 10.608 4.34908 11.0071 5.64035C11.9227 5.46035 12.7992 5.19428 13.6679 4.84602C12.5253 3.33954 11.0501 2.41218 9.20322 2.07958ZM13.664 13.0514C12.7875 12.7071 11.9149 12.4371 11.0032 12.261C10.6041 13.5562 10.0015 14.7379 9.20322 15.8218C11.0501 15.4892 12.5214 14.5579 13.664 13.0514ZM4.94986 5.63252C5.21985 5.00254 5.45072 4.38039 5.75201 3.78953C6.05331 3.19868 6.42895 2.64304 6.77329 2.06393C4.94204 2.41609 3.47077 3.34346 2.33602 4.84994C3.20078 5.19428 4.07337 5.46035 4.94986 5.63252ZM6.77329 15.8375C6.42504 15.2583 6.05331 14.7027 5.75201 14.1158C5.45072 13.521 5.21594 12.891 4.94986 12.2728C4.32771 12.3706 2.73905 12.848 2.33993 13.0632C3.47077 14.5579 4.94204 15.4853 6.77329 15.8375Z" fill="#37210C" fill-opacity="0.72"/>
</svg>
