<svg width="94" height="57" viewBox="0 0 94 57" fill="none" xmlns="http://www.w3.org/2000/svg">
<g clip-path="url(#clip0)">
<path d="M15.489 21.7905C15.489 24.0812 15.489 27.4643 15.489 27.9225C11.2967 27.9225 11.2528 23.8521 11.2528 23.8521V22.3896C11.2528 21.7464 10.709 21.1561 10.0249 21.1561H6.74466C6.06055 21.1561 5.51677 21.7553 5.51677 22.3896V34.6976C5.51677 35.3848 6.06055 35.9311 6.74466 35.9751H7.06041C7.70067 35.9311 8.24445 35.376 8.24445 34.6976V34.6536C8.24445 34.6536 8.2883 32.2748 11.0248 32.2748C11.0248 32.5479 11.0248 34.5126 11.0248 35.9839C11.0248 36.1249 11.0248 36.3011 11.0248 36.4421C11.0248 37.1293 11.0248 37.5874 11.0248 37.5874V38.0896C11.0248 39.5521 11.0248 41.4728 11.0248 41.7459C8.2883 41.7459 8.24445 39.4111 8.24445 39.4111V39.3671C8.24445 38.6799 7.70067 38.1336 7.06041 38.0896H6.74466C6.06055 38.1336 5.51677 38.6887 5.51677 39.3671V51.8161C5.51677 53.9658 6.51662 53.5517 6.51662 54.6089H4.14854C3.73631 54.6089 3.42057 54.2918 3.42057 53.8777C3.42057 54.2918 3.0522 54.6089 2.6926 54.6089H0.271891C0.271891 53.5605 1.2279 53.9658 1.27175 51.913V39.1821C1.18404 38.3098 0.727968 37.5345 0 37.1205C0.368369 36.9354 0.815674 36.8033 1.27175 36.8033V21.7024C1.2279 19.6408 0.271891 20.0549 0.271891 18.9976H2.68383C3.0522 18.9976 3.4118 19.3677 3.4118 19.7729C3.4118 19.3588 3.72754 18.9976 4.13977 18.9976H4.64847H6.51662H10.2529H12.6649H14.1208H14.6207H16.4889C16.4889 20.0989 15.489 19.6408 15.489 21.7905ZM3.73631 36.8033C3.73631 35.9839 3.73631 35.1558 3.73631 34.3364C3.73631 33.9223 3.69246 33.5611 3.69246 33.147C3.69246 32.7329 3.69246 32.3717 3.69246 31.9576C3.64861 30.451 3.64861 28.9797 3.60475 27.7463C3.5609 27.1472 3.5609 26.5569 3.51705 26.0547C3.51705 25.5525 3.47319 25.1384 3.47319 24.7772C3.47319 24.416 3.42934 24.134 3.42934 23.9578C3.42934 23.7288 3.42934 23.6407 3.42934 23.6407C3.42934 23.6407 3.38549 23.7288 3.38549 23.9578C3.38549 24.1428 3.34163 24.416 3.34163 24.7772C3.34163 25.1384 3.29778 25.5525 3.29778 26.0547C3.25393 26.5569 3.25393 27.156 3.21007 27.7463C3.16622 28.9797 3.16622 30.4422 3.12237 31.9576C3.12237 32.3717 3.12237 32.7329 3.12237 33.147C3.12237 33.5611 3.12237 33.9223 3.07851 34.3364C3.07851 35.1558 3.07851 35.9839 3.07851 36.8033C3.07851 37.6226 3.07851 38.4508 3.07851 39.2702C3.07851 39.4552 3.12237 39.6843 3.12237 39.8693C3.12237 40.0543 3.12237 40.2834 3.12237 40.4684C3.12237 40.8825 3.12237 41.2437 3.12237 41.6578C3.12237 42.4331 3.16622 43.1643 3.16622 43.8515C3.16622 44.5828 3.21007 45.2259 3.21007 45.8603C3.25393 46.1775 3.25393 46.4594 3.25393 46.7325C3.25393 47.0056 3.29778 47.2788 3.29778 47.5519C3.29778 48.0541 3.34163 48.4681 3.34163 48.8294C3.34163 49.1994 3.38549 49.4725 3.38549 49.6487C3.38549 49.8778 3.42934 49.9659 3.42934 49.9659C3.42934 49.9659 3.42934 49.8778 3.42934 49.6487C3.42934 49.4637 3.47319 49.1906 3.47319 48.8294C3.47319 48.4593 3.51705 48.0541 3.51705 47.5519C3.5609 47.2788 3.5609 47.0056 3.5609 46.7325C3.5609 46.4594 3.60475 46.1863 3.60475 45.8603C3.60475 45.2171 3.64861 44.5828 3.64861 43.8515C3.64861 43.1643 3.69246 42.4331 3.69246 41.6578C3.69246 41.2437 3.69246 40.8825 3.69246 40.4684C3.69246 40.2834 3.69246 40.0543 3.73631 39.8693C3.73631 39.6843 3.73631 39.4552 3.73631 39.2702C3.73631 38.4508 3.73631 37.6226 3.73631 36.8033Z" fill="white"/>
<path d="M29.3555 37.7453H28.2592H27.9697H27.119H25.6981H22.4179H22.1021C21.8916 37.7453 21.6724 37.5339 21.6724 37.3136C21.6724 37.525 21.4882 37.7453 21.2426 37.7453H19.8568C19.8568 37.1286 20.4182 37.3665 20.4445 36.1683V29.6398C20.3919 29.1288 20.1287 28.6795 19.699 28.4328C19.9095 28.3006 20.1814 28.2478 20.4445 28.2478V20.5916C20.4182 19.3846 19.8568 19.6313 19.8568 19.0146H21.2689C21.4794 19.0146 21.6987 19.1996 21.6987 19.4463C21.6987 19.2084 21.8829 19.0146 22.1285 19.0146H22.4179H23.5142H25.6981H27.1102H27.961H28.2504H29.3467C29.3467 19.6313 28.7591 19.3934 28.7591 20.6445C28.7591 21.9572 28.7591 23.9395 28.7591 24.2038C26.3121 24.2038 26.277 21.825 26.277 21.825V20.9881C26.277 20.5828 25.9612 20.2656 25.5578 20.2392H23.637C23.2336 20.2656 22.9178 20.5828 22.9178 20.9881V27.0143C22.9178 27.4196 23.2336 27.7368 23.637 27.7368H23.8212C24.1983 27.7368 24.5141 27.4196 24.5141 27.0143V26.9791C24.5141 26.9791 24.5404 25.5871 26.1367 25.5871C26.1367 25.7456 26.1367 26.8998 26.1367 27.728C26.1367 27.8337 26.1367 27.9394 26.1367 28.0187C26.1367 28.424 26.1367 28.6883 26.1367 28.6883V28.979C26.1367 29.8336 26.1367 30.9614 26.1367 31.1199C24.5404 31.1199 24.5141 29.7279 24.5141 29.7279C24.5141 29.3226 24.1983 29.0055 23.8212 28.979H23.637C23.2336 29.0055 22.9178 29.3226 22.9178 29.7279V35.7542C22.9178 36.1594 23.2336 36.4766 23.637 36.4766H25.5578C25.9612 36.4766 26.277 36.1594 26.277 35.7542V34.9084C26.277 34.9084 26.3033 32.5296 28.7591 32.5296C28.7591 32.7939 28.7591 34.7762 28.7591 36.1154C28.7679 37.3665 29.3555 37.1286 29.3555 37.7453ZM21.8916 28.3711C21.8916 27.9394 21.8916 27.5429 21.8916 27.1112C21.8916 26.9262 21.8653 26.706 21.8653 26.4945C21.8653 26.3095 21.8653 26.0892 21.8653 25.9042C21.839 25.1289 21.839 24.4065 21.8127 23.7633C21.7864 23.4726 21.7864 23.173 21.7601 22.9352C21.7601 22.6708 21.7338 22.4506 21.7338 22.2656C21.7338 22.0805 21.7075 21.9484 21.7075 21.8339C21.7075 21.7281 21.7075 21.7017 21.7075 21.7017C21.7075 21.7017 21.6811 21.7281 21.6811 21.8339C21.6811 21.9396 21.6548 22.0717 21.6548 22.2656C21.6548 22.4506 21.6285 22.6708 21.6285 22.9352C21.6022 23.173 21.6022 23.4726 21.5759 23.7633C21.5496 24.4065 21.5496 25.1289 21.5233 25.9042C21.5233 26.0892 21.5233 26.3095 21.5233 26.4945C21.5233 26.706 21.497 26.9262 21.497 27.1112C21.497 27.5429 21.497 27.9394 21.497 28.3711C21.497 28.7764 21.497 29.1993 21.497 29.6046C21.497 29.7103 21.497 29.816 21.5233 29.9217C21.5233 30.001 21.5233 30.1068 21.5233 30.2125C21.5233 30.3975 21.5233 30.6178 21.5233 30.8028C21.5233 31.208 21.5496 31.5781 21.5496 31.9305C21.5496 32.3093 21.5759 32.6265 21.5759 32.9437C21.6022 33.2608 21.6022 33.534 21.6285 33.7983C21.6285 34.0362 21.6548 34.2828 21.6548 34.4414C21.6548 34.6264 21.6811 34.785 21.6811 34.8731C21.6811 34.9789 21.7075 35.0317 21.7075 35.0317C21.7075 35.0317 21.7075 34.9789 21.7075 34.8731C21.7075 34.7938 21.7338 34.6353 21.7338 34.4414C21.7338 34.2828 21.7601 34.0362 21.7601 33.7983C21.7864 33.534 21.7864 33.2608 21.8127 32.9437C21.8127 32.6265 21.839 32.3005 21.839 31.9305C21.839 31.5869 21.8653 31.208 21.8653 30.8028C21.8653 30.6178 21.8653 30.3975 21.8653 30.2125C21.8653 30.1068 21.8653 30.001 21.8916 29.9217C21.8916 29.816 21.8916 29.7103 21.8916 29.6046C21.8916 29.1993 21.8916 28.7764 21.8916 28.3711Z" fill="white"/>
<path d="M35.0477 37.7461H33.6356C33.4251 37.7461 33.2058 37.5346 33.2058 37.3144C33.2058 37.5258 33.0217 37.7461 32.7761 37.7461H31.3991C31.3991 37.1293 31.9604 37.3672 31.9867 36.169V29.6406C31.9341 29.1296 31.671 28.6802 31.2412 28.4336C31.4517 28.3014 31.7236 28.2485 31.9867 28.2485V20.5924C31.9604 19.3854 31.3991 19.632 31.3991 19.0153H32.8112C33.0217 19.0153 33.2409 19.2003 33.2409 19.447C33.2409 19.2091 33.4251 19.0153 33.6707 19.0153H35.0565C35.0565 19.632 34.4688 19.3942 34.4688 20.6452V28.2485C34.7319 28.2485 35.0038 28.3014 35.2143 28.4336C34.7846 28.6714 34.5214 29.1296 34.4688 29.6406V36.1162C34.4601 37.3672 35.0477 37.1293 35.0477 37.7461ZM33.4163 28.3719C33.4163 27.9402 33.4163 27.5437 33.39 27.112C33.39 26.927 33.39 26.7067 33.39 26.4953C33.39 26.3103 33.39 26.09 33.39 25.905C33.3637 25.1297 33.3374 24.4072 33.3111 23.7641C33.3111 23.4733 33.3111 23.1738 33.2848 22.9359C33.2848 22.6716 33.2585 22.4513 33.2585 22.2663C33.2322 22.0813 33.2322 21.9492 33.2322 21.8346C33.2058 21.7289 33.2058 21.7025 33.2058 21.7025C33.2058 21.7025 33.2058 21.7289 33.2058 21.8346C33.2058 21.9403 33.1795 22.0725 33.1795 22.2663C33.1532 22.4513 33.1532 22.6716 33.1269 22.9359C33.1269 23.1738 33.1269 23.4733 33.1006 23.7641C33.0743 24.4072 33.048 25.1297 33.048 25.905C33.048 26.09 33.048 26.3103 33.0217 26.4953C33.0217 26.7067 33.0217 26.927 33.0217 27.112C33.0217 27.5437 33.0217 27.9402 33.0217 28.3719C33.0217 28.7772 33.0217 29.2001 33.0217 29.6053C33.0217 29.7111 33.0217 29.8168 33.0217 29.9225C33.0217 30.0018 33.0217 30.1075 33.0217 30.2132C33.048 30.3983 33.048 30.6185 33.048 30.8035C33.048 31.2088 33.048 31.5788 33.0743 31.9313C33.0743 32.3101 33.1006 32.6273 33.1006 32.9444C33.1006 33.2616 33.1269 33.5347 33.1269 33.799C33.1532 34.0369 33.1532 34.2836 33.1795 34.4422C33.1795 34.6272 33.2058 34.7858 33.2058 34.8739C33.2058 34.9796 33.2058 35.0325 33.2058 35.0325C33.2058 35.0325 33.2058 34.9796 33.2322 34.8739C33.2322 34.7946 33.2322 34.636 33.2585 34.4422C33.2585 34.2836 33.2848 34.0369 33.2848 33.799C33.3111 33.5347 33.3111 33.2616 33.3374 32.9444C33.3374 32.6273 33.3374 32.3013 33.3637 31.9313C33.3637 31.5877 33.3637 31.2088 33.39 30.8035C33.39 30.6185 33.39 30.3983 33.39 30.2132C33.39 30.1075 33.39 30.0018 33.39 29.9225C33.39 29.8168 33.39 29.7111 33.39 29.6053C33.4163 29.2001 33.4163 28.7772 33.4163 28.3719Z" fill="white"/>
<path d="M41.6257 26.927C41.2749 27.1032 41.0381 27.4468 41.0118 27.8257V34.6537C40.9679 36.3541 39.4594 37.6932 37.6 37.6932C34.3373 37.6932 34.6443 34.8299 36.53 34.8299C37.1878 34.8299 37.714 35.3145 37.714 35.9136C37.714 36.3981 37.3632 36.8122 36.8808 36.9532C37.6438 37.2351 38.3718 36.6889 38.6525 36.2307C38.9594 35.7285 38.9594 35.0061 38.9594 34.5656V27.8257C38.9331 27.4468 38.6963 27.1032 38.3718 26.927C38.5472 26.8477 38.7402 26.7861 38.9594 26.7861V26.1077V20.2224C38.9594 19.2797 38.5034 19.4823 38.5034 18.9977H39.6436C39.8365 18.9977 39.9944 19.1563 39.9944 19.3413C39.9944 19.1651 40.1435 18.9977 40.3452 18.9977H41.5029C41.5029 19.4823 41.0206 19.2797 41.0206 20.2224V26.1077V26.7861C41.231 26.7861 41.4503 26.8477 41.6257 26.927ZM40.1347 27.4821C40.1347 27.0856 40.1347 26.698 40.1347 26.3191C40.1347 26.1165 40.1347 25.9227 40.1347 25.7376C40.1347 25.5614 40.1347 25.3588 40.1347 25.1738C40.1172 24.4513 40.0909 23.7729 40.0733 23.1738C40.0733 22.8919 40.0558 22.61 40.0558 22.3721C40.0558 22.1518 40.0382 21.9316 40.0382 21.773C40.0207 21.5968 40.0207 21.4734 40.0207 21.3765C39.9944 21.2796 39.9944 21.2356 39.9944 21.2356C39.9944 21.2356 39.9944 21.2796 39.9944 21.3765C39.9944 21.4734 39.9768 21.5968 39.9768 21.773C39.9593 21.9316 39.9593 22.1518 39.933 22.3721C39.933 22.61 39.9154 22.8919 39.9154 23.1738C39.8891 23.7729 39.8716 24.4513 39.8716 25.1738C39.8716 25.35 39.854 25.5526 39.854 25.7376C39.854 25.9138 39.854 26.1165 39.854 26.3191C39.854 26.698 39.854 27.0768 39.854 27.4821C39.854 27.8609 39.854 28.2662 39.854 28.645C39.854 28.742 39.854 28.8212 39.854 28.927C39.854 29.0239 39.854 29.1296 39.854 29.2089C39.854 29.4115 39.8716 29.5877 39.8716 29.7728C39.8716 30.134 39.8716 30.4952 39.8891 30.83C39.8891 31.1736 39.9154 31.4732 39.9154 31.7727C39.9154 31.9137 39.9154 32.0546 39.933 32.1956C39.933 32.3366 39.933 32.4599 39.933 32.5744C39.9505 32.8123 39.9505 33.015 39.9768 33.1912C39.9768 33.3498 39.9944 33.4907 39.9944 33.57C39.9944 33.6669 39.9944 33.711 39.9944 33.711C39.9944 33.711 39.9944 33.6669 40.0207 33.57C40.0207 33.4907 40.0207 33.3498 40.0382 33.1912C40.0382 33.015 40.0558 32.8123 40.0558 32.5744C40.0558 32.4511 40.0558 32.3366 40.0733 32.1956C40.0733 32.0546 40.0733 31.9137 40.0733 31.7727C40.0909 31.4732 40.0909 31.1736 40.1172 30.83C40.1172 30.4864 40.1172 30.134 40.1347 29.7728C40.1347 29.5966 40.1347 29.4115 40.1347 29.2089C40.1347 29.1296 40.1347 29.0327 40.1347 28.927C40.1347 28.8301 40.1347 28.7508 40.1347 28.645C40.1347 28.2662 40.1347 27.8697 40.1347 27.4821Z" fill="white"/>
<path d="M52.2646 28.4248C51.8611 28.6626 51.5717 29.1208 51.5191 29.6318V33.6757C51.4665 35.9223 49.6246 37.7461 47.3618 37.7461C45.0989 37.7461 43.2571 35.9223 43.2045 33.6757V29.6318C43.1518 29.1208 42.8887 28.6715 42.459 28.4248C42.6695 28.2926 42.9413 28.2397 43.2045 28.2397V27.3323V23.0769C43.2571 20.8303 45.0989 19.0065 47.3618 19.0065C49.6246 19.0065 51.4665 20.8303 51.5191 23.0769V27.3323V28.2397C51.7822 28.2397 52.0541 28.2926 52.2646 28.4248ZM44.6429 28.3455C44.6429 28.0019 44.6429 27.623 44.6429 27.2706C44.6429 27.112 44.6165 26.927 44.6165 26.7596C44.6165 26.5922 44.6165 26.416 44.6165 26.2486C44.5902 25.579 44.5902 24.9623 44.5639 24.4249C44.5376 24.187 44.5376 23.9139 44.5113 23.7024C44.5113 23.491 44.485 23.2972 44.485 23.165C44.485 23.0064 44.4587 22.8743 44.4587 22.7862C44.4587 22.7069 44.4587 22.654 44.4587 22.654C44.4587 22.654 44.4324 22.7069 44.4324 22.7862C44.4324 22.8655 44.406 22.9976 44.406 23.165C44.406 23.2972 44.3797 23.4822 44.3797 23.7024C44.3534 23.9139 44.3534 24.187 44.3271 24.4249C44.3008 24.9623 44.3008 25.579 44.2745 26.2486C44.2745 26.4072 44.2745 26.5922 44.2745 26.7596C44.2745 26.927 44.2482 27.1032 44.2482 27.2706C44.2482 27.6142 44.2482 27.9931 44.2482 28.3455C44.2482 28.6891 44.2482 29.0415 44.2482 29.3851C44.2482 29.4908 44.2482 29.5701 44.2745 29.6494C44.2745 29.7287 44.2745 29.8344 44.2745 29.9137C44.2745 30.0723 44.2745 30.2309 44.2745 30.4247C44.2745 30.7419 44.3008 31.0679 44.3008 31.3586C44.3008 31.6758 44.3271 31.9489 44.3271 32.2132C44.3534 32.4775 44.3534 32.7242 44.3797 32.9357C44.3797 33.1471 44.406 33.3409 44.406 33.4995C44.406 33.6581 44.4324 33.7902 44.4324 33.8784C44.4324 33.9576 44.4587 33.9841 44.4587 33.9841C44.4587 33.9841 44.4587 33.9576 44.4587 33.8784C44.4587 33.7991 44.485 33.6669 44.485 33.4995C44.485 33.3409 44.5113 33.1559 44.5113 32.9357C44.5376 32.7242 44.5376 32.4775 44.5639 32.2132C44.5639 31.9489 44.5902 31.6758 44.5902 31.3586C44.5902 31.0679 44.6165 30.7419 44.6165 30.4247C44.6165 30.2397 44.6165 30.0811 44.6165 29.9137C44.6165 29.8344 44.6165 29.7287 44.6165 29.6494C44.6429 29.5701 44.6429 29.4908 44.6429 29.3851C44.6429 29.0415 44.6429 28.6979 44.6429 28.3455ZM49.037 23.1826C49.037 22.2487 49.037 20.24 47.3618 20.24C45.6866 20.24 45.6866 22.2487 45.6866 23.1826V27.3323V28.2397C45.9497 28.2397 46.2216 28.2926 46.4321 28.4248C46.0023 28.6626 45.7392 29.1208 45.6866 29.6318V33.57C45.6866 34.4775 45.6866 36.4862 47.3618 36.4862C49.037 36.4862 49.037 34.4775 49.037 33.57V29.6318C49.0107 29.1208 48.7212 28.6715 48.2915 28.4248C48.502 28.2926 48.7739 28.2397 49.037 28.2397V27.3323V23.1826ZM50.4754 28.3455C50.4754 28.0019 50.4754 27.623 50.4754 27.2706C50.4754 27.112 50.4754 26.927 50.4491 26.7596C50.4491 26.601 50.4491 26.416 50.4491 26.2486C50.4491 25.579 50.4227 24.9623 50.3964 24.4249C50.3701 24.187 50.3701 23.9139 50.3438 23.7024C50.3438 23.491 50.3175 23.2972 50.3175 23.165C50.3175 23.0064 50.2912 22.8743 50.2912 22.7862C50.2912 22.7069 50.2912 22.654 50.2912 22.654C50.2912 22.654 50.2649 22.7069 50.2649 22.7862C50.2649 22.8655 50.2649 22.9976 50.2386 23.165C50.2386 23.2972 50.2123 23.4822 50.2123 23.7024C50.1859 23.9139 50.1859 24.187 50.1596 24.4249C50.1333 24.9623 50.1333 25.579 50.107 26.2486C50.107 26.4072 50.107 26.5922 50.107 26.7596C50.107 26.927 50.107 27.1032 50.107 27.2706C50.0807 27.6142 50.0807 27.9931 50.0807 28.3455C50.0807 28.6891 50.0807 29.0415 50.107 29.3851C50.107 29.4908 50.107 29.5701 50.107 29.6494C50.107 29.7287 50.107 29.8344 50.107 29.9137C50.107 30.0723 50.107 30.2309 50.107 30.4247C50.107 30.7419 50.1333 31.0679 50.1333 31.3586C50.1333 31.6758 50.1596 31.9489 50.1596 32.2132C50.1859 32.4775 50.1859 32.7242 50.2123 32.9357C50.2123 33.1471 50.2386 33.3409 50.2386 33.4995C50.2649 33.6581 50.2649 33.7902 50.2649 33.8784C50.2649 33.9576 50.2912 33.9841 50.2912 33.9841C50.2912 33.9841 50.2912 33.9576 50.2912 33.8784C50.2912 33.7991 50.3175 33.6669 50.3175 33.4995C50.3175 33.3409 50.3438 33.1559 50.3438 32.9357C50.3701 32.7242 50.3701 32.4775 50.3964 32.2132C50.3964 31.9489 50.4227 31.6758 50.4227 31.3586C50.4227 31.0679 50.4491 30.7419 50.4491 30.4247C50.4491 30.2397 50.4491 30.0811 50.4491 29.9137C50.4491 29.8344 50.4754 29.7287 50.4754 29.6494C50.4754 29.5701 50.4754 29.4908 50.4754 29.3851C50.4754 29.0415 50.4754 28.6979 50.4754 28.3455Z" fill="white"/>
<path d="M62.7455 37.7461H61.3598C61.1229 37.7461 60.93 37.5346 60.93 37.3144C60.93 37.5258 60.7195 37.7461 60.5002 37.7461H59.0881C59.0881 37.7461 59.0881 37.7461 59.0881 37.7196L56.3166 22.6804V28.2485C56.5797 28.2485 56.8516 28.3014 57.0621 28.4336C56.6323 28.6714 56.3692 29.1296 56.3166 29.6406V36.1162C56.3166 37.376 56.9042 37.1293 56.9042 37.7461H55.4922C55.2817 37.7461 55.0624 37.5346 55.0624 37.3144C55.0624 37.5258 54.8782 37.7461 54.6326 37.7461H53.2469C53.2469 37.1293 53.8082 37.3672 53.8345 36.169V29.6406C53.7819 29.1296 53.5188 28.6802 53.089 28.4336C53.2995 28.3014 53.5714 28.2485 53.8345 28.2485V20.5924C53.8082 19.3854 53.2469 19.632 53.2469 19.0153H54.6589C54.8694 19.0153 55.0887 19.2003 55.0887 19.447C55.0887 19.2091 55.2729 19.0153 55.5185 19.0153H56.9042L59.6758 34.0017V29.6406C59.6495 29.1296 59.36 28.6802 58.9303 28.4336C59.1408 28.3014 59.4127 28.2485 59.6758 28.2485V20.5924C59.6495 19.3854 59.0881 19.632 59.0881 19.0153H60.5002C60.737 19.0153 60.93 19.2003 60.93 19.447C60.93 19.2091 61.1142 19.0153 61.3598 19.0153H62.7455C62.7455 19.632 62.1579 19.3942 62.1579 20.6452V28.2485C62.421 28.2485 62.6929 28.3014 62.9034 28.4336C62.4999 28.6714 62.2105 29.1296 62.1579 29.6406V36.1162C62.1579 37.3672 62.7455 37.1293 62.7455 37.7461ZM55.2817 28.3719C55.2817 27.9402 55.2817 27.5437 55.2817 27.112C55.2817 26.927 55.2554 26.7067 55.2554 26.4953C55.2554 26.3103 55.2554 26.09 55.2554 25.905C55.229 25.1297 55.229 24.4072 55.2027 23.7641C55.1764 23.4733 55.1764 23.1738 55.1501 22.9359C55.1501 22.6716 55.1238 22.4513 55.1238 22.2663C55.1238 22.0813 55.0975 21.9492 55.0975 21.8346C55.0975 21.7289 55.0975 21.7025 55.0975 21.7025C55.0975 21.7025 55.0712 21.7289 55.0712 21.8346C55.0712 21.9403 55.0449 22.0725 55.0449 22.2663C55.0449 22.4513 55.0185 22.6716 55.0185 22.9359C54.9922 23.1738 54.9922 23.4733 54.9659 23.7641C54.9396 24.4072 54.9396 25.1297 54.9133 25.905C54.9133 26.09 54.9133 26.3103 54.9133 26.4953C54.9133 26.7067 54.887 26.927 54.887 27.112C54.887 27.5437 54.887 27.9402 54.887 28.3719C54.887 28.7772 54.887 29.2001 54.887 29.6053C54.887 29.7111 54.887 29.8168 54.9133 29.9225C54.9133 30.0018 54.9133 30.1075 54.9133 30.2132C54.9133 30.3983 54.9133 30.6185 54.9133 30.8035C54.9133 31.2088 54.9396 31.5788 54.9396 31.9313C54.9396 32.3101 54.9659 32.6273 54.9659 32.9444C54.9922 33.2616 54.9922 33.5347 55.0185 33.799C55.0185 34.0369 55.0449 34.2836 55.0449 34.4422C55.0449 34.6272 55.0712 34.7858 55.0712 34.8739C55.0712 34.9796 55.0975 35.0325 55.0975 35.0325C55.0975 35.0325 55.0975 34.9796 55.0975 34.8739C55.0975 34.7946 55.1238 34.636 55.1238 34.4422C55.1238 34.2836 55.1501 34.0369 55.1501 33.799C55.1764 33.5347 55.1764 33.2616 55.2027 32.9444C55.2027 32.6273 55.229 32.3013 55.229 31.9313C55.229 31.5877 55.2554 31.2088 55.2554 30.8035C55.2554 30.6185 55.2554 30.3983 55.2554 30.2132C55.2554 30.1075 55.2554 30.0018 55.2817 29.9225C55.2817 29.8168 55.2817 29.7111 55.2817 29.6053C55.2817 29.2001 55.2817 28.7772 55.2817 28.3719ZM61.1142 28.3719C61.1142 27.9402 61.1142 27.5437 61.1142 27.112C61.1142 26.927 61.1142 26.7067 61.0879 26.4953C61.0879 26.3103 61.0879 26.09 61.0879 25.905C61.0879 25.1297 61.0616 24.4072 61.0352 23.7641C61.0089 23.4733 61.0089 23.1738 60.9826 22.9359C60.9826 22.6716 60.9563 22.4513 60.9563 22.2663C60.9563 22.0813 60.93 21.9492 60.93 21.8346C60.93 21.7289 60.93 21.7025 60.93 21.7025C60.93 21.7025 60.9037 21.7289 60.9037 21.8346C60.9037 21.9403 60.9037 22.0725 60.8774 22.2663C60.8774 22.4513 60.8511 22.6716 60.8511 22.9359C60.8247 23.1738 60.8247 23.4733 60.7984 23.7641C60.7721 24.4072 60.7721 25.1297 60.7458 25.905C60.7458 26.09 60.7458 26.3103 60.7458 26.4953C60.7458 26.7067 60.7458 26.927 60.7458 27.112C60.7195 27.5437 60.7195 27.9402 60.7195 28.3719C60.7195 28.7772 60.7195 29.2001 60.7458 29.6053C60.7458 29.7111 60.7458 29.8168 60.7458 29.9225C60.7458 30.0018 60.7458 30.1075 60.7458 30.2132C60.7458 30.3983 60.7458 30.6185 60.7458 30.8035C60.7458 31.2088 60.7721 31.5788 60.7721 31.9313C60.7984 32.3101 60.7984 32.6273 60.7984 32.9444C60.8247 33.2616 60.8247 33.5347 60.8511 33.799C60.8511 34.0369 60.8774 34.2836 60.8774 34.4422C60.9037 34.6272 60.9037 34.7858 60.9037 34.8739C60.9037 34.9796 60.93 35.0325 60.93 35.0325C60.93 35.0325 60.93 34.9796 60.93 34.8739C60.93 34.7946 60.9563 34.636 60.9563 34.4422C60.9563 34.2836 60.9826 34.0369 60.9826 33.799C61.0089 33.5347 61.0089 33.2616 61.0352 32.9444C61.0352 32.6273 61.0616 32.3013 61.0616 31.9313C61.0616 31.5877 61.0879 31.2088 61.0879 30.8035C61.0879 30.6185 61.0879 30.3983 61.0879 30.2132C61.1142 30.1075 61.1142 30.0018 61.1142 29.9225C61.1142 29.8168 61.1142 29.7111 61.1142 29.6053C61.1142 29.2001 61.1142 28.7772 61.1142 28.3719Z" fill="white"/>
<path d="M74.5421 37.7461H73.4458H73.1564H72.3056H70.8935H67.6133H67.2975C67.087 37.7461 66.8678 37.5346 66.8678 37.3144C66.8678 37.5258 66.6836 37.7461 66.438 37.7461H65.0522C65.0522 37.1293 65.6135 37.3672 65.6399 36.169V29.6406C65.5872 29.1296 65.3241 28.6802 64.8943 28.4336C65.1048 28.3014 65.3767 28.2485 65.6399 28.2485V20.5924C65.6135 19.3854 65.0522 19.632 65.0522 19.0153H66.4643C66.6748 19.0153 66.8941 19.2003 66.8941 19.447C66.8941 19.2091 67.0783 19.0153 67.3238 19.0153H67.6133H68.7096H70.8935H72.3056H73.1564H73.4458H74.5421C74.5421 19.632 73.9545 19.3942 73.9545 20.6452C73.9545 21.958 73.9545 23.9403 73.9545 24.2046C71.4987 24.2046 71.4724 21.8258 71.4724 21.8258V20.9888C71.4724 20.5836 71.1566 20.2664 70.7532 20.24H68.8324C68.4289 20.2664 68.1132 20.5836 68.1132 20.9888V27.0151C68.1132 27.4204 68.4289 27.7375 68.8324 27.7375H69.0166C69.3937 27.7375 69.7095 27.4204 69.7095 27.0151V26.9799C69.7095 26.9799 69.7358 25.5878 71.3321 25.5878C71.3321 25.7464 71.3321 26.9006 71.3321 27.7287C71.3321 27.8345 71.3321 27.9402 71.3321 28.0195C71.3321 28.4247 71.3321 28.6891 71.3321 28.6891V28.9798C71.3321 29.8344 71.3321 30.9621 71.3321 31.1207C69.7358 31.1207 69.7095 29.7287 69.7095 29.7287C69.7095 29.3234 69.3937 29.0062 69.0166 28.9798H68.8324C68.4289 29.0062 68.1132 29.3234 68.1132 29.7287V35.7549C68.1132 36.1602 68.4289 36.4774 68.8324 36.4774H70.7532C71.1566 36.4774 71.4724 36.1602 71.4724 35.7549V34.9091C71.4724 34.9091 71.4987 32.5304 73.9545 32.5304C73.9545 32.7947 73.9545 34.777 73.9545 36.1162C73.9545 37.3672 74.5421 37.1293 74.5421 37.7461ZM67.0783 28.3719C67.0783 27.9402 67.0783 27.5437 67.0783 27.112C67.0783 26.927 67.0519 26.7067 67.0519 26.4953C67.0519 26.3103 67.0519 26.09 67.0519 25.905C67.0256 25.1297 67.0256 24.4072 66.9993 23.7641C66.973 23.4733 66.973 23.1738 66.9467 22.9359C66.9467 22.6716 66.9204 22.4513 66.9204 22.2663C66.9204 22.0813 66.8941 21.9492 66.8941 21.8346C66.8941 21.7289 66.8941 21.7025 66.8941 21.7025C66.8941 21.7025 66.8678 21.7289 66.8678 21.8346C66.8678 21.9403 66.8414 22.0725 66.8414 22.2663C66.8414 22.4513 66.8151 22.6716 66.8151 22.9359C66.7888 23.1738 66.7888 23.4733 66.7625 23.7641C66.7362 24.4072 66.7362 25.1297 66.7099 25.905C66.7099 26.09 66.7099 26.3103 66.7099 26.4953C66.7099 26.7067 66.6836 26.927 66.6836 27.112C66.6836 27.5437 66.6836 27.9402 66.6836 28.3719C66.6836 28.7772 66.6836 29.2001 66.6836 29.6053C66.6836 29.7111 66.6836 29.8168 66.7099 29.9225C66.7099 30.0018 66.7099 30.1075 66.7099 30.2132C66.7099 30.3983 66.7099 30.6185 66.7099 30.8035C66.7099 31.2088 66.7362 31.5788 66.7362 31.9313C66.7362 32.3101 66.7625 32.6273 66.7625 32.9444C66.7888 33.2616 66.7888 33.5347 66.8151 33.799C66.8151 34.0369 66.8414 34.2836 66.8414 34.4422C66.8414 34.6272 66.8678 34.7858 66.8678 34.8739C66.8678 34.9796 66.8941 35.0325 66.8941 35.0325C66.8941 35.0325 66.8941 34.9796 66.8941 34.8739C66.8941 34.7946 66.9204 34.636 66.9204 34.4422C66.9204 34.2836 66.9467 34.0369 66.9467 33.799C66.973 33.5347 66.973 33.2616 66.9993 32.9444C66.9993 32.6273 67.0256 32.3013 67.0256 31.9313C67.0256 31.5877 67.0519 31.2088 67.0519 30.8035C67.0519 30.6185 67.0519 30.3983 67.0519 30.2132C67.0519 30.1075 67.0519 30.0018 67.0783 29.9225C67.0783 29.8168 67.0783 29.7111 67.0783 29.6053C67.0783 29.2001 67.0783 28.7772 67.0783 28.3719Z" fill="white"/>
<path d="M92.2414 39.3935C92.2414 39.4464 92.2414 39.4993 92.2414 39.5433V41.4287V43.0586V46.8735C92.1362 51.1465 88.6454 54.6001 84.3478 54.6001C79.9975 54.6001 76.4542 51.0408 76.4542 46.6709C76.4015 44.3361 75.3403 44.7854 75.3403 43.6225H77.9715C78.4276 43.6225 78.7784 43.9749 78.7784 44.433C78.7784 43.9749 79.1818 43.6225 79.5853 43.6225H82.2691C82.2691 44.7943 81.1552 44.3361 81.1552 46.6709C81.1552 46.7237 81.1552 46.7237 81.1552 46.7237C81.1552 48.5034 81.2079 52.2125 84.3478 52.2125C87.5403 52.2125 87.5403 48.3977 87.5403 46.6709V42.9088C87.5403 41.0763 87.4351 37.5169 84.3478 37.5169C80.0414 37.5169 76.5506 34.0633 76.4542 29.7374V26.7419C76.5594 22.4689 80.0501 19.0153 84.3478 19.0153C88.698 19.0153 92.2414 22.5746 92.2414 26.9445C92.2414 29.2793 93.3553 28.83 93.3553 29.9929H90.6715C90.268 29.9929 89.8645 29.6405 89.8645 29.1824C89.8645 29.6405 89.5137 29.9929 89.0576 29.9929H86.4264C86.4264 28.8211 87.5403 29.2793 87.5403 26.8917C87.5403 25.112 87.4877 21.35 84.3478 21.35C81.1552 21.35 81.1552 25.1649 81.1552 26.9445V29.5348C81.1552 31.3145 81.1552 35.1293 84.3478 35.1293C86.5755 35.1293 88.6016 36.0985 90.0663 37.5698C90.575 36.9619 91.3819 36.5566 92.2414 36.5566C92.7501 36.5566 93.25 36.6623 93.6623 36.909C92.8027 37.4112 92.2414 38.3275 92.2414 39.3935ZM81.164 34.9707C81.164 34.9707 81.1114 34.9179 81.0588 34.865C81.0061 34.8122 80.9535 34.7593 80.9097 34.7152L80.857 34.6624C80.8044 34.6095 80.7518 34.5567 80.7518 34.5567C80.6027 34.4069 80.4974 34.2043 80.3483 34.0016C80.1992 33.799 80.094 33.5435 79.9449 33.288C79.8396 32.9796 79.6905 32.6801 79.5941 32.3188C79.4888 31.9664 79.3923 31.6052 79.3397 31.2528C79.3397 31.1999 79.2871 31.1471 79.2871 31.103C79.2871 31.0502 79.2871 30.9973 79.2871 30.9532C79.2345 30.8475 79.2345 30.7506 79.2345 30.6449C79.1818 30.4422 79.1292 30.2396 79.1292 30.037C79.0766 29.6317 79.024 29.2264 79.024 28.8211C78.9713 28.4159 78.9713 27.9577 78.9713 27.5525C78.9713 27.4467 78.9713 27.3498 78.9713 27.2441C78.9713 27.1384 78.9713 27.0415 78.9713 26.9357C78.9713 26.7331 78.9713 26.5305 78.9713 26.3807C79.024 25.9754 79.0766 25.5701 79.1204 25.2089C79.1204 24.8565 79.2257 24.5481 79.2695 24.2398C79.3222 23.9314 79.4186 23.6319 79.4713 23.4292C79.5765 23.1737 79.673 22.9711 79.7782 22.8213C79.8309 22.6715 79.9273 22.513 79.98 22.4689C80.0326 22.416 80.0852 22.416 80.0852 22.3632H80.0326C80.0326 22.416 79.98 22.416 79.98 22.416C79.9273 22.416 79.9273 22.4689 79.8747 22.4689C79.8747 22.5218 79.8221 22.5218 79.8221 22.5218C79.7695 22.5746 79.7695 22.5746 79.7169 22.6275C79.7169 22.6804 79.6642 22.6804 79.6116 22.7332C79.5064 22.883 79.3572 23.0856 79.2081 23.2883C79.1029 23.5438 78.9538 23.7993 78.8573 24.0988C78.7521 24.4072 78.603 24.7596 78.5503 25.112C78.4451 25.5173 78.4012 25.8785 78.3486 26.2838C78.296 26.4864 78.296 26.689 78.2434 26.9445C78.2434 27.1472 78.2434 27.3498 78.2434 27.5525C78.1907 28.0106 78.1907 28.4159 78.2434 28.874C78.296 29.2793 78.296 29.7374 78.3925 30.1427C78.3925 30.2484 78.4451 30.3982 78.4451 30.4951C78.4451 30.6008 78.4977 30.6977 78.4977 30.8035C78.5503 31.0061 78.603 31.2087 78.6468 31.4114C78.7521 31.8167 78.9012 32.1779 79.0503 32.5303C79.1994 32.8827 79.3572 33.1911 79.559 33.4994C79.7081 33.7549 79.9098 34.0104 80.1115 34.2131C80.2606 34.4157 80.4624 34.5655 80.6202 34.6712C80.7693 34.7769 80.9272 34.821 80.9711 34.8738C81.1114 34.9179 81.164 34.9707 81.164 34.9707ZM90.2241 44.8824C90.2241 44.574 90.1715 44.2216 90.1715 43.9132C90.1715 43.5608 90.1189 43.2524 90.0663 42.9969C90.0663 42.8472 90.0137 42.6886 90.0137 42.5388C89.961 42.4331 89.961 42.2833 89.961 42.1864C89.9084 41.9309 89.8558 41.6754 89.7593 41.4728C89.7067 41.2701 89.6541 41.1204 89.6102 40.9618C89.6102 40.856 89.5576 40.812 89.5576 40.7591C89.5049 40.7063 89.505 40.6534 89.4523 40.6534C89.4523 40.5477 89.3997 40.5036 89.3997 40.5036C89.3997 40.5036 89.3997 40.5565 89.4523 40.6534C89.4523 40.7063 89.4523 40.7591 89.4523 40.8032C89.4523 40.856 89.4523 40.9089 89.4523 40.953C89.505 41.1027 89.505 41.3054 89.505 41.508C89.505 41.5609 89.505 41.6137 89.505 41.6578C89.505 41.7106 89.505 41.7635 89.505 41.8076C89.505 41.9573 89.505 42.0631 89.505 42.16C89.505 42.4155 89.505 42.715 89.505 42.9705C89.505 43.1203 89.505 43.2789 89.505 43.4287C89.505 43.5784 89.505 43.737 89.505 43.8868C89.505 44.0366 89.505 44.1952 89.505 44.3449C89.505 44.4507 89.505 44.5476 89.505 44.6004C89.505 44.7062 89.505 44.7502 89.505 44.8559C89.4523 45.0057 89.4523 45.2083 89.4523 45.3669C89.4523 45.4198 89.4523 45.5167 89.4523 45.6224V45.8779C89.4523 46.1863 89.3997 46.5387 89.3997 46.8471C89.3471 47.1554 89.3471 47.5078 89.2945 47.8162C89.2945 47.8691 89.2945 47.966 89.2945 48.0188C89.2418 48.1246 89.2418 48.1686 89.2418 48.2743C89.2418 48.4241 89.1892 48.5298 89.1892 48.6796C89.1892 48.8294 89.1366 48.988 89.1366 49.0849C89.084 49.2347 89.084 49.3404 89.0313 49.4902C89.0313 49.5959 88.9787 49.6928 88.9787 49.8426C88.9261 49.9483 88.9261 50.0452 88.8735 50.1509C88.8208 50.3536 88.7682 50.5033 88.7244 50.6619C88.7244 50.6619 88.7244 50.7148 88.7244 50.7677C88.6717 50.7677 88.6717 50.8205 88.6717 50.8205C88.6717 50.8734 88.6191 50.9262 88.6191 50.9703C88.5665 51.0231 88.5665 51.076 88.5665 51.076C88.5665 51.076 88.6191 51.076 88.6717 50.9703C88.7244 50.9174 88.777 50.8205 88.8735 50.7148C88.9787 50.6091 89.0226 50.4064 89.1278 50.2567C89.1804 50.1509 89.2331 50.054 89.2769 49.9483C89.3295 49.8426 89.3822 49.7457 89.426 49.5959C89.4786 49.4902 89.5313 49.3404 89.5751 49.2435C89.6277 49.1377 89.6277 49.0937 89.6277 49.0408C89.6804 48.9351 89.6804 48.8911 89.733 48.8382C89.733 48.6884 89.7856 48.5298 89.8382 48.3801C89.8909 48.2303 89.8909 48.0717 89.9435 47.9219C89.9435 47.8162 89.9435 47.7721 89.9961 47.6664C89.9961 47.5607 89.9961 47.5166 89.9961 47.4109C90.0487 47.2611 90.0487 47.1026 90.1014 46.8999C90.1014 46.8471 90.1014 46.7501 90.1014 46.6444C90.1014 46.5916 90.154 46.4946 90.154 46.3889C90.154 46.2391 90.154 46.0806 90.154 45.8779C90.2066 45.7281 90.2066 45.5696 90.2066 45.3669C90.2241 45.2436 90.2241 45.0409 90.2241 44.8824Z" fill="white"/>
<path d="M13.0421 40.3977H30.8115V40.2215H13.0421V40.3977ZM62.8508 40.2215V40.3977H80.6115V40.2215H62.8508Z" fill="white"/>
<path fill-rule="evenodd" clip-rule="evenodd" d="M29.338 42.6093C29.8905 43.0762 30.8465 43.878 32.5656 44.9264C33.4953 45.5079 36.258 47.0144 39.3541 47.8514C40.889 48.2831 42.4852 48.5827 43.8622 48.7412C45.248 48.8998 46.4145 48.9263 47.1161 48.9263C47.8178 48.9263 48.9843 48.8998 50.3701 48.7412C51.7558 48.5827 53.3433 48.2919 54.8782 47.8514C57.9655 47.0056 60.737 45.5079 61.6667 44.9264C63.3945 43.878 64.3418 43.085 64.8943 42.6093C65.4469 42.1335 65.5872 41.9485 65.5609 41.9221C65.5346 41.8956 65.3504 42.019 64.7628 42.4419C64.1751 42.8648 63.2016 43.6048 61.4825 44.6092C60.5528 45.1643 57.8164 46.6356 54.773 47.4549C53.2556 47.8778 51.6944 48.1686 50.3262 48.3184C48.9668 48.4681 47.809 48.4946 47.1249 48.4946C46.4408 48.4946 45.2831 48.4681 43.9236 48.3184C42.5642 48.1686 40.9942 47.8778 39.4769 47.4549C36.4247 46.6356 33.6882 45.1643 32.7673 44.6092C31.0482 43.6048 30.0747 42.856 29.4871 42.4419C28.9082 42.0102 28.7152 41.8868 28.6889 41.9221C28.6451 41.9485 28.7854 42.1247 29.338 42.6093ZM70.5164 48.2655C69.7445 48.8293 68.464 49.8249 66.1836 51.1553C65.5609 51.5165 64.3593 52.2037 62.7894 52.9173C61.2194 53.6398 59.2811 54.3799 57.2726 54.9437C55.2553 55.5076 53.1679 55.8952 51.3612 56.0891C49.5544 56.2917 48.0283 56.3269 47.1161 56.3269C46.204 56.3269 44.6867 56.2917 42.8799 56.0891C41.0731 55.8952 38.9857 55.5076 36.9685 54.9437C34.9512 54.3887 33.0129 53.6398 31.4429 52.9173C29.873 52.1949 28.6714 51.5165 28.0487 51.1553C25.7683 49.8161 24.4878 48.8205 23.7159 48.2655C22.9529 47.6928 22.7073 47.5166 22.681 47.5519C22.6547 47.5783 22.8564 47.8074 23.5844 48.4329C24.3211 49.0496 25.5841 50.0892 27.8732 51.4724C28.496 51.8425 29.7063 52.5473 31.2938 53.2786C32.8725 54.0186 34.8284 54.7675 36.872 55.3402C38.9068 55.9217 41.0205 56.3093 42.8448 56.5119C44.6691 56.7234 46.2128 56.7586 47.1337 56.7586C48.0546 56.7586 49.5895 56.7234 51.4226 56.5119C53.2469 56.3093 55.3606 55.9128 57.3954 55.3402C59.4302 54.7675 61.3861 54.0098 62.9736 53.2786C64.5523 52.5473 65.7626 51.8425 66.3941 51.4724C68.6745 50.0892 69.9375 49.0496 70.6742 48.4329C71.4022 47.8074 71.6039 47.5783 71.5776 47.5519C71.525 47.5166 71.2794 47.6928 70.5164 48.2655Z" fill="white"/>
<path fill-rule="evenodd" clip-rule="evenodd" d="M64.8943 15.8258C64.3418 15.3589 63.3858 14.5571 61.6667 13.5087C60.737 12.9272 57.9742 11.4207 54.8782 10.5837C53.3433 10.1432 51.7471 9.85243 50.3701 9.69384C48.9843 9.53526 47.8178 9.50883 47.1161 9.50883C46.4145 9.50883 45.248 9.53526 43.8622 9.69384C42.4764 9.85243 40.8889 10.1432 39.3541 10.5837C36.2668 11.4295 33.4953 12.9272 32.5656 13.5087C30.8377 14.5571 29.8905 15.3501 29.3379 15.8258C28.7854 16.3016 28.6451 16.4866 28.6714 16.513C28.6977 16.5395 28.8819 16.4161 29.4695 15.9932C30.0571 15.5703 31.0307 14.8303 32.7497 13.8259C33.6794 13.2708 36.4159 11.7995 39.4593 10.9802C40.9766 10.5573 42.5466 10.2665 43.9061 10.1167C45.2655 9.96696 46.4232 9.94053 47.1074 9.94053C47.8002 9.94053 48.9492 9.96696 50.3087 10.1167C51.6681 10.2665 53.2381 10.5573 54.7554 10.9802C57.8076 11.7995 60.5441 13.2708 61.465 13.8259C63.184 14.8303 64.1576 15.5703 64.7452 15.9932C65.3328 16.4161 65.517 16.5395 65.5433 16.513C65.5872 16.4866 65.4469 16.3104 64.8943 15.8258ZM70.6567 8.52207C69.9199 7.90535 68.6569 6.86573 66.3766 5.48251C65.7538 5.11248 64.5435 4.40765 62.956 3.6764C61.3773 2.93633 59.4214 2.18745 57.3778 1.61478C55.343 1.0333 53.2381 0.645646 51.405 0.443009C49.5807 0.231561 48.0371 0.19632 47.1249 0.19632C46.204 0.19632 44.6691 0.231561 42.836 0.443009C41.0117 0.645646 38.898 1.04211 36.8632 1.61478C34.8284 2.18745 32.8725 2.94514 31.285 3.6764C29.7063 4.40765 28.4872 5.11248 27.8645 5.48251C25.5841 6.86573 24.3211 7.90535 23.5844 8.52207C22.8564 9.1476 22.6547 9.37667 22.681 9.4031C22.7073 9.43834 22.9529 9.26214 23.7159 8.68947C24.4878 8.12561 25.777 7.13004 28.0487 5.79968C28.6714 5.43846 29.873 4.75125 31.4429 4.03762C33.0129 3.31517 34.9512 2.57511 36.9684 2.01125C38.9857 1.44738 41.0731 1.05973 42.8799 0.865904C44.6866 0.663266 46.2127 0.628025 47.1161 0.628025C48.0283 0.628025 49.5456 0.663266 51.3611 0.865904C53.1679 1.06854 55.2553 1.44738 57.2726 2.01125C59.2898 2.57511 61.2282 3.31517 62.7981 4.03762C64.3681 4.76006 65.5697 5.43846 66.1924 5.79968C68.4728 7.13885 69.7533 8.13442 70.5251 8.68947C71.2881 9.26214 71.5337 9.43834 71.56 9.4031C71.5864 9.37667 71.3846 9.1476 70.6567 8.52207Z" fill="white"/>
<path d="M71.2005 12.8833C71.104 12.7599 70.9725 12.7159 70.8146 12.7511C70.6655 12.7864 70.5778 12.8921 70.5515 13.0419C70.5252 13.1916 70.4024 13.3238 70.262 13.3414C70.0691 13.3678 69.9288 13.5352 69.9463 13.7291C69.9638 13.9317 70.1129 14.0727 70.3234 14.0727C70.3673 14.0639 70.4111 14.0639 70.455 14.0551C70.8672 13.967 71.183 13.6498 71.2619 13.2357C71.2882 13.1123 71.2882 12.989 71.2005 12.8833ZM70.6392 13.3326C70.5427 13.4471 70.4199 13.5176 70.2796 13.5705C70.2445 13.5793 70.2182 13.5793 70.2094 13.5441C70.2007 13.5088 70.2182 13.4912 70.2445 13.4736C70.3322 13.4295 70.4111 13.3855 70.4901 13.3326C70.569 13.2797 70.6216 13.2005 70.6304 13.0947C70.6392 13.0683 70.648 13.0331 70.683 13.0419C70.7006 13.0507 70.7181 13.0683 70.7269 13.0771C70.7269 13.1916 70.6918 13.2621 70.6392 13.3326Z" fill="white"/>
<path d="M23.5581 13.6145C23.523 13.4647 23.4178 13.3766 23.2687 13.3502C23.1196 13.3238 22.988 13.2004 22.9705 13.0594C22.9442 12.8656 22.7775 12.7247 22.5846 12.7423C22.3828 12.7599 22.2425 12.9097 22.2425 13.1211C22.2513 13.1652 22.2513 13.2092 22.26 13.2533C22.3477 13.6674 22.6635 13.9845 23.0757 14.0638C23.1985 14.0903 23.3301 14.0814 23.4353 14.0021C23.5493 13.9052 23.602 13.7731 23.5581 13.6145ZM23.2248 13.5264C23.1196 13.5176 23.0494 13.4823 22.9792 13.4295C22.8652 13.3326 22.795 13.2092 22.7424 13.0683C22.7337 13.033 22.7337 13.0066 22.7687 12.9978C22.8038 12.989 22.8214 13.0066 22.8389 13.033C22.8828 13.1211 22.9266 13.2004 22.9792 13.2797C23.0319 13.359 23.1108 13.4119 23.216 13.4207C23.2424 13.4295 23.2774 13.4383 23.2687 13.4735C23.2599 13.5 23.2336 13.5176 23.2248 13.5264Z" fill="white"/>
<path d="M72.1741 42.8913C72.1039 42.8032 72.0074 42.7679 71.8934 42.7944C71.7882 42.8208 71.718 42.9001 71.7004 43.0058C71.6829 43.1203 71.5952 43.2084 71.49 43.2261C71.3496 43.2437 71.2444 43.367 71.2619 43.508C71.2707 43.6578 71.3847 43.7635 71.5338 43.7635C71.5689 43.7635 71.604 43.7547 71.6303 43.7547C71.9285 43.693 72.1653 43.4551 72.2179 43.1556C72.2355 43.0587 72.2355 42.9706 72.1741 42.8913ZM71.7531 43.2261C71.6829 43.3142 71.5952 43.367 71.49 43.4023C71.4636 43.4111 71.4461 43.4111 71.4373 43.3846C71.4286 43.3582 71.4373 43.3494 71.4636 43.3318C71.525 43.2965 71.5864 43.2701 71.6478 43.2261C71.7092 43.182 71.7443 43.1291 71.7531 43.0499C71.7531 43.0234 71.7706 43.0058 71.7969 43.0146C71.8145 43.0146 71.8232 43.0322 71.832 43.041C71.8232 43.1203 71.7969 43.1732 71.7531 43.2261Z" fill="white"/>
<path d="M22.9792 43.4287C22.9529 43.323 22.874 43.2525 22.76 43.2349C22.6459 43.2173 22.5582 43.1292 22.5407 43.0234C22.5231 42.8825 22.4004 42.7768 22.26 42.7944C22.1109 42.8032 22.0057 42.9177 22.0057 43.0675C22.0057 43.1027 22.0144 43.138 22.0144 43.1644C22.0758 43.464 22.3127 43.7018 22.6109 43.7547C22.7073 43.7723 22.795 43.7723 22.874 43.7106C22.9792 43.6402 23.0143 43.5433 22.9792 43.4287ZM22.7336 43.367C22.6547 43.3582 22.6021 43.3318 22.5582 43.2966C22.4705 43.2261 22.4179 43.138 22.3828 43.0323C22.374 43.0058 22.374 42.9882 22.4004 42.9794C22.4267 42.9706 22.4354 42.9794 22.453 43.0058C22.4881 43.0675 22.5144 43.1292 22.5582 43.1908C22.6021 43.2525 22.6547 43.2878 22.7336 43.2966C22.76 43.2966 22.7775 43.3142 22.7687 43.3406C22.76 43.3494 22.7424 43.3582 22.7336 43.367Z" fill="white"/>
<path d="M70.6128 14.4778C71.1989 14.4778 71.6741 14.0005 71.6741 13.4118C71.6741 12.823 71.1989 12.3457 70.6128 12.3457C70.0267 12.3457 69.5516 12.823 69.5516 13.4118C69.5516 14.0005 70.0267 14.4778 70.6128 14.4778Z" stroke="white" stroke-width="0.304098" stroke-miterlimit="10"/>
<path d="M22.9003 14.4778C23.4865 14.4778 23.9616 14.0005 23.9616 13.4118C23.9616 12.823 23.4865 12.3457 22.9003 12.3457C22.3142 12.3457 21.8391 12.823 21.8391 13.4118C21.8391 14.0005 22.3142 14.4778 22.9003 14.4778Z" stroke="white" stroke-width="0.304098" stroke-miterlimit="10"/>
<path d="M71.7443 44.0539C72.1706 44.0539 72.5161 43.7068 72.5161 43.2786C72.5161 42.8504 72.1706 42.5033 71.7443 42.5033C71.318 42.5033 70.9725 42.8504 70.9725 43.2786C70.9725 43.7068 71.318 44.0539 71.7443 44.0539Z" stroke="white" stroke-width="0.304098" stroke-miterlimit="10"/>
<path d="M22.5056 44.0539C22.9319 44.0539 23.2774 43.7068 23.2774 43.2786C23.2774 42.8504 22.9319 42.5033 22.5056 42.5033C22.0793 42.5033 21.7338 42.8504 21.7338 43.2786C21.7338 43.7068 22.0793 44.0539 22.5056 44.0539Z" stroke="white" stroke-width="0.304098" stroke-miterlimit="10"/>
<path d="M30.4693 46.1156L29.794 47.1905L29.9168 47.2698C29.9606 47.2962 30.0045 47.3138 30.0396 47.2962C30.0746 47.2874 30.1185 47.2522 30.1799 47.1993C30.2237 47.1641 30.2501 47.1376 30.2588 47.1376C30.2676 47.1376 30.2851 47.1376 30.3115 47.1553L30.3904 47.2081C30.4255 47.2257 30.4255 47.2522 30.4079 47.2786L30.0133 47.9129C29.9957 47.9394 29.9694 47.9482 29.9431 47.9306L29.8554 47.8777C29.8378 47.8689 29.8203 47.8513 29.8203 47.8425C29.8203 47.8337 29.8203 47.8072 29.8378 47.7632C29.8641 47.6663 29.8729 47.6046 29.8554 47.5693C29.8378 47.5341 29.8203 47.5077 29.7852 47.4901L29.6624 47.4108L29.0397 48.4063C28.9959 48.468 28.9959 48.5297 29.0222 48.5913C29.0397 48.6354 29.0397 48.6706 29.0222 48.6971L28.9695 48.7764C28.952 48.8028 28.9257 48.8116 28.8994 48.7852L28.3293 48.4239C28.303 48.4063 28.2942 48.3887 28.3117 48.3623L28.3644 48.2742C28.3819 48.2477 28.4082 48.2301 28.4608 48.2301C28.531 48.2301 28.5836 48.1949 28.6187 48.1332L29.9782 45.9571C30.0132 45.8954 30.022 45.8337 29.9957 45.772C29.9782 45.728 29.9782 45.6928 29.9957 45.6663L30.0483 45.587C30.0659 45.5606 30.0834 45.5518 30.1097 45.5694L31.057 46.1685C31.0833 46.1861 31.1271 46.2126 31.1973 46.2478C31.2324 46.2654 31.2499 46.2742 31.2587 46.283C31.285 46.3007 31.3025 46.3183 31.3025 46.3271C31.3025 46.3359 31.2938 46.3535 31.285 46.38L30.9429 46.9262C30.9254 46.9614 30.8991 46.9614 30.864 46.9438L30.7938 46.8998C30.7675 46.8821 30.7588 46.8733 30.7588 46.8557C30.7588 46.8381 30.7675 46.8117 30.7938 46.75C30.8552 46.6178 30.8728 46.5121 30.8465 46.4328C30.8289 46.3623 30.7675 46.2919 30.6798 46.239L30.4693 46.1156Z" fill="white"/>
<path d="M31.8376 50.4944L30.5396 49.7808C30.5133 49.7632 30.5045 49.7368 30.522 49.7103L30.5659 49.631C30.5834 49.6046 30.6185 49.587 30.6799 49.5782C30.7325 49.5694 30.7764 49.5341 30.8115 49.4724L32.0306 47.217C32.0657 47.1553 32.0657 47.0849 32.0394 47.032C32.0218 46.9968 32.0218 46.9615 32.0306 46.9263L32.0832 46.8382C32.092 46.8117 32.1183 46.8117 32.1446 46.8294L33.1182 47.3668C33.1357 47.3756 33.1708 47.3932 33.2234 47.4196C33.2673 47.4373 33.3023 47.4549 33.3111 47.4637C33.355 47.4901 33.3637 47.5077 33.355 47.5342L33.048 48.0892C33.0304 48.1157 33.0217 48.1333 33.0129 48.1333C33.0041 48.1333 32.9866 48.1333 32.9603 48.1157L32.8901 48.0804C32.8638 48.0628 32.855 48.0364 32.8638 48.0011C32.9077 47.8954 32.9252 47.7985 32.9252 47.7104C32.9252 47.6223 32.8726 47.543 32.7673 47.4901L32.5305 47.358L31.9429 48.4328L32.0306 48.4769C32.0832 48.5033 32.1271 48.5209 32.1622 48.5033C32.1972 48.4945 32.2586 48.4416 32.3463 48.3447C32.3726 48.3183 32.3902 48.3007 32.399 48.3007C32.4077 48.3007 32.4165 48.3007 32.434 48.3095L32.5217 48.3535C32.5568 48.3712 32.5656 48.3976 32.5481 48.424L32.1622 49.1377C32.1446 49.1641 32.1183 49.1729 32.092 49.1553L32.0043 49.1112C31.9867 49.1024 31.978 49.0848 31.9692 49.076C31.9692 49.0584 31.9692 49.0231 31.9867 48.9703C32.0131 48.8645 32.0218 48.8029 32.0043 48.7676C31.9867 48.7324 31.9604 48.706 31.9078 48.6795L31.8289 48.6355L31.1711 49.8425L31.4254 49.9834C31.5219 50.0363 31.6008 50.0451 31.6622 50.0275C31.7236 50.0099 31.8376 49.9042 31.9955 49.7279C32.0306 49.6927 32.0657 49.6751 32.1008 49.6927L32.1797 49.7368C32.2148 49.7544 32.2148 49.7808 32.1972 49.8072L31.8376 50.4944Z" fill="white"/>
<path d="M33.5742 50.8998C33.5391 50.9702 33.5391 51.0319 33.5742 51.0848C33.6005 51.12 33.6005 51.1553 33.5917 51.1905L33.5479 51.2786C33.5303 51.305 33.5128 51.3138 33.4777 51.2962L32.8725 51.0055C32.8462 50.9879 32.8374 50.9702 32.8462 50.9438L32.8901 50.8557C32.9076 50.8293 32.9339 50.8117 32.9778 50.8028C33.0479 50.794 33.0918 50.75 33.1269 50.6883L34.2232 48.3712C34.2583 48.3007 34.2495 48.239 34.2232 48.1862C34.1969 48.1509 34.1969 48.1157 34.2144 48.0804L34.2583 47.9923C34.2758 47.9659 34.2934 47.9571 34.3285 47.9747L34.9336 48.2655C34.96 48.2831 34.9687 48.3007 34.96 48.3271L34.9161 48.4152C34.8986 48.4417 34.8722 48.4681 34.8284 48.4681C34.7582 48.4769 34.7144 48.521 34.6793 48.5826L33.5742 50.8998Z" fill="white"/>
<path d="M35.3721 51.4898L36.2755 49.296C36.3018 49.2255 36.3018 49.1638 36.258 49.111C36.2316 49.0757 36.2316 49.0405 36.2404 49.0053L36.2755 48.9172C36.2843 48.8907 36.3106 48.8819 36.3457 48.8907L36.9684 49.1462C36.9947 49.155 37.0035 49.1815 36.9947 49.2079L36.9596 49.296C36.9508 49.3224 36.9158 49.3489 36.8719 49.3577C36.8017 49.3753 36.7579 49.4105 36.7316 49.481L35.9334 51.4369C35.8282 51.6924 35.6879 51.8598 35.5037 51.9567C35.3195 52.0536 35.1353 52.0624 34.9511 51.9919C34.8108 51.9391 34.7143 51.851 34.6705 51.7453C34.6178 51.6395 34.6091 51.5338 34.6529 51.4369C34.6792 51.3752 34.7231 51.3312 34.7845 51.3047C34.8459 51.2783 34.916 51.2783 34.9862 51.3047C35.0476 51.3312 35.0827 51.3664 35.109 51.4105C35.1353 51.4545 35.1353 51.5074 35.109 51.5602C35.1002 51.5779 35.0827 51.6043 35.0651 51.6395C35.0564 51.6572 35.0476 51.6748 35.0388 51.6836C35.0213 51.7364 35.0388 51.7717 35.0915 51.7981C35.1792 51.8422 35.2756 51.7364 35.3721 51.4898Z" fill="white"/>
<path d="M38.3279 50.0979L38.3542 49.9482C38.363 49.9041 38.3717 49.8777 38.3717 49.8689C38.3805 49.8513 38.3893 49.8513 38.4156 49.8424L38.819 49.7984C38.8278 49.7984 38.8278 49.7984 38.8366 49.7984C38.8541 49.8072 38.8629 49.8248 38.8629 49.8513L38.5033 52.8291C38.4945 52.882 38.4945 52.9261 38.5033 52.9525C38.5121 52.9789 38.5296 53.0142 38.5647 53.0494C38.591 53.0758 38.5998 53.1023 38.591 53.1287L38.5647 53.2168C38.5559 53.252 38.5384 53.2608 38.5121 53.252L37.8279 53.023C37.7929 53.0142 37.7753 52.9877 37.7929 52.9525L37.8192 52.8644C37.8279 52.8291 37.863 52.8115 37.9157 52.8027C37.977 52.7939 38.0209 52.7587 38.0384 52.7146C38.0472 52.697 38.0472 52.6882 38.0472 52.6617L38.0998 52.2036L37.5648 52.0274L37.3456 52.4151C37.3368 52.4327 37.328 52.4415 37.328 52.4503C37.3105 52.4943 37.328 52.5472 37.3719 52.6177C37.3982 52.6617 37.407 52.697 37.3982 52.7234L37.3719 52.8115C37.3631 52.8468 37.3368 52.8556 37.2929 52.838L36.8632 52.697C36.8193 52.6794 36.793 52.6529 36.8105 52.6265L36.8456 52.5208C36.8544 52.4944 36.8807 52.4767 36.9158 52.4679C36.986 52.4503 37.0386 52.4062 37.0824 52.327L38.3279 50.0979ZM38.2577 50.8028L37.6964 51.7895L38.1174 51.9305L38.2577 50.8028ZM38.2665 49.4724L38.2928 49.3931C38.3279 49.2874 38.3805 49.2081 38.4419 49.1641C38.5121 49.1112 38.5822 49.1024 38.6612 49.1288C38.7313 49.1552 38.8103 49.2169 38.898 49.3226C38.9681 49.4019 39.0208 49.4548 39.0558 49.4636C39.1172 49.4812 39.1699 49.4548 39.1962 49.3667L39.2137 49.3138L39.3891 49.3755L39.354 49.4724C39.319 49.5693 39.2751 49.6398 39.2049 49.6927C39.1348 49.7367 39.0734 49.7543 38.9944 49.7279C38.9155 49.7015 38.8278 49.631 38.7401 49.5165C38.6787 49.4372 38.6261 49.3931 38.591 49.3843C38.5296 49.3667 38.477 49.4019 38.4419 49.49L38.4244 49.5429L38.2665 49.4724Z" fill="white"/>
<path d="M40.5732 53.8423C40.2837 53.7718 40.0995 53.5691 40.0206 53.2432C39.9417 52.9172 39.968 52.4855 40.0908 51.9657C40.2136 51.4459 40.3802 51.0494 40.5995 50.7763C40.8187 50.5031 41.0643 50.4062 41.3362 50.4679C41.5993 50.5296 41.766 50.7234 41.8537 51.0406C41.9414 51.3577 41.9151 51.7895 41.7835 52.3445C41.652 52.9084 41.4765 53.3136 41.2573 53.5603C41.0556 53.807 40.8187 53.9039 40.5732 53.8423ZM40.5995 53.6132C40.6609 53.6308 40.731 53.6044 40.8012 53.5339C40.8714 53.4634 40.9591 53.252 41.0731 52.8907C41.1783 52.5295 41.2748 52.1947 41.345 51.8952C41.4064 51.6221 41.4502 51.393 41.459 51.208C41.4678 51.023 41.459 50.8996 41.4327 50.8379C41.4064 50.7763 41.3625 50.741 41.3011 50.7234C41.2485 50.7146 41.1959 50.7234 41.1433 50.7498C41.0906 50.7763 41.0468 50.8379 40.9942 50.9349C40.9503 51.0318 40.8801 51.2256 40.7924 51.5163C40.7047 51.8071 40.6258 52.1154 40.5469 52.4326C40.4504 52.8291 40.4153 53.1198 40.4241 53.3048C40.4328 53.481 40.4942 53.5868 40.5995 53.6132Z" fill="white"/>
<path d="M45.9146 54.6176L44.4411 54.4855C44.406 54.4855 44.3885 54.4679 44.3973 54.4326L44.406 54.3357C44.406 54.3093 44.4323 54.274 44.485 54.2388C44.5288 54.2124 44.5551 54.1595 44.5639 54.089L44.7919 51.534C44.8007 51.4635 44.7744 51.4019 44.7305 51.3578C44.6955 51.3314 44.6779 51.2962 44.6867 51.2697L44.6955 51.164C44.6955 51.1376 44.713 51.1288 44.7481 51.1288L45.8532 51.2257C45.8707 51.2257 45.9146 51.2257 45.9672 51.2257C46.0198 51.2257 46.0461 51.2257 46.0637 51.2257C46.1075 51.2257 46.1338 51.2433 46.1338 51.2697L46.0812 51.9041C46.0812 51.9393 46.0725 51.9569 46.0637 51.9657C46.0549 51.9745 46.0374 51.9745 46.0111 51.9745L45.9321 51.9657C45.897 51.9657 45.8795 51.9393 45.8795 51.9041C45.8707 51.7895 45.8532 51.6926 45.8181 51.6045C45.783 51.5252 45.7041 51.4724 45.5813 51.4636L45.3094 51.4371L45.2042 52.6618L45.3006 52.6706C45.362 52.6794 45.4059 52.6706 45.4322 52.6441C45.4585 52.6265 45.4936 52.5472 45.5374 52.4327C45.555 52.3974 45.5638 52.371 45.5638 52.371C45.5725 52.371 45.5813 52.3622 45.5988 52.371L45.6953 52.3798C45.7304 52.3798 45.7479 52.4063 45.7479 52.4415L45.6778 53.252C45.6778 53.2873 45.6602 53.3049 45.6252 53.2961L45.5287 53.2873C45.5111 53.2873 45.4936 53.2785 45.4848 53.2697C45.476 53.2609 45.4673 53.2256 45.4585 53.1639C45.441 53.0582 45.4234 52.9965 45.3883 52.9701C45.362 52.9437 45.3182 52.9261 45.2655 52.9261L45.1778 52.9173L45.0551 54.2829L45.3445 54.3093C45.4497 54.3181 45.5287 54.3005 45.5725 54.2564C45.6164 54.2124 45.6865 54.0714 45.7655 53.8511C45.783 53.7983 45.8093 53.7807 45.8532 53.7807L45.9497 53.7895C45.9847 53.7895 46.0023 53.8159 46.0023 53.8511L45.9146 54.6176Z" fill="white"/>
<path d="M49.3 51.5163L49.379 52.785L49.5193 52.7762C49.5719 52.7762 49.6158 52.7586 49.6333 52.7322C49.6508 52.7057 49.6772 52.6529 49.6947 52.5736C49.7122 52.5119 49.721 52.4855 49.721 52.4767C49.7298 52.4679 49.7473 52.459 49.7736 52.459L49.8701 52.4502C49.9052 52.4502 49.9227 52.4679 49.9315 52.5031L49.9754 53.252C49.9754 53.2872 49.9666 53.3048 49.9315 53.3048L49.8263 53.3137C49.7999 53.3137 49.7824 53.3136 49.7736 53.3048C49.7649 53.296 49.7561 53.2696 49.7386 53.2255C49.7035 53.1286 49.6684 53.0758 49.6421 53.0581C49.607 53.0405 49.5719 53.0317 49.5368 53.0317L49.3965 53.0405L49.4667 54.2123C49.4754 54.2916 49.5017 54.3445 49.5544 54.3797C49.5895 54.4061 49.6158 54.4326 49.6158 54.459L49.6245 54.5559C49.6245 54.5911 49.607 54.6088 49.5719 54.6088L48.8966 54.6528C48.8615 54.6528 48.8527 54.644 48.844 54.6088L48.8352 54.503C48.8352 54.4678 48.8527 54.4414 48.8878 54.4149C48.9404 54.3709 48.9667 54.318 48.958 54.2387L48.8001 51.6749C48.7913 51.6044 48.765 51.5428 48.7036 51.5075C48.6598 51.4811 48.6422 51.4547 48.6422 51.4282L48.6335 51.3313C48.6335 51.2961 48.6422 51.2785 48.6773 51.2785L49.7912 51.208C49.8263 51.208 49.8789 51.1992 49.949 51.1904C49.9841 51.1815 50.0104 51.1815 50.0192 51.1815C50.0543 51.1815 50.0718 51.1815 50.0806 51.1904C50.0894 51.1992 50.0894 51.2168 50.0982 51.2432L50.1332 51.8864C50.1332 51.9216 50.1157 51.948 50.0718 51.948L49.9841 51.9569C49.9578 51.9569 49.9403 51.9569 49.9315 51.948C49.9227 51.9392 49.914 51.904 49.8964 51.8423C49.8613 51.7014 49.8175 51.6044 49.7561 51.5516C49.6947 51.5075 49.6158 51.4811 49.5017 51.4899L49.3 51.5163Z" fill="white"/>
<path d="M53.0013 54.2034L51.5366 54.4325C51.5015 54.4413 51.4839 54.4237 51.4752 54.3884L51.4576 54.2915C51.4489 54.2651 51.4752 54.221 51.5103 54.1858C51.5453 54.1506 51.5629 54.0889 51.5453 54.0184L51.1594 51.481C51.1506 51.4105 51.1156 51.3577 51.0542 51.3224C51.0191 51.3048 50.9928 51.2784 50.984 51.2432L50.9665 51.1374C50.9665 51.111 50.9752 51.0934 51.0103 51.0846L52.1067 50.9172C52.1242 50.9172 52.1681 50.9084 52.2207 50.8907C52.2733 50.8819 52.2996 50.8731 52.3172 50.8731C52.361 50.8643 52.3873 50.8731 52.3961 50.8995L52.4926 51.5251C52.5014 51.5603 52.5014 51.5779 52.4926 51.5868C52.4838 51.5956 52.4663 51.6044 52.44 51.6044L52.361 51.6132C52.3259 51.622 52.3084 51.6044 52.2909 51.5603C52.2558 51.4546 52.2119 51.3577 52.1593 51.2872C52.1067 51.2167 52.019 51.1903 51.8962 51.2079L51.6243 51.252L51.8085 52.4678L51.9049 52.4502C51.9663 52.4414 52.0102 52.4237 52.0277 52.3973C52.0453 52.3709 52.0628 52.2916 52.0804 52.1594C52.0891 52.1154 52.0891 52.0977 52.0979 52.0889C52.0979 52.0801 52.1154 52.0801 52.133 52.0801L52.2295 52.0625C52.2645 52.0537 52.2909 52.0713 52.2909 52.1066L52.4136 52.9171C52.4224 52.9524 52.4049 52.97 52.3698 52.9788L52.2733 52.9964C52.2558 52.9964 52.2382 52.9964 52.2295 52.9876C52.2207 52.9788 52.2031 52.9435 52.1768 52.8907C52.133 52.7938 52.0979 52.7321 52.0628 52.7145C52.0277 52.6968 51.9839 52.688 51.9312 52.6969L51.8435 52.7057L52.054 54.0625L52.3435 54.0184C52.4487 54.0008 52.5189 53.9655 52.554 53.9039C52.5891 53.851 52.6154 53.7012 52.6417 53.4633C52.6505 53.4105 52.668 53.3841 52.7031 53.3752L52.7908 53.3576C52.8259 53.3488 52.8434 53.3664 52.8522 53.4017L53.0013 54.2034Z" fill="white"/>
<path d="M54.6502 53.437C54.6677 53.5074 54.7028 53.5603 54.7642 53.5867C54.808 53.6043 54.8344 53.622 54.8344 53.6572L54.8607 53.7541C54.8694 53.7894 54.8519 53.807 54.8168 53.8158L54.159 53.9744C54.1239 53.9832 54.1064 53.9744 54.1064 53.9391L54.0801 53.8422C54.0713 53.807 54.0801 53.7806 54.1152 53.7453C54.159 53.6925 54.1765 53.6308 54.159 53.5603L53.5714 51.067C53.5538 50.9965 53.5187 50.9436 53.4574 50.926C53.4135 50.9084 53.3872 50.882 53.3784 50.8555L53.3609 50.7586C53.3521 50.7234 53.3696 50.7058 53.4047 50.6969L54.0625 50.5384C54.0976 50.5296 54.1152 50.5384 54.1152 50.5736L54.1415 50.6705C54.1502 50.7058 54.1415 50.7322 54.1064 50.7674C54.0625 50.8203 54.045 50.882 54.0625 50.9524L54.6502 53.437Z" fill="white"/>
<path d="M56.4482 52.7322L55.7378 50.4679C55.7115 50.3974 55.6764 50.3534 55.6062 50.3358C55.5624 50.327 55.536 50.3005 55.5273 50.2653L55.501 50.1772C55.4922 50.1419 55.501 50.1243 55.5361 50.1155L56.1763 49.9129C56.2026 49.9041 56.2202 49.9129 56.2289 49.9393L56.2552 50.0362C56.264 50.0715 56.2552 50.0979 56.2289 50.1331C56.1851 50.186 56.1763 50.2477 56.2026 50.3182L56.8341 52.3357C56.913 52.5912 56.913 52.8203 56.8341 53.0141C56.7552 53.2079 56.6148 53.3313 56.4307 53.393C56.2903 53.437 56.1588 53.437 56.0535 53.3841C55.9483 53.3401 55.8781 53.2608 55.843 53.1639C55.8255 53.0934 55.8255 53.0317 55.8606 52.9701C55.8956 52.9084 55.9395 52.8643 56.0184 52.8467C56.0798 52.8291 56.1325 52.8291 56.1763 52.8467C56.2202 52.8643 56.2552 52.9084 56.2728 52.9612C56.2816 52.9877 56.2816 53.0141 56.2903 53.0582C56.2903 53.0758 56.2991 53.0934 56.2991 53.111C56.3166 53.1639 56.3517 53.1815 56.4131 53.1639C56.5184 53.1286 56.5271 52.9877 56.4482 52.7322Z" fill="white"/>
<path d="M59.2372 52.3886C58.9565 52.5031 58.6934 52.4502 58.4391 52.23C58.1847 52.0097 57.9567 51.6485 57.755 51.1551C57.5532 50.6618 57.4567 50.2389 57.4743 49.8952C57.4918 49.5516 57.6322 49.3226 57.8953 49.208C58.1409 49.1023 58.3952 49.1552 58.6496 49.3666C58.9039 49.5781 59.1407 49.9393 59.3512 50.4679C59.5705 51.0054 59.667 51.4371 59.6319 51.763C59.6056 52.0714 59.474 52.2917 59.2372 52.3886ZM59.132 52.1771C59.1934 52.1507 59.2284 52.089 59.246 51.9921C59.2635 51.8952 59.2109 51.6661 59.0881 51.3137C58.9653 50.9613 58.8425 50.6353 58.7285 50.3446C58.6233 50.0803 58.518 49.8776 58.4128 49.719C58.3075 49.5605 58.2286 49.4724 58.1759 49.4371C58.1146 49.4019 58.0619 49.4019 58.0005 49.4195C57.9479 49.4371 57.9128 49.4812 57.8953 49.534C57.869 49.5869 57.869 49.6662 57.8865 49.7719C57.9041 49.8776 57.9655 50.0715 58.0619 50.3622C58.1584 50.6529 58.2724 50.9437 58.3952 51.252C58.5531 51.6309 58.6847 51.8864 58.7987 52.0273C58.9215 52.1683 59.0267 52.2212 59.132 52.1771Z" fill="white"/>
<path d="M60.2547 48.6268L60.167 48.5035C60.1407 48.4682 60.1231 48.4418 60.1231 48.433C60.1143 48.4242 60.1231 48.4065 60.1319 48.3889L60.3775 48.0717C60.3775 48.0629 60.3862 48.0629 60.395 48.0629C60.4125 48.0541 60.4301 48.0629 60.4476 48.0806L62.3158 50.4153C62.3509 50.4593 62.3772 50.4858 62.4035 50.5034C62.4298 50.521 62.4649 50.521 62.5175 50.5298C62.5526 50.5298 62.5789 50.5475 62.5964 50.5651L62.6403 50.6532C62.6578 50.6796 62.6491 50.706 62.6315 50.7148L61.9913 51.0496C61.9562 51.0673 61.9299 51.0584 61.9123 51.032L61.8685 50.9439C61.8509 50.9175 61.8597 50.8822 61.8948 50.8382C61.9299 50.7853 61.9386 50.7325 61.9123 50.6884C61.9036 50.6796 61.8948 50.662 61.886 50.6444L61.5966 50.2831L61.0967 50.5475L61.2194 50.9792C61.2282 50.9968 61.2282 51.0144 61.237 51.0144C61.2545 51.0496 61.3072 51.0761 61.3861 51.0937C61.4387 51.1025 61.4738 51.1201 61.4826 51.1466L61.5264 51.2347C61.544 51.2611 61.5352 51.2875 61.4913 51.314L61.0879 51.5254C61.044 51.5518 61.009 51.543 61.0002 51.5166L60.9476 51.4197C60.93 51.3932 60.9388 51.3668 60.9563 51.3316C60.9914 51.2699 61.0002 51.1994 60.9739 51.1113L60.2547 48.6268ZM60.702 49.1818L61.0089 50.2743L61.4036 50.0629L60.702 49.1818Z" fill="white"/>
<path d="M61.9474 47.3754L61.886 47.2785C61.8772 47.2609 61.886 47.2433 61.9123 47.2256L62.3859 46.9261C62.6578 46.7587 62.9473 46.7234 63.2718 46.8292C63.5963 46.9349 63.9121 47.2256 64.219 47.719C64.3769 47.9745 64.4997 48.23 64.5962 48.5031C64.6839 48.7674 64.7102 49.0053 64.6663 49.208C64.6225 49.4106 64.4558 49.6044 64.1664 49.7894L63.7016 50.089C63.6752 50.1066 63.6665 50.0978 63.6489 50.0802L63.5875 49.9833C63.57 49.9568 63.57 49.9216 63.5875 49.8775C63.6138 49.8159 63.6051 49.7542 63.5612 49.6925L62.2018 47.5252C62.1667 47.4635 62.1141 47.4283 62.0527 47.4283C62 47.4195 61.9649 47.4107 61.9474 47.3754ZM62.5438 47.1375L64.0612 49.5604C64.1839 49.4811 64.2629 49.393 64.2892 49.2961C64.3155 49.1991 64.2892 49.0318 64.1927 48.8203C64.0962 48.6 63.9734 48.3622 63.8068 48.1067C63.6314 47.8335 63.4823 47.6133 63.3595 47.4723C63.2367 47.3225 63.1315 47.2168 63.0437 47.164C62.956 47.1023 62.8771 47.0759 62.8069 47.067C62.7368 47.0582 62.6491 47.0759 62.5438 47.1375Z" fill="white"/>
<path d="M64.8154 45.8073L64.7101 45.7015C64.675 45.6663 64.6575 45.6487 64.6575 45.6399C64.6487 45.6311 64.6487 45.6134 64.6575 45.587L64.8504 45.2346C64.8504 45.2258 64.8592 45.2258 64.8592 45.217C64.8768 45.2082 64.8943 45.2082 64.9118 45.2258L67.1133 47.2433C67.1571 47.2786 67.1834 47.305 67.2097 47.3138C67.2361 47.3226 67.2711 47.3226 67.3238 47.3226C67.3588 47.3226 67.3852 47.3314 67.4027 47.3491L67.4553 47.4283C67.4729 47.4548 67.4729 47.4812 67.4553 47.4988L66.8765 47.9305C66.8414 47.957 66.8151 47.9482 66.7975 47.9217L66.7449 47.8424C66.7274 47.816 66.7274 47.7808 66.7537 47.7367C66.78 47.675 66.78 47.631 66.7449 47.5869C66.7361 47.5781 66.7274 47.5605 66.7098 47.5517L66.3678 47.2433L65.9117 47.5781L66.0959 47.9834C66.1046 48.001 66.1134 48.0098 66.1134 48.0186C66.1397 48.0539 66.1923 48.0715 66.2713 48.0803C66.3239 48.0803 66.359 48.0979 66.3765 48.1156L66.4292 48.1948C66.4467 48.2213 66.4467 48.2477 66.4116 48.2741L66.052 48.5384C66.0082 48.5649 65.9818 48.5737 65.9643 48.5384L65.8941 48.4503C65.8766 48.4239 65.8766 48.3975 65.8854 48.3622C65.9117 48.3006 65.9029 48.2213 65.8678 48.142L64.8154 45.8073ZM65.3416 46.2742L65.8152 47.305L66.1748 47.0407L65.3416 46.2742Z" fill="white"/>
<path d="M47.4057 40.759C47.4057 41.0409 47.4057 41.4638 47.4057 41.5167C46.8882 41.5167 46.8794 41.0145 46.8794 41.0145V40.8295C46.8794 40.7502 46.8093 40.6797 46.7303 40.6797H46.3269C46.2392 40.6797 46.1778 40.7502 46.1778 40.8295V42.3537C46.1778 42.4418 46.2479 42.5034 46.3269 42.5122H46.3707C46.4497 42.5034 46.5198 42.4418 46.5198 42.3537V42.3449C46.5198 42.3449 46.5286 42.0453 46.8619 42.0453C46.8619 42.0805 46.8619 42.3272 46.8619 42.5034C46.8619 42.5211 46.8619 42.5475 46.8619 42.5563C46.8619 42.6444 46.8619 42.6973 46.8619 42.6973V42.7589C46.8619 42.944 46.8619 43.1818 46.8619 43.2171C46.5198 43.2171 46.5198 42.9263 46.5198 42.9263V42.9175C46.5198 42.8294 46.4497 42.7677 46.3707 42.7589H46.3269C46.2392 42.7677 46.1778 42.8294 46.1778 42.9175V44.4593C46.1778 44.7236 46.3006 44.6796 46.3006 44.8029H46.0024C45.9497 44.8029 45.9146 44.7589 45.9146 44.7148C45.9146 44.7677 45.8708 44.8029 45.8269 44.8029H45.5287C45.5287 44.6708 45.6515 44.7236 45.6515 44.4681V42.8911C45.6428 42.7854 45.5814 42.6885 45.4937 42.6356C45.5375 42.6092 45.5989 42.5915 45.6515 42.5915V40.7149C45.6428 40.4594 45.5287 40.5123 45.5287 40.3802H45.8269C45.8708 40.3802 45.9146 40.4242 45.9146 40.4771C45.9146 40.4242 45.9585 40.3802 46.0024 40.3802H46.0637H46.2918H46.7566H47.0548H47.239H47.3004H47.5285C47.5285 40.5476 47.4057 40.4947 47.4057 40.759ZM45.941 42.6268C45.941 42.5211 45.941 42.4241 45.941 42.3184C45.941 42.2656 45.9322 42.2215 45.9322 42.1686C45.9322 42.1158 45.9322 42.0717 45.9322 42.0189C45.9234 41.8339 45.9234 41.6488 45.9234 41.4991C45.9146 41.4286 45.9146 41.3493 45.9146 41.2876C45.9146 41.2259 45.9059 41.1731 45.9059 41.129C45.9059 41.085 45.8971 41.0497 45.8971 41.0233C45.8971 40.9969 45.8971 40.9793 45.8971 40.9793C45.8971 40.9793 45.8883 40.9881 45.8883 41.0233C45.8883 41.0497 45.8796 41.0762 45.8796 41.129C45.8796 41.1819 45.8708 41.2259 45.8708 41.2876C45.862 41.3493 45.862 41.4198 45.862 41.4991C45.8533 41.6488 45.8532 41.8339 45.8532 42.0189C45.8532 42.0717 45.8532 42.1158 45.8532 42.1686C45.8532 42.2215 45.8533 42.2656 45.8445 42.3184C45.8445 42.4241 45.8445 42.5211 45.8445 42.6268C45.8445 42.7325 45.8445 42.8294 45.8445 42.9351C45.8445 42.9616 45.8532 42.988 45.8532 43.0056C45.8532 43.0232 45.8532 43.0585 45.8532 43.0761C45.8532 43.129 45.8532 43.173 45.8532 43.2259C45.8532 43.3228 45.862 43.4109 45.862 43.499C45.862 43.5871 45.8708 43.6664 45.8708 43.7457C45.8796 43.7897 45.8796 43.8162 45.8796 43.8514C45.8796 43.8867 45.8883 43.9219 45.8883 43.9571C45.8883 44.0188 45.8971 44.0717 45.8971 44.1157C45.8971 44.1598 45.9059 44.195 45.9059 44.2214C45.9059 44.2479 45.9146 44.2655 45.9146 44.2655C45.9146 44.2655 45.9146 44.2567 45.9146 44.2214C45.9146 44.195 45.9234 44.1686 45.9234 44.1157C45.9234 44.0717 45.9322 44.0188 45.9322 43.9571C45.941 43.9219 45.941 43.8867 45.941 43.8514C45.941 43.8162 45.9497 43.7809 45.9497 43.7457C45.9497 43.6664 45.9585 43.5871 45.9585 43.499C45.9585 43.4109 45.9673 43.3228 45.9673 43.2259C45.9673 43.173 45.9673 43.129 45.9673 43.0761C45.9673 43.0497 45.9673 43.0232 45.976 43.0056C45.976 42.9792 45.976 42.9528 45.976 42.9351C45.941 42.8294 45.941 42.7237 45.941 42.6268Z" fill="white"/>
<path d="M47.8003 44.1248C47.7126 44.1688 47.6599 44.2569 47.6512 44.3626V46.1511C47.6424 46.6005 47.2828 46.9529 46.8355 46.9529C46.0549 46.9529 46.1338 46.204 46.5811 46.204C46.739 46.204 46.8618 46.3273 46.8618 46.4859C46.8618 46.6093 46.7741 46.7238 46.6601 46.759C46.8443 46.8295 47.0197 46.6886 47.0811 46.574C47.1512 46.4419 47.1512 46.2569 47.1512 46.1423V44.3714C47.1425 44.2745 47.0898 44.1864 47.0109 44.1336C47.0548 44.1159 47.0986 44.0983 47.1512 44.0983V43.9221V42.3803C47.1512 42.1336 47.0372 42.1865 47.0372 42.0631H47.3091C47.353 42.0631 47.3968 42.1072 47.3968 42.1512C47.3968 42.1072 47.4319 42.0631 47.4845 42.0631H47.7652C47.7652 42.1865 47.6512 42.1336 47.6512 42.3803V43.9221V44.0983C47.7038 44.0807 47.7564 44.0983 47.8003 44.1248ZM47.4407 44.2657C47.4407 44.16 47.4407 44.0631 47.4407 43.9574C47.4407 43.9045 47.4407 43.8516 47.4407 43.8076C47.4407 43.7635 47.4407 43.7107 47.4407 43.6578C47.4319 43.4728 47.4319 43.2878 47.4231 43.1292C47.4231 43.0587 47.4144 42.9794 47.4144 42.9177C47.4144 42.8561 47.4056 42.8032 47.4056 42.7592C47.3968 42.7151 47.3968 42.6799 47.3968 42.6534C47.3881 42.627 47.388 42.6182 47.388 42.6182C47.388 42.6182 47.388 42.627 47.388 42.6534C47.388 42.6799 47.3793 42.7151 47.3793 42.7592C47.3705 42.8032 47.3705 42.8561 47.3705 42.9177C47.3705 42.9794 47.3617 43.0499 47.3617 43.1292C47.353 43.2878 47.353 43.464 47.353 43.6578C47.353 43.7019 47.3442 43.7547 47.3442 43.8076C47.3442 43.8516 47.3442 43.9045 47.3442 43.9574C47.3442 44.0543 47.3442 44.16 47.3442 44.2657C47.3442 44.3626 47.3442 44.4684 47.3442 44.5741C47.3442 44.6005 47.3442 44.6181 47.3442 44.6446C47.3442 44.671 47.3442 44.6974 47.3442 44.715C47.3442 44.7679 47.353 44.812 47.353 44.8648C47.353 44.9617 47.353 45.0498 47.3617 45.1468C47.3617 45.2349 47.3705 45.3141 47.3705 45.3934C47.3705 45.4287 47.3705 45.4639 47.3793 45.508C47.3793 45.5432 47.3793 45.5785 47.3793 45.6049C47.3881 45.6666 47.388 45.7194 47.388 45.7635C47.388 45.8075 47.3968 45.8428 47.3968 45.8604C47.3968 45.8868 47.3968 45.8956 47.3968 45.8956C47.3968 45.8956 47.3968 45.8868 47.4056 45.8604C47.4056 45.8428 47.4056 45.7987 47.4144 45.7635C47.4144 45.7194 47.4231 45.6666 47.4231 45.6049C47.4231 45.5696 47.4231 45.5432 47.4319 45.508C47.4319 45.4727 47.4319 45.4375 47.4319 45.3934C47.4407 45.3141 47.4407 45.2349 47.4407 45.1468C47.4407 45.0586 47.4407 44.9617 47.4494 44.8648C47.4494 44.8208 47.4494 44.7679 47.4494 44.715C47.4494 44.6974 47.4494 44.671 47.4494 44.6446C47.4494 44.6181 47.4494 44.6005 47.4494 44.5741C47.4407 44.4684 47.4407 44.3714 47.4407 44.2657Z" fill="white"/>
<path d="M26.8647 13.5352L26.777 13.5881C26.7506 13.6057 26.7243 13.5969 26.698 13.5704L26.2683 12.8744C26.2419 12.8304 26.2419 12.7951 26.277 12.7775L26.356 12.7246C26.3735 12.7158 26.391 12.707 26.4086 12.7158C26.4261 12.7246 26.4612 12.7687 26.5314 12.848C26.777 13.1387 26.9962 13.2268 27.1716 13.1211C27.2681 13.0594 27.312 12.9801 27.312 12.8656C27.312 12.7511 27.2857 12.6365 27.2067 12.522C27.1366 12.3987 27.0401 12.3106 26.9173 12.2401C26.7945 12.1696 26.6015 12.1079 26.3297 12.0286C26.1192 11.9758 25.9701 11.9229 25.8736 11.8877C25.7771 11.8436 25.6806 11.7908 25.5929 11.7203C25.5052 11.6498 25.4263 11.5529 25.3561 11.4471C25.2333 11.2445 25.1807 11.0419 25.1982 10.848C25.2158 10.6542 25.3035 10.5133 25.4526 10.4163C25.5228 10.3723 25.6017 10.3459 25.7069 10.337C25.7508 10.337 25.7771 10.3282 25.7946 10.3194C25.8122 10.3106 25.821 10.3018 25.8297 10.2754C25.8385 10.2578 25.856 10.2401 25.8736 10.2313L25.9437 10.1873C25.9788 10.1608 26.0051 10.1697 26.0314 10.2049L26.4086 10.8128C26.4261 10.8392 26.4261 10.8657 26.3998 10.8833L26.3121 10.9362C26.2858 10.9538 26.2683 10.9538 26.2595 10.945C26.2419 10.9362 26.2069 10.9009 26.1455 10.8304C25.9262 10.6014 25.7508 10.5221 25.6192 10.6014C25.5491 10.6454 25.514 10.7071 25.5052 10.7952C25.4964 10.8833 25.5228 10.9626 25.5666 11.0419C25.6192 11.13 25.7069 11.2093 25.8122 11.2709C25.9174 11.3326 26.0928 11.3943 26.3384 11.456C26.6454 11.5353 26.8822 11.6234 27.0488 11.7291C27.2155 11.8348 27.3471 11.967 27.4523 12.1432C27.5926 12.3722 27.654 12.6013 27.6189 12.8304C27.5839 13.0506 27.4874 13.218 27.3207 13.3149C27.2418 13.359 27.1453 13.3942 27.0225 13.4207C26.9787 13.4295 26.9524 13.4383 26.9436 13.4383C26.9348 13.4471 26.9173 13.4647 26.9085 13.4823C26.8822 13.5264 26.8734 13.5352 26.8647 13.5352Z" fill="white"/>
<path d="M28.0048 9.44691L27.9171 9.32356C27.8908 9.28832 27.8732 9.26189 27.8732 9.26189C27.8645 9.25308 27.8732 9.23546 27.882 9.21784L28.1188 8.89186C28.1188 8.88305 28.1276 8.88305 28.1364 8.88305C28.1539 8.87424 28.1714 8.87424 28.189 8.90067L30.0922 11.2002C30.1273 11.2442 30.1536 11.2706 30.1799 11.2795C30.2062 11.2883 30.2413 11.2971 30.2939 11.3059C30.329 11.3059 30.3553 11.3235 30.3729 11.3411L30.4167 11.4292C30.4343 11.4557 30.4255 11.4821 30.408 11.4909L29.7765 11.8345C29.7414 11.8521 29.7151 11.8433 29.6975 11.8169L29.6537 11.7288C29.6361 11.7024 29.6449 11.6671 29.6712 11.6231C29.7063 11.5702 29.7151 11.5173 29.6888 11.4733C29.68 11.4645 29.6712 11.4469 29.6625 11.4292L29.3642 11.0768L28.8643 11.3499L28.9959 11.7728C29.0047 11.7905 29.0046 11.8081 29.0134 11.8081C29.031 11.8433 29.0836 11.8697 29.1625 11.8874C29.2151 11.8962 29.2502 11.9138 29.259 11.9402L29.3029 12.0283C29.3204 12.0548 29.3116 12.0812 29.2765 12.1076L28.8819 12.3191C28.838 12.3455 28.8029 12.3367 28.7942 12.3103L28.7415 12.2133C28.724 12.1869 28.7328 12.1605 28.7503 12.1252C28.7854 12.0636 28.7942 11.9931 28.7678 11.905L28.0048 9.44691ZM28.4696 9.99315L28.7942 11.0768L29.1888 10.8654L28.4696 9.99315Z" fill="white"/>
<path d="M31.5921 8.99794C32.0481 8.93627 32.3639 9.09486 32.5305 9.4737C32.6095 9.6411 32.6358 9.79968 32.6182 9.96708C32.6007 10.1345 32.5305 10.2754 32.4253 10.3988C32.32 10.5221 32.1885 10.619 32.0481 10.6807L31.4517 10.9626C31.4254 10.9715 31.4079 10.9626 31.3991 10.945L31.3552 10.8481C31.3465 10.8217 31.3465 10.7864 31.3728 10.7424C31.4079 10.6807 31.4079 10.619 31.3728 10.5574L30.294 8.23144C30.2589 8.16096 30.2151 8.12572 30.1449 8.11691C30.101 8.1081 30.0747 8.09048 30.0572 8.06405L30.0133 7.97595C30.0046 7.94951 30.0133 7.92308 30.0396 7.91427L30.6624 7.62353C30.8904 7.51781 31.1097 7.50019 31.3202 7.57067C31.5219 7.64115 31.6798 7.79093 31.7762 8.00238C31.8464 8.16096 31.8727 8.31955 31.8552 8.49575C31.8464 8.66315 31.7499 8.83055 31.5921 8.99794ZM30.6799 7.90546L31.2061 9.04199C31.4868 8.90984 31.5307 8.65434 31.3552 8.2755C31.2938 8.13453 31.2149 8.02881 31.136 7.94951C31.057 7.87903 30.9781 7.83498 30.9167 7.83498C30.8553 7.84379 30.7764 7.86141 30.6799 7.90546ZM31.3114 9.27106L31.8727 10.4869C31.978 10.434 32.0569 10.3724 32.1095 10.3019C32.1621 10.2314 32.1797 10.1521 32.1709 10.0552C32.1621 9.94946 32.1271 9.82611 32.0569 9.68515C31.9604 9.4737 31.8552 9.33273 31.7324 9.26225C31.6184 9.19177 31.478 9.19177 31.3114 9.27106Z" fill="white"/>
<path d="M34.8547 9.52636C34.574 9.63209 34.3109 9.57922 34.0653 9.35015C33.8197 9.12109 33.6005 8.75986 33.4075 8.25767C33.2146 7.75549 33.1269 7.33259 33.1444 6.98018C33.1707 6.63658 33.311 6.40751 33.5742 6.30178C33.8197 6.20487 34.0741 6.26654 34.3197 6.47799C34.574 6.68944 34.8021 7.05947 35.0038 7.58809C35.2143 8.12552 35.302 8.55723 35.2581 8.88321C35.2318 9.218 35.0915 9.42945 34.8547 9.52636ZM34.7494 9.31491C34.8108 9.28848 34.8459 9.22681 34.8722 9.1299C34.8985 9.03298 34.8459 8.80391 34.7319 8.44269C34.6179 8.08147 34.5039 7.75549 34.3898 7.46475C34.2846 7.20044 34.1881 6.98899 34.0916 6.8304C33.9952 6.67182 33.9162 6.5749 33.8636 6.53966C33.811 6.50442 33.7496 6.49561 33.6882 6.52204C33.6356 6.53966 33.6005 6.5749 33.5742 6.62777C33.5479 6.68063 33.5479 6.75992 33.5566 6.86564C33.5742 6.97137 33.6268 7.17401 33.7233 7.45594C33.8197 7.74668 33.925 8.04623 34.039 8.34578C34.1881 8.72462 34.3197 8.98893 34.4337 9.1299C34.5477 9.27086 34.6442 9.35015 34.7494 9.31491Z" fill="white"/>
<path d="M36.8632 7.08587L37.214 8.20478C37.2403 8.27527 37.2754 8.31932 37.3456 8.34575C37.3894 8.35456 37.4157 8.38099 37.4245 8.40742L37.4508 8.50434C37.4596 8.53958 37.4508 8.5572 37.4157 8.56601L36.7755 8.76865C36.7492 8.77746 36.7229 8.76865 36.7141 8.74221L36.6878 8.6453C36.679 8.61887 36.6878 8.58363 36.7141 8.54839C36.7579 8.49553 36.7667 8.43385 36.7404 8.36337L35.9773 5.9141C35.951 5.84362 35.9159 5.79957 35.8458 5.78195C35.8019 5.77314 35.7756 5.7467 35.7668 5.71146L35.7405 5.62336C35.7318 5.58812 35.7405 5.5705 35.7756 5.56169L36.3106 5.39429C36.6176 5.29738 36.872 5.29738 37.0737 5.38548C37.2754 5.47358 37.4157 5.64979 37.5034 5.90529C37.635 6.31938 37.5298 6.64536 37.1789 6.89205C37.3105 6.90967 37.4157 6.94491 37.4947 6.99777C37.5736 7.05063 37.6525 7.13874 37.7227 7.26208L38.0735 7.86999C38.1174 7.94929 38.1525 8.00215 38.1876 8.01977C38.2139 8.0462 38.2577 8.06382 38.3016 8.07263C38.3191 8.07263 38.3279 8.09025 38.3367 8.10787L38.3717 8.22241C38.3805 8.24884 38.3717 8.27527 38.3367 8.28408L37.9244 8.41623C37.8806 8.42504 37.8543 8.41623 37.828 8.37218L37.1877 7.32375C37.1175 7.20922 37.0561 7.13874 37.0123 7.1123C36.9684 7.07706 36.9158 7.06825 36.8632 7.08587ZM36.4071 5.62336L36.7842 6.83918C36.9333 6.79513 37.0298 6.70703 37.0649 6.59249C37.1088 6.47796 37.0912 6.30175 37.0123 6.05507C36.9421 5.81719 36.8544 5.67622 36.7579 5.62336C36.6702 5.58812 36.5562 5.57931 36.4071 5.62336Z" fill="white"/>
<path d="M42.6168 7.28847L41.1696 7.56158C41.1345 7.57039 41.117 7.55277 41.1082 7.51753L41.0907 7.42062C41.0819 7.39419 41.0994 7.35014 41.1433 7.30609C41.1784 7.26203 41.1872 7.20917 41.1784 7.13869L40.696 4.63656C40.6785 4.56608 40.6434 4.51322 40.582 4.48678C40.5381 4.46916 40.5206 4.44273 40.5118 4.40749L40.4943 4.30177C40.4855 4.27534 40.503 4.25772 40.5381 4.24891L41.6257 4.03746C41.6432 4.03746 41.6783 4.02865 41.7397 4.01103C41.7923 3.99341 41.8186 3.99341 41.8274 3.9846C41.8713 3.97579 41.8976 3.9846 41.9064 4.01103L42.0291 4.63656C42.0379 4.6718 42.0379 4.68942 42.0291 4.69823C42.0204 4.70704 42.0028 4.71585 41.9765 4.71585L41.8976 4.73347C41.8625 4.74228 41.845 4.72466 41.8274 4.68061C41.7923 4.57489 41.7485 4.48678 41.6871 4.4163C41.6345 4.34582 41.5468 4.31939 41.424 4.34582L41.1608 4.39868L41.3889 5.60569L41.4854 5.58807C41.5468 5.57926 41.5818 5.55283 41.5994 5.5264C41.6169 5.49997 41.6345 5.42068 41.6432 5.28852C41.6432 5.24447 41.652 5.22685 41.652 5.21804C41.652 5.20923 41.6695 5.20923 41.6871 5.20042L41.7836 5.1828C41.8186 5.17399 41.845 5.19161 41.845 5.22685L41.9941 6.02859C42.0028 6.06383 41.9853 6.08145 41.9502 6.09026L41.8537 6.10788C41.8362 6.10788 41.8186 6.10788 41.8099 6.09907C41.8011 6.09026 41.7836 6.05502 41.7573 6.01097C41.7134 5.91406 41.6695 5.86119 41.6432 5.84357C41.6081 5.82595 41.5643 5.82595 41.5117 5.83476L41.424 5.85238L41.6783 7.20036L41.9677 7.1475C42.073 7.12988 42.1432 7.08583 42.1695 7.03297C42.2046 6.97129 42.2221 6.83033 42.2396 6.59245C42.2484 6.53959 42.2659 6.50435 42.301 6.50435L42.3887 6.48673C42.4238 6.47792 42.4414 6.49554 42.4501 6.53078L42.6168 7.28847Z" fill="white"/>
<path d="M46.125 6.90963C45.6777 6.76867 45.4234 6.21362 45.3708 5.2621C45.3444 4.70705 45.3883 4.27534 45.5199 3.96698C45.6514 3.64981 45.8531 3.49123 46.1338 3.47361C46.4145 3.45599 46.6425 3.59695 46.8092 3.8965C46.9758 4.19605 47.0723 4.61014 47.1074 5.14757C47.1249 5.43831 47.1161 5.69381 47.0898 5.91406C47.0635 6.13432 47.0197 6.31053 46.9583 6.45149C46.8969 6.59246 46.8267 6.69818 46.7478 6.76867C46.6688 6.83915 46.5723 6.89201 46.4583 6.92725C46.5899 6.96249 46.7214 7.01535 46.8442 7.09465C46.9319 7.14751 47.0109 7.17394 47.0723 7.16513C47.0811 7.16513 47.1074 7.16513 47.1337 7.15632C47.1512 7.15632 47.16 7.15632 47.16 7.15632C47.1775 7.15632 47.1863 7.16513 47.1863 7.18275L47.1951 7.27966C47.1951 7.31491 47.1688 7.35896 47.0986 7.3942C47.0372 7.43825 46.9583 7.45587 46.8793 7.46468C46.739 7.47349 46.5987 7.3942 46.4496 7.23561C46.2917 7.05941 46.1864 6.95368 46.125 6.90963ZM46.318 6.68937C46.3794 6.68937 46.4408 6.63651 46.4846 6.55722C46.5373 6.46911 46.5636 6.24005 46.5636 5.8612C46.5636 5.48236 46.5548 5.13876 46.5373 4.83039C46.5197 4.54846 46.4934 4.3194 46.4496 4.13438C46.4057 3.95817 46.3618 3.83483 46.318 3.79078C46.2741 3.73792 46.2215 3.72029 46.1601 3.72029C46.1075 3.72029 46.0636 3.74673 46.0198 3.79078C45.9759 3.83483 45.9496 3.90531 45.9321 4.01104C45.9145 4.11676 45.9058 4.3194 45.9058 4.62776C45.9058 4.93612 45.9145 5.25329 45.9321 5.57927C45.9584 5.98455 45.9935 6.27529 46.0636 6.45149C46.125 6.61008 46.2127 6.69818 46.318 6.68937Z" fill="white"/>
<path d="M49.9403 6.09039C49.9315 6.34589 49.8614 6.54852 49.721 6.68949C49.5807 6.83045 49.4141 6.90094 49.2036 6.89213C48.9931 6.88332 48.8177 6.80402 48.6949 6.65425C48.5633 6.50447 48.5019 6.31065 48.5107 6.08158L48.5896 3.85257C48.5896 3.78208 48.5633 3.72041 48.5107 3.68517C48.4756 3.65874 48.4581 3.6235 48.4581 3.59707V3.50015C48.4581 3.46491 48.4756 3.44729 48.5195 3.4561L49.1948 3.48253C49.2299 3.48253 49.2387 3.50015 49.2387 3.52659V3.6235C49.2387 3.65874 49.2211 3.68517 49.1773 3.7116C49.1246 3.74684 49.0896 3.7997 49.0896 3.879L49.0106 6.12563C49.0019 6.42518 49.0896 6.57495 49.2913 6.58376C49.5106 6.59258 49.6246 6.41637 49.6333 6.06396L49.7123 3.88781C49.7123 3.81733 49.686 3.75565 49.6333 3.72041C49.5983 3.69398 49.5807 3.65874 49.5807 3.63231V3.5354C49.5807 3.50015 49.5983 3.48253 49.6421 3.49134L50.1245 3.50896C50.1596 3.50896 50.1684 3.52658 50.1684 3.55302V3.64993C50.1684 3.68517 50.1508 3.7116 50.107 3.73803C50.0543 3.77327 50.0192 3.82614 50.0192 3.90543L49.9403 6.09039Z" fill="white"/>
<path d="M52.0365 4.11666V3.96688C52.0365 3.92283 52.0365 3.88759 52.0365 3.88759C52.0365 3.86997 52.0541 3.86116 52.0716 3.85235L52.4575 3.729C52.4663 3.729 52.4663 3.729 52.4751 3.729C52.4926 3.729 52.5101 3.74662 52.5101 3.77306L52.7206 6.75975C52.7206 6.81262 52.7294 6.85667 52.747 6.87429C52.7557 6.90072 52.782 6.92715 52.8259 6.96239C52.8522 6.98882 52.8697 7.01525 52.8697 7.04168L52.861 7.1386C52.861 7.17384 52.8434 7.19146 52.8171 7.18265L52.1067 7.09455C52.0716 7.08574 52.0541 7.06812 52.0541 7.03287L52.0628 6.93596C52.0628 6.90072 52.0891 6.87429 52.1418 6.85667C52.2032 6.83024 52.2382 6.795 52.2382 6.74213C52.2382 6.72451 52.2382 6.70689 52.2382 6.68927L52.2032 6.23114L51.6418 6.16065L51.5015 6.58355C51.4927 6.60117 51.4927 6.61879 51.4927 6.6276C51.484 6.67165 51.5103 6.72451 51.5717 6.77737C51.6068 6.82143 51.6243 6.84786 51.6243 6.87429L51.6155 6.9712C51.6155 7.00644 51.5892 7.02406 51.5454 7.01525L51.0981 6.96239C51.0454 6.95358 51.0279 6.93596 51.0279 6.90072L51.0454 6.78619C51.0454 6.75975 51.0717 6.73332 51.0981 6.7157C51.1595 6.68927 51.2033 6.6276 51.2384 6.54831L52.0365 4.11666ZM52.0979 4.83029L51.7383 5.90515L52.1856 5.95802L52.0979 4.83029Z" fill="white"/>
<path d="M54.0976 7.01541L54.6502 4.51327C54.6677 4.44279 54.6502 4.38112 54.6063 4.32825C54.5713 4.29301 54.5625 4.26658 54.5713 4.23134L54.5888 4.13443C54.5976 4.09919 54.6151 4.09038 54.6502 4.09919L55.308 4.24896C55.3431 4.25777 55.3518 4.27539 55.3431 4.30182L55.3255 4.39874C55.3168 4.43398 55.2905 4.46041 55.2554 4.46922C55.194 4.49565 55.1589 4.5397 55.1414 4.61019L54.5625 7.25328L54.7379 7.29734C54.8431 7.32377 54.9309 7.30615 55.001 7.25328C55.0712 7.20042 55.1414 7.0947 55.2027 6.94492C55.2291 6.88325 55.2466 6.85682 55.2466 6.84801C55.2554 6.8392 55.2641 6.8392 55.2905 6.8392L55.3869 6.85682C55.422 6.86563 55.4396 6.88325 55.4308 6.91849L55.2641 7.67618L53.9222 7.37663C53.8784 7.36782 53.8608 7.34139 53.8696 7.29734L53.8871 7.21804C53.8959 7.1828 53.9222 7.16518 53.9661 7.14756C54.0362 7.13875 54.0801 7.08589 54.0976 7.01541Z" fill="white"/>
<path d="M57.027 7.77308C57.0094 7.84356 57.0182 7.90524 57.0533 7.9581C57.0796 7.99334 57.0884 8.02858 57.0796 8.05501L57.0533 8.15193C57.0445 8.18717 57.0182 8.19598 56.9831 8.18717L56.3429 7.99334C56.3166 7.98453 56.299 7.96691 56.3078 7.93167L56.3341 7.83475C56.3429 7.80832 56.3692 7.78189 56.413 7.76427C56.4744 7.74665 56.5183 7.69379 56.5358 7.62331L57.2726 5.16523C57.2901 5.09474 57.2813 5.03307 57.2463 4.98021C57.2199 4.94497 57.2112 4.90973 57.2199 4.8833L57.2463 4.79519C57.255 4.75995 57.2813 4.75114 57.3164 4.75995L57.9567 4.95378C57.983 4.96259 58.0005 4.98021 57.9918 5.01545L57.9654 5.11237C57.9567 5.14761 57.9304 5.16523 57.8865 5.18285C57.8251 5.20047 57.7813 5.25333 57.7637 5.315L57.027 7.77308Z" fill="white"/>
<path d="M59.2636 5.53539L59.3074 5.42967C59.3162 5.41205 59.3337 5.40324 59.3688 5.42086L59.895 5.6235C60.1932 5.73803 60.395 5.95829 60.5002 6.27546C60.6055 6.59263 60.5528 7.02434 60.3423 7.57058C60.2371 7.85251 60.0968 8.10801 59.9389 8.33707C59.781 8.56614 59.6056 8.72473 59.4127 8.81283C59.2197 8.90093 58.9741 8.8745 58.6496 8.75116L58.1321 8.54852C58.1058 8.53971 58.0971 8.52209 58.1058 8.49566L58.1497 8.38994C58.1585 8.3635 58.1848 8.33707 58.2286 8.32826C58.29 8.31064 58.3339 8.26659 58.3602 8.19611L59.2899 5.80851C59.3162 5.73803 59.3162 5.68517 59.2811 5.63231C59.2636 5.60588 59.2548 5.57063 59.2636 5.53539ZM59.8161 5.879L58.7812 8.53971C58.9127 8.59257 59.0355 8.60138 59.132 8.56614C59.2285 8.5309 59.3425 8.40756 59.4565 8.20492C59.5705 8.00228 59.6933 7.75559 59.7986 7.47366C59.9214 7.1653 60.0003 6.91861 60.0441 6.7336C60.088 6.54858 60.1055 6.3988 60.1055 6.29308C60.1055 6.18736 60.0792 6.10806 60.0354 6.04639C59.9915 5.98472 59.9214 5.92305 59.8161 5.879Z" fill="white"/>
<path d="M62.5263 7.24447L62.5701 7.10351C62.5877 7.05945 62.5965 7.03302 62.5965 7.02421C62.6052 7.0154 62.614 7.00659 62.6403 7.00659L63.0438 7.0154C63.0525 7.0154 63.0525 7.0154 63.0613 7.02421C63.0788 7.03302 63.0876 7.05064 63.0788 7.07707L62.2982 9.96686C62.2807 10.0197 62.2807 10.055 62.2807 10.0902C62.2807 10.1166 62.2982 10.1519 62.3246 10.1959C62.3421 10.2312 62.3509 10.2576 62.3421 10.284L62.2982 10.3721C62.2807 10.4074 62.2632 10.4162 62.2368 10.3986L61.5878 10.0726C61.5527 10.055 61.544 10.0285 61.5615 10.0021L61.6054 9.914C61.6229 9.88757 61.6492 9.86995 61.7018 9.86995C61.7632 9.86995 61.8071 9.84351 61.8334 9.79946C61.8422 9.79065 61.8422 9.77303 61.8509 9.75541L61.9737 9.30609L61.465 9.05059L61.1931 9.403C61.1844 9.42062 61.1756 9.42943 61.1668 9.43824C61.1493 9.47348 61.158 9.53515 61.1931 9.60564C61.2107 9.6585 61.2194 9.69374 61.2107 9.71136L61.1668 9.79946C61.1493 9.8347 61.123 9.8347 61.0879 9.81708L60.6844 9.61445C60.6406 9.58802 60.623 9.56158 60.6406 9.53515L60.6932 9.43824C60.7107 9.41181 60.7283 9.39419 60.7721 9.39419C60.8423 9.38538 60.9037 9.35014 60.9563 9.27965L62.5263 7.24447ZM62.3509 7.93168L61.6492 8.83033L62.0527 9.03297L62.3509 7.93168Z" fill="white"/>
<path d="M64.8856 8.18706L64.9469 8.09015C64.9557 8.07253 64.982 8.07253 65.0083 8.09015L65.482 8.3897C65.7538 8.5571 65.9117 8.80379 65.9643 9.13858C66.017 9.47337 65.8854 9.88746 65.5872 10.3808C65.4293 10.6363 65.2539 10.8654 65.0522 11.0592C64.8505 11.2619 64.6575 11.3852 64.4558 11.4293C64.2541 11.4821 64.0085 11.4116 63.7191 11.2354L63.2454 10.9447C63.2191 10.9271 63.2191 10.9095 63.2279 10.8918L63.2893 10.7949C63.3068 10.7685 63.3331 10.7509 63.377 10.7509C63.4472 10.7421 63.4998 10.7068 63.5349 10.6451L64.8768 8.46018C64.9119 8.39851 64.9206 8.33684 64.9031 8.28398C64.868 8.24874 64.868 8.21349 64.8856 8.18706ZM65.3679 8.60996L63.8769 11.0416C63.9997 11.1209 64.1137 11.1473 64.219 11.1297C64.3242 11.1121 64.447 11.0152 64.6049 10.8302C64.754 10.654 64.9119 10.4337 65.0697 10.1694C65.2452 9.88746 65.3679 9.65839 65.4381 9.48218C65.517 9.30597 65.5609 9.16501 65.5784 9.05929C65.596 8.95356 65.5872 8.86546 65.5609 8.80379C65.5258 8.75092 65.4644 8.68044 65.3679 8.60996Z" fill="white"/>
<path d="M66.8765 13.4028L65.6837 12.5306C65.6573 12.513 65.6486 12.4866 65.6749 12.4601L65.7275 12.3808C65.7451 12.3544 65.7801 12.3456 65.8415 12.3456C65.8942 12.3456 65.938 12.3103 65.9819 12.2575L67.4904 10.1871C67.5343 10.1254 67.543 10.0637 67.5255 10.002C67.508 9.95799 67.5167 9.92275 67.5343 9.89632L67.5957 9.80821C67.6132 9.78178 67.6308 9.78178 67.6658 9.80821L68.5605 10.469C68.578 10.4778 68.6131 10.5042 68.6569 10.5307C68.7008 10.5571 68.7271 10.5747 68.7359 10.5835C68.7709 10.61 68.7885 10.6364 68.7709 10.654L68.3938 11.165C68.3763 11.1914 68.3587 11.2091 68.35 11.2091C68.3412 11.2091 68.3236 11.2002 68.2973 11.1826L68.2359 11.1386C68.2096 11.121 68.2009 11.0945 68.2272 11.0593C68.2798 10.9624 68.3149 10.8655 68.3324 10.7773C68.3499 10.6892 68.3061 10.61 68.2008 10.5307L67.9816 10.3721L67.2624 11.3588L67.3413 11.4205C67.3939 11.4557 67.429 11.4734 67.4641 11.4646C67.4992 11.4557 67.5606 11.4117 67.6658 11.3324C67.7009 11.306 67.7185 11.2972 67.7272 11.2883C67.736 11.2883 67.7448 11.2972 67.7623 11.306L67.8413 11.3588C67.8676 11.3853 67.8763 11.4029 67.8588 11.4381L67.3764 12.0989C67.3589 12.1253 67.3326 12.1341 67.3062 12.1077L67.2273 12.046C67.2098 12.0372 67.201 12.0196 67.201 12.002C67.201 11.9844 67.2098 11.9579 67.2361 11.8963C67.2712 11.7993 67.2887 11.7289 67.2799 11.6936C67.2712 11.6584 67.2448 11.6231 67.201 11.5967L67.1308 11.5438L66.3239 12.6539L66.5607 12.8302C66.6484 12.8918 66.7274 12.9183 66.7888 12.9006C66.8502 12.883 66.9729 12.8037 67.1659 12.6539C67.2098 12.6187 67.2448 12.6187 67.2712 12.6363L67.3501 12.6892C67.3764 12.7068 67.3852 12.7332 67.3589 12.7685L66.8765 13.4028Z" fill="white"/>
</g>
<defs>
<clipPath id="clip0">
<rect width="93.6622" height="56.5623" fill="white" transform="translate(0 0.196289)"/>
</clipPath>
</defs>
</svg>
