<svg width="165" height="100" viewBox="0 0 165 100" fill="none" xmlns="http://www.w3.org/2000/svg">
<path d="M27.2863 38.0412C27.2863 42.0766 27.2863 48.0365 27.2863 48.8436C19.9007 48.8436 19.8235 41.6731 19.8235 41.6731V39.0966C19.8235 37.9636 18.8655 36.9237 17.6604 36.9237H11.8817C10.6766 36.9237 9.71861 37.9791 9.71861 39.0966V60.779C9.71861 61.9897 10.6766 62.9519 11.8817 63.0295H12.438C13.5659 62.9519 14.5238 61.9741 14.5238 60.779V60.7014C14.5238 60.7014 14.6011 56.5108 19.4218 56.5108C19.4218 56.992 19.4218 60.4531 19.4218 63.0451C19.4218 63.2934 19.4218 63.6038 19.4218 63.8521C19.4218 65.0628 19.4218 65.8698 19.4218 65.8698V66.7545C19.4218 69.3309 19.4218 72.7145 19.4218 73.1956C14.6011 73.1956 14.5238 69.0826 14.5238 69.0826V69.005C14.5238 67.7944 13.5659 66.8321 12.438 66.7545H11.8817C10.6766 66.8321 9.71861 67.8099 9.71861 69.005V90.9358C9.71861 94.7228 11.48 93.9933 11.48 95.8558H7.30827C6.58208 95.8558 6.02585 95.2971 6.02585 94.5676C6.02585 95.2971 5.37691 95.8558 4.74342 95.8558H0.478977C0.478977 94.0089 2.16312 94.7228 2.24038 91.1065V68.6791C2.08587 67.1425 1.28242 65.7767 0 65.0472C0.648937 64.7213 1.43693 64.4885 2.24038 64.4885V37.886C2.16312 34.2542 0.478977 34.9836 0.478977 33.1212H4.72797C5.37691 33.1212 6.0104 33.773 6.0104 34.487C6.0104 33.7575 6.56663 33.1212 7.29282 33.1212H29.0477C29.0477 35.0612 27.2863 34.2542 27.2863 38.0412ZM6.58208 64.4885C6.58208 63.0451 6.58208 61.5861 6.58208 60.1427C6.58208 59.4132 6.50482 58.7769 6.50482 58.0474C6.50482 57.3179 6.50482 56.6816 6.50482 55.9521C6.42757 53.2981 6.42757 50.7061 6.35031 48.5332C6.27306 47.4778 6.27306 46.4379 6.19581 45.5532C6.19581 44.6686 6.11855 43.9391 6.11855 43.3027C6.11855 42.6664 6.0413 42.1697 6.0413 41.8593C6.0413 41.4558 6.0413 41.3006 6.0413 41.3006C6.0413 41.3006 5.96404 41.4558 5.96404 41.8593C5.96404 42.1852 5.88679 42.6664 5.88679 43.3027C5.88679 43.9391 5.80953 44.6686 5.80953 45.5532C5.73228 46.4379 5.73228 47.4933 5.65502 48.5332C5.57777 50.7061 5.57777 53.2825 5.50051 55.9521C5.50051 56.6816 5.50051 57.3179 5.50051 58.0474C5.50051 58.7769 5.50051 59.4132 5.42326 60.1427C5.42326 61.5861 5.42326 63.0451 5.42326 64.4885C5.42326 65.9319 5.42326 67.3909 5.42326 68.8343C5.42326 69.1602 5.50051 69.5638 5.50051 69.8897C5.50051 70.2156 5.50051 70.6192 5.50051 70.9451C5.50051 71.6746 5.50051 72.3109 5.50051 73.0404C5.50051 74.4062 5.57777 75.6944 5.57777 76.905C5.57777 78.1933 5.65502 79.3263 5.65502 80.4438C5.73228 81.0025 5.73228 81.4992 5.73228 81.9803C5.73228 82.4615 5.80953 82.9426 5.80953 83.4237C5.80953 84.3084 5.88679 85.0379 5.88679 85.6742C5.88679 86.3261 5.96404 86.8072 5.96404 87.1177C5.96404 87.5212 6.0413 87.6764 6.0413 87.6764C6.0413 87.6764 6.0413 87.5212 6.0413 87.1177C6.0413 86.7917 6.11855 86.3106 6.11855 85.6742C6.11855 85.0224 6.19581 84.3084 6.19581 83.4237C6.27306 82.9426 6.27306 82.4615 6.27306 81.9803C6.27306 81.4992 6.35031 81.018 6.35031 80.4438C6.35031 79.3108 6.42757 78.1933 6.42757 76.905C6.42757 75.6944 6.50482 74.4062 6.50482 73.0404C6.50482 72.3109 6.50482 71.6746 6.50482 70.9451C6.50482 70.6192 6.50482 70.2156 6.58208 69.8897C6.58208 69.5638 6.58208 69.1602 6.58208 68.8343C6.58208 67.3909 6.58208 65.9319 6.58208 64.4885Z" fill="#37210C"/>
<path d="M51.7141 66.1492H38.9362C38.5654 66.1492 38.1792 65.7767 38.1792 65.3887C38.1792 65.7612 37.8547 66.1492 37.4221 66.1492H34.9808C34.9808 65.0627 35.9697 65.4818 36.016 63.371V51.8701C35.9233 50.9699 35.4598 50.1784 34.7027 49.7438C35.0735 49.511 35.5525 49.4179 36.016 49.4179V35.9304C35.9697 33.8041 34.9808 34.2386 34.9808 33.1522H37.4684C37.8392 33.1522 38.2255 33.4781 38.2255 33.9127C38.2255 33.4936 38.55 33.1522 38.9826 33.1522H51.6987C51.6987 34.2386 50.6635 33.8196 50.6635 36.0235C50.6635 38.3361 50.6635 41.8283 50.6635 42.2939C46.3527 42.2939 46.2909 38.1033 46.2909 38.1033V36.6288C46.2909 35.9149 45.7346 35.3561 45.0239 35.3096H41.6402C40.9294 35.3561 40.3732 35.9149 40.3732 36.6288V47.245C40.3732 47.9589 40.9294 48.5177 41.6402 48.5177H41.9646C42.629 48.5177 43.1852 47.9589 43.1852 47.245V47.1829C43.1852 47.1829 43.2316 44.7306 46.0437 44.7306C46.0437 45.01 46.0437 47.0432 46.0437 48.5022C46.0437 48.6884 46.0437 48.8746 46.0437 49.0143C46.0437 49.7283 46.0437 50.1939 46.0437 50.1939V50.7061C46.0437 52.2116 46.0437 54.1983 46.0437 54.4776C43.2316 54.4776 43.1852 52.0254 43.1852 52.0254C43.1852 51.3114 42.629 50.7527 41.9646 50.7061H41.6402C40.9294 50.7527 40.3732 51.3114 40.3732 52.0254V62.6415C40.3732 63.3555 40.9294 63.9142 41.6402 63.9142H45.0239C45.7346 63.9142 46.2909 63.3555 46.2909 62.6415V61.1515C46.2909 61.1515 46.3372 56.9609 50.6635 56.9609C50.6635 57.4266 50.6635 60.9187 50.6635 63.2779C50.6789 65.4818 51.7141 65.0627 51.7141 66.1492ZM38.5654 49.6352C38.5654 48.8747 38.5654 48.1762 38.5654 47.4157C38.5654 47.0898 38.5191 46.7018 38.5191 46.3293C38.5191 46.0033 38.5191 45.6153 38.5191 45.2894C38.4727 43.9235 38.4727 42.6509 38.4264 41.5178C38.38 41.0057 38.38 40.478 38.3337 40.0589C38.3337 39.5933 38.2873 39.2053 38.2873 38.8793C38.2873 38.5534 38.241 38.3206 38.241 38.1188C38.241 37.9326 38.241 37.886 38.241 37.886C38.241 37.886 38.1946 37.9326 38.1946 38.1188C38.1946 38.3051 38.1483 38.5379 38.1483 38.8793C38.1483 39.2053 38.1019 39.5933 38.1019 40.0589C38.0555 40.478 38.0555 41.0057 38.0092 41.5178C37.9628 42.6509 37.9628 43.9235 37.9165 45.2894C37.9165 45.6153 37.9165 46.0033 37.9165 46.3293C37.9165 46.7018 37.8701 47.0898 37.8701 47.4157C37.8701 48.1762 37.8701 48.8747 37.8701 49.6352C37.8701 50.3491 37.8701 51.0941 37.8701 51.8081C37.8701 51.9943 37.8701 52.1806 37.9165 52.3668C37.9165 52.5065 37.9165 52.6927 37.9165 52.879C37.9165 53.2049 37.9165 53.5929 37.9165 53.9189C37.9165 54.6328 37.9628 55.2847 37.9628 55.9055C37.9628 56.5729 38.0092 57.1317 38.0092 57.6904C38.0555 58.2492 38.0555 58.7303 38.1019 59.1959C38.1019 59.615 38.1483 60.0496 38.1483 60.3289C38.1483 60.6549 38.1946 60.9342 38.1946 61.0894C38.1946 61.2757 38.241 61.3688 38.241 61.3688C38.241 61.3688 38.241 61.2757 38.241 61.0894C38.241 60.9498 38.2873 60.6704 38.2873 60.3289C38.2873 60.0496 38.3337 59.615 38.3337 59.1959C38.38 58.7303 38.38 58.2492 38.4264 57.6904C38.4264 57.1317 38.4727 56.5574 38.4727 55.9055C38.4727 55.3002 38.5191 54.6328 38.5191 53.9189C38.5191 53.5929 38.5191 53.2049 38.5191 52.879C38.5191 52.6927 38.5191 52.5065 38.5654 52.3668C38.5654 52.1806 38.5654 51.9943 38.5654 51.8081C38.5654 51.0941 38.5654 50.3491 38.5654 49.6352Z" fill="#37210C"/>
<path d="M61.7418 66.1492H59.2542C58.8834 66.1492 58.4971 65.7767 58.4971 65.3887C58.4971 65.7612 58.1726 66.1492 57.74 66.1492H55.3142C55.3142 65.0628 56.3031 65.4818 56.3494 63.371V51.8702C56.2567 50.97 55.7932 50.1784 55.0361 49.7438C55.4069 49.511 55.8859 49.4179 56.3494 49.4179V35.9304C56.3031 33.8041 55.3142 34.2387 55.3142 33.1522H57.8018C58.1726 33.1522 58.5589 33.4781 58.5589 33.9127C58.5589 33.4937 58.8834 33.1522 59.316 33.1522H61.7572C61.7572 34.2387 60.722 33.8196 60.722 36.0235V49.4179C61.1855 49.4179 61.6645 49.511 62.0353 49.7438C61.2782 50.1629 60.8147 50.97 60.722 51.8702V63.2779C60.7066 65.4818 61.7418 65.0628 61.7418 66.1492ZM58.8679 49.6352C58.8679 48.8747 58.8679 48.1762 58.8216 47.4157C58.8216 47.0898 58.8216 46.7018 58.8216 46.3293C58.8216 46.0033 58.8216 45.6153 58.8216 45.2894C58.7752 43.9236 58.7288 42.6509 58.6825 41.5179C58.6825 41.0057 58.6825 40.478 58.6361 40.0589C58.6361 39.5933 58.5898 39.2053 58.5898 38.8793C58.5434 38.5534 58.5434 38.3206 58.5434 38.1188C58.4971 37.9326 58.4971 37.886 58.4971 37.886C58.4971 37.886 58.4971 37.9326 58.4971 38.1188C58.4971 38.3051 58.4507 38.5379 58.4507 38.8793C58.4044 39.2053 58.4044 39.5933 58.358 40.0589C58.358 40.478 58.358 41.0057 58.3117 41.5179C58.2653 42.6509 58.219 43.9236 58.219 45.2894C58.219 45.6153 58.219 46.0033 58.1726 46.3293C58.1726 46.7018 58.1726 47.0898 58.1726 47.4157C58.1726 48.1762 58.1726 48.8747 58.1726 49.6352C58.1726 50.3491 58.1726 51.0941 58.1726 51.8081C58.1726 51.9943 58.1726 52.1806 58.1726 52.3668C58.1726 52.5065 58.1726 52.6928 58.1726 52.879C58.219 53.2049 58.219 53.593 58.219 53.9189C58.219 54.6328 58.219 55.2847 58.2653 55.9055C58.2653 56.5729 58.3117 57.1317 58.3117 57.6904C58.3117 58.2492 58.358 58.7303 58.358 59.1959C58.4044 59.615 58.4044 60.0496 58.4507 60.3289C58.4507 60.6549 58.4971 60.9343 58.4971 61.0895C58.4971 61.2757 58.4971 61.3688 58.4971 61.3688C58.4971 61.3688 58.4971 61.2757 58.5434 61.0895C58.5434 60.9498 58.5434 60.6704 58.5898 60.3289C58.5898 60.0496 58.6361 59.615 58.6361 59.1959C58.6825 58.7303 58.6825 58.2492 58.7288 57.6904C58.7288 57.1317 58.7288 56.5574 58.7752 55.9055C58.7752 55.3002 58.7752 54.6328 58.8216 53.9189C58.8216 53.593 58.8216 53.2049 58.8216 52.879C58.8216 52.6928 58.8216 52.5065 58.8216 52.3668C58.8216 52.1806 58.8216 51.9943 58.8216 51.8081C58.8679 51.0941 58.8679 50.3491 58.8679 49.6352Z" fill="#37210C"/>
<path d="M73.3299 47.0898C72.7119 47.4002 72.2947 48.0055 72.2484 48.6729V60.7014C72.1711 63.6969 69.5136 66.0561 66.238 66.0561C60.4903 66.0561 61.031 61.0119 64.353 61.0119C65.5118 61.0119 66.4388 61.8655 66.4388 62.9209C66.4388 63.7745 65.8208 64.504 64.971 64.7523C66.3152 65.249 67.5976 64.2867 68.0921 63.4796C68.6329 62.595 68.6329 61.3223 68.6329 60.5462V48.6729C68.5865 48.0055 68.1693 47.4002 67.5976 47.0898C67.9067 46.9501 68.2466 46.8415 68.6329 46.8415V35.2785C68.6329 33.6178 67.8294 33.9748 67.8294 33.1212H69.838C70.1779 33.1212 70.4561 33.4005 70.4561 33.7265C70.4561 33.4161 70.7187 33.1212 71.0741 33.1212H73.1136C73.1136 33.9748 72.2638 33.6178 72.2638 35.2785V46.8415C72.6346 46.8415 73.0209 46.9501 73.3299 47.0898ZM70.7033 48.0676C70.7033 47.3692 70.7033 46.6863 70.7033 46.0189C70.7033 45.6619 70.7033 45.3204 70.7033 44.9945C70.7033 44.6841 70.7033 44.3271 70.7033 44.0012C70.6724 42.7285 70.626 41.5334 70.5951 40.478C70.5951 39.9813 70.5642 39.4847 70.5642 39.0656C70.5642 38.6776 70.5333 38.2896 70.5333 38.0102C70.5024 37.6998 70.5024 37.4825 70.5024 37.3118C70.4561 37.141 70.4561 37.0634 70.4561 37.0634C70.4561 37.0634 70.4561 37.141 70.4561 37.3118C70.4561 37.4825 70.4252 37.6998 70.4252 38.0102C70.3943 38.2896 70.3943 38.6776 70.3479 39.0656C70.3479 39.4847 70.317 39.9813 70.317 40.478C70.2706 41.5334 70.2397 42.7285 70.2397 44.0012C70.2397 44.3116 70.2088 44.6686 70.2088 44.9945C70.2088 45.3049 70.2088 45.6619 70.2088 46.0189C70.2088 46.6863 70.2088 47.3537 70.2088 48.0676C70.2088 48.735 70.2088 49.4489 70.2088 50.1163C70.2088 50.2871 70.2088 50.4267 70.2088 50.613C70.2088 50.7837 70.2088 50.97 70.2088 51.1097C70.2088 51.4666 70.2397 51.777 70.2397 52.103C70.2397 52.7393 70.2397 53.3757 70.2706 53.9655C70.2706 54.5708 70.317 55.0985 70.317 55.6262C70.317 55.8745 70.317 56.1228 70.3479 56.3712C70.3479 56.6195 70.3479 56.8368 70.3479 57.0386C70.3788 57.4576 70.3788 57.8146 70.4252 58.125C70.4252 58.4044 70.4561 58.6527 70.4561 58.7924C70.4561 58.9631 70.4561 59.0407 70.4561 59.0407C70.4561 59.0407 70.4561 58.9631 70.5024 58.7924C70.5024 58.6527 70.5024 58.4044 70.5333 58.125C70.5333 57.8146 70.5642 57.4576 70.5642 57.0386C70.5642 56.8213 70.5642 56.6195 70.5951 56.3712C70.5951 56.1228 70.5951 55.8745 70.5951 55.6262C70.626 55.0985 70.626 54.5708 70.6724 53.9655C70.6724 53.3602 70.6724 52.7393 70.7033 52.103C70.7033 51.7926 70.7033 51.4666 70.7033 51.1097C70.7033 50.97 70.7033 50.7992 70.7033 50.613C70.7033 50.4423 70.7033 50.3026 70.7033 50.1163C70.7033 49.4489 70.7033 48.7505 70.7033 48.0676Z" fill="#37210C"/>
<path d="M92.0718 49.7283C91.3611 50.1474 90.8512 50.9545 90.7585 51.8547V58.9787C90.6658 62.9364 87.4211 66.1492 83.4348 66.1492C79.4485 66.1492 76.2038 62.9364 76.1111 58.9787V51.8547C76.0184 50.9545 75.5548 50.1629 74.7977 49.7283C75.1686 49.4955 75.6475 49.4024 76.1111 49.4024V40.3073C76.2038 36.3495 79.4485 33.1367 83.4348 33.1367C87.4211 33.1367 90.6658 36.3495 90.7585 40.3073V49.4024C91.222 49.4024 91.701 49.4955 92.0718 49.7283ZM78.645 49.5886C78.645 48.9833 78.645 48.3159 78.645 47.6951C78.645 47.4157 78.5987 47.0898 78.5987 46.7949C78.5987 46.5 78.5987 46.1896 78.5987 45.8947C78.5523 44.7151 78.5523 43.6287 78.506 42.6819C78.4596 42.2629 78.4596 41.7817 78.4132 41.4092C78.4132 41.0367 78.3669 40.6953 78.3669 40.4625C78.3669 40.1831 78.3205 39.9503 78.3205 39.7951C78.3205 39.6554 78.3205 39.5623 78.3205 39.5623C78.3205 39.5623 78.2742 39.6554 78.2742 39.7951C78.2742 39.9348 78.2278 40.1676 78.2278 40.4625C78.2278 40.6953 78.1815 41.0212 78.1815 41.4092C78.1351 41.7817 78.1351 42.2629 78.0888 42.6819C78.0424 43.6287 78.0424 44.7151 77.9961 45.8947C77.9961 46.1741 77.9961 46.5 77.9961 46.7949C77.9961 47.0898 77.9497 47.4002 77.9497 47.6951C77.9497 48.3004 77.9497 48.9678 77.9497 49.5886C77.9497 50.194 77.9497 50.8148 77.9497 51.4201C77.9497 51.6063 77.9497 51.746 77.9961 51.8857C77.9961 52.0254 77.9961 52.2116 77.9961 52.3513C77.9961 52.6307 77.9961 52.9101 77.9961 53.2515C77.9961 53.8103 78.0424 54.3845 78.0424 54.8967C78.0424 55.4555 78.0888 55.9366 78.0888 56.4022C78.1351 56.8679 78.1351 57.3024 78.1815 57.6749C78.1815 58.0474 78.2278 58.3889 78.2278 58.6683C78.2278 58.9476 78.2742 59.1804 78.2742 59.3356C78.2742 59.4753 78.3205 59.5219 78.3205 59.5219C78.3205 59.5219 78.3205 59.4753 78.3205 59.3356C78.3205 59.196 78.3669 58.9631 78.3669 58.6683C78.3669 58.3889 78.4132 58.0629 78.4132 57.6749C78.4596 57.3024 78.4596 56.8679 78.506 56.4022C78.506 55.9366 78.5523 55.4555 78.5523 54.8967C78.5523 54.3845 78.5987 53.8103 78.5987 53.2515C78.5987 52.9256 78.5987 52.6462 78.5987 52.3513C78.5987 52.2116 78.5987 52.0254 78.5987 51.8857C78.645 51.746 78.645 51.6063 78.645 51.4201C78.645 50.8148 78.645 50.2095 78.645 49.5886ZM86.3859 40.4935C86.3859 38.8483 86.3859 35.3096 83.4348 35.3096C80.4837 35.3096 80.4837 38.8483 80.4837 40.4935V49.4024C80.9472 49.4024 81.4262 49.4955 81.797 49.7283C81.0399 50.1474 80.5764 50.9545 80.4837 51.8547V58.7924C80.4837 60.391 80.4837 63.9298 83.4348 63.9298C86.3859 63.9298 86.3859 60.391 86.3859 58.7924V51.8547C86.3396 50.9545 85.8297 50.1629 85.0726 49.7283C85.4434 49.4955 85.9224 49.4024 86.3859 49.4024V40.4935ZM88.9199 49.5886C88.9199 48.9833 88.9199 48.3159 88.9199 47.6951C88.9199 47.4157 88.9199 47.0898 88.8735 46.7949C88.8735 46.5155 88.8735 46.1896 88.8735 45.8947C88.8735 44.7151 88.8272 43.6287 88.7808 42.6819C88.7344 42.2629 88.7345 41.7817 88.6881 41.4092C88.6881 41.0367 88.6417 40.6953 88.6417 40.4625C88.6417 40.1831 88.5954 39.9503 88.5954 39.7951C88.5954 39.6554 88.5954 39.5623 88.5954 39.5623C88.5954 39.5623 88.549 39.6554 88.549 39.7951C88.549 39.9348 88.549 40.1676 88.5027 40.4625C88.5027 40.6953 88.4563 41.0212 88.4563 41.4092C88.41 41.7817 88.41 42.2629 88.3636 42.6819C88.3173 43.6287 88.3173 44.7151 88.2709 45.8947C88.2709 46.1741 88.2709 46.5 88.2709 46.7949C88.2709 47.0898 88.2709 47.4002 88.2709 47.6951C88.2246 48.3004 88.2246 48.9678 88.2246 49.5886C88.2246 50.194 88.2246 50.8148 88.2709 51.4201C88.2709 51.6063 88.2709 51.746 88.2709 51.8857C88.2709 52.0254 88.2709 52.2116 88.2709 52.3513C88.2709 52.6307 88.2709 52.9101 88.2709 53.2515C88.2709 53.8103 88.3173 54.3845 88.3173 54.8967C88.3173 55.4555 88.3636 55.9366 88.3636 56.4022C88.41 56.8679 88.41 57.3024 88.4563 57.6749C88.4563 58.0474 88.5027 58.3889 88.5027 58.6683C88.549 58.9476 88.549 59.1804 88.549 59.3356C88.549 59.4753 88.5954 59.5219 88.5954 59.5219C88.5954 59.5219 88.5954 59.4753 88.5954 59.3356C88.5954 59.196 88.6417 58.9631 88.6417 58.6683C88.6417 58.3889 88.6881 58.0629 88.6881 57.6749C88.7345 57.3024 88.7344 56.8679 88.7808 56.4022C88.7808 55.9366 88.8272 55.4555 88.8272 54.8967C88.8272 54.3845 88.8735 53.8103 88.8735 53.2515C88.8735 52.9256 88.8735 52.6462 88.8735 52.3513C88.8735 52.2116 88.9199 52.0254 88.9199 51.8857C88.9199 51.746 88.9199 51.6063 88.9199 51.4201C88.9199 50.8148 88.9199 50.2095 88.9199 49.5886Z" fill="#37210C"/>
<path d="M110.536 66.1492H108.094C107.677 66.1492 107.337 65.7767 107.337 65.3887C107.337 65.7612 106.966 66.1492 106.58 66.1492H104.093C104.093 66.1492 104.093 66.1492 104.093 66.1026L99.2101 39.6088V49.4179C99.6736 49.4179 100.153 49.511 100.523 49.7438C99.7664 50.1629 99.3028 50.97 99.2101 51.8702V63.2779C99.2101 65.4973 100.245 65.0628 100.245 66.1492H97.7577C97.3869 66.1492 97.0006 65.7767 97.0006 65.3887C97.0006 65.7612 96.6762 66.1492 96.2436 66.1492H93.8023C93.8023 65.0628 94.7912 65.4818 94.8375 63.371V51.8702C94.7448 50.97 94.2813 50.1784 93.5242 49.7438C93.895 49.511 94.374 49.4179 94.8375 49.4179V35.9304C94.7912 33.8041 93.8023 34.2387 93.8023 33.1522H96.2899C96.6607 33.1522 97.047 33.4781 97.047 33.9127C97.047 33.4937 97.3715 33.1522 97.8041 33.1522H100.245L105.128 59.5529V51.8702C105.081 50.97 104.572 50.1784 103.814 49.7438C104.185 49.511 104.664 49.4179 105.128 49.4179V35.9304C105.081 33.8041 104.093 34.2387 104.093 33.1522H106.58C106.997 33.1522 107.337 33.4781 107.337 33.9127C107.337 33.4937 107.662 33.1522 108.094 33.1522H110.536C110.536 34.2387 109.5 33.8196 109.5 36.0235V49.4179C109.964 49.4179 110.443 49.511 110.814 49.7438C110.103 50.1629 109.593 50.97 109.5 51.8702V63.2779C109.5 65.4818 110.536 65.0628 110.536 66.1492ZM97.3869 49.6352C97.3869 48.8747 97.3869 48.1762 97.3869 47.4157C97.3869 47.0898 97.3406 46.7018 97.3406 46.3293C97.3406 46.0033 97.3406 45.6153 97.3406 45.2894C97.2942 43.9236 97.2942 42.6509 97.2479 41.5179C97.2015 41.0057 97.2015 40.478 97.1552 40.0589C97.1552 39.5933 97.1088 39.2053 97.1088 38.8793C97.1088 38.5534 97.0625 38.3206 97.0625 38.1188C97.0625 37.9326 97.0625 37.886 97.0625 37.886C97.0625 37.886 97.0161 37.9326 97.0161 38.1188C97.0161 38.3051 96.9697 38.5379 96.9697 38.8793C96.9697 39.2053 96.9234 39.5933 96.9234 40.0589C96.877 40.478 96.8771 41.0057 96.8307 41.5179C96.7843 42.6509 96.7843 43.9236 96.738 45.2894C96.738 45.6153 96.738 46.0033 96.738 46.3293C96.738 46.7018 96.6916 47.0898 96.6916 47.4157C96.6916 48.1762 96.6916 48.8747 96.6916 49.6352C96.6916 50.3491 96.6916 51.0941 96.6916 51.8081C96.6916 51.9943 96.6916 52.1806 96.738 52.3668C96.738 52.5065 96.738 52.6928 96.738 52.879C96.738 53.2049 96.738 53.593 96.738 53.9189C96.738 54.6328 96.7843 55.2847 96.7843 55.9055C96.7843 56.5729 96.8307 57.1317 96.8307 57.6904C96.8771 58.2492 96.877 58.7303 96.9234 59.1959C96.9234 59.615 96.9697 60.0496 96.9697 60.3289C96.9697 60.6549 97.0161 60.9343 97.0161 61.0895C97.0161 61.2757 97.0625 61.3688 97.0625 61.3688C97.0625 61.3688 97.0625 61.2757 97.0625 61.0895C97.0625 60.9498 97.1088 60.6704 97.1088 60.3289C97.1088 60.0496 97.1552 59.615 97.1552 59.1959C97.2015 58.7303 97.2015 58.2492 97.2479 57.6904C97.2479 57.1317 97.2942 56.5574 97.2942 55.9055C97.2942 55.3002 97.3406 54.6328 97.3406 53.9189C97.3406 53.593 97.3406 53.2049 97.3406 52.879C97.3406 52.6928 97.3406 52.5065 97.3869 52.3668C97.3869 52.1806 97.3869 51.9943 97.3869 51.8081C97.3869 51.0941 97.3869 50.3491 97.3869 49.6352ZM107.662 49.6352C107.662 48.8747 107.662 48.1762 107.662 47.4157C107.662 47.0898 107.662 46.7018 107.615 46.3293C107.615 46.0033 107.615 45.6153 107.615 45.2894C107.615 43.9236 107.569 42.6509 107.523 41.5179C107.476 41.0057 107.476 40.478 107.43 40.0589C107.43 39.5933 107.384 39.2053 107.384 38.8793C107.384 38.5534 107.337 38.3206 107.337 38.1188C107.337 37.9326 107.337 37.886 107.337 37.886C107.337 37.886 107.291 37.9326 107.291 38.1188C107.291 38.3051 107.291 38.5379 107.245 38.8793C107.245 39.2053 107.198 39.5933 107.198 40.0589C107.152 40.478 107.152 41.0057 107.106 41.5179C107.059 42.6509 107.059 43.9236 107.013 45.2894C107.013 45.6153 107.013 46.0033 107.013 46.3293C107.013 46.7018 107.013 47.0898 107.013 47.4157C106.966 48.1762 106.966 48.8747 106.966 49.6352C106.966 50.3491 106.966 51.0941 107.013 51.8081C107.013 51.9943 107.013 52.1806 107.013 52.3668C107.013 52.5065 107.013 52.6928 107.013 52.879C107.013 53.2049 107.013 53.593 107.013 53.9189C107.013 54.6328 107.059 55.2847 107.059 55.9055C107.106 56.5729 107.106 57.1317 107.106 57.6904C107.152 58.2492 107.152 58.7303 107.198 59.1959C107.198 59.615 107.245 60.0496 107.245 60.3289C107.291 60.6549 107.291 60.9343 107.291 61.0895C107.291 61.2757 107.337 61.3688 107.337 61.3688C107.337 61.3688 107.337 61.2757 107.337 61.0895C107.337 60.9498 107.384 60.6704 107.384 60.3289C107.384 60.0496 107.43 59.615 107.43 59.1959C107.476 58.7303 107.476 58.2492 107.523 57.6904C107.523 57.1317 107.569 56.5574 107.569 55.9055C107.569 55.3002 107.615 54.6328 107.615 53.9189C107.615 53.593 107.615 53.2049 107.615 52.879C107.662 52.6928 107.662 52.5065 107.662 52.3668C107.662 52.1806 107.662 51.9943 107.662 51.8081C107.662 51.0941 107.662 50.3491 107.662 49.6352Z" fill="#37210C"/>
<path d="M131.317 66.1492H118.555C118.184 66.1492 117.798 65.7767 117.798 65.3887C117.798 65.7612 117.473 66.1492 117.04 66.1492H114.599C114.599 65.0628 115.588 65.4818 115.634 63.371V51.8702C115.542 50.97 115.078 50.1784 114.321 49.7438C114.692 49.511 115.171 49.4179 115.634 49.4179V35.9304C115.588 33.8041 114.599 34.2387 114.599 33.1522H117.087C117.458 33.1522 117.844 33.4781 117.844 33.9127C117.844 33.4937 118.168 33.1522 118.601 33.1522H131.317C131.317 34.2387 130.282 33.8196 130.282 36.0235C130.282 38.3361 130.282 41.8283 130.282 42.2939C125.956 42.2939 125.909 38.1033 125.909 38.1033V36.6288C125.909 35.9149 125.353 35.3561 124.642 35.3096H121.259C120.548 35.3561 119.992 35.9149 119.992 36.6288V47.245C119.992 47.9589 120.548 48.5177 121.259 48.5177H121.583C122.247 48.5177 122.804 47.9589 122.804 47.245V47.1829C122.804 47.1829 122.85 44.7306 125.662 44.7306C125.662 45.01 125.662 47.0432 125.662 48.5022C125.662 48.6884 125.662 48.8747 125.662 49.0144C125.662 49.7283 125.662 50.1939 125.662 50.1939V50.7061C125.662 52.2116 125.662 54.1983 125.662 54.4776C122.85 54.4776 122.804 52.0254 122.804 52.0254C122.804 51.3114 122.247 50.7527 121.583 50.7061H121.259C120.548 50.7527 119.992 51.3114 119.992 52.0254V62.6415C119.992 63.3555 120.548 63.9142 121.259 63.9142H124.642C125.353 63.9142 125.909 63.3555 125.909 62.6415V61.1515C125.909 61.1515 125.956 56.961 130.282 56.961C130.282 57.4266 130.282 60.9187 130.282 63.2779C130.282 65.4818 131.317 65.0628 131.317 66.1492ZM118.168 49.6352C118.168 48.8747 118.168 48.1762 118.168 47.4157C118.168 47.0898 118.122 46.7018 118.122 46.3293C118.122 46.0033 118.122 45.6153 118.122 45.2894C118.076 43.9236 118.076 42.6509 118.029 41.5179C117.983 41.0057 117.983 40.478 117.937 40.0589C117.937 39.5933 117.89 39.2053 117.89 38.8793C117.89 38.5534 117.844 38.3206 117.844 38.1188C117.844 37.9326 117.844 37.886 117.844 37.886C117.844 37.886 117.798 37.9326 117.798 38.1188C117.798 38.3051 117.751 38.5379 117.751 38.8793C117.751 39.2053 117.705 39.5933 117.705 40.0589C117.658 40.478 117.658 41.0057 117.612 41.5179C117.566 42.6509 117.566 43.9236 117.519 45.2894C117.519 45.6153 117.519 46.0033 117.519 46.3293C117.519 46.7018 117.473 47.0898 117.473 47.4157C117.473 48.1762 117.473 48.8747 117.473 49.6352C117.473 50.3491 117.473 51.0941 117.473 51.8081C117.473 51.9943 117.473 52.1806 117.519 52.3668C117.519 52.5065 117.519 52.6928 117.519 52.879C117.519 53.2049 117.519 53.593 117.519 53.9189C117.519 54.6328 117.566 55.2847 117.566 55.9055C117.566 56.5729 117.612 57.1317 117.612 57.6904C117.658 58.2492 117.658 58.7303 117.705 59.1959C117.705 59.615 117.751 60.0496 117.751 60.3289C117.751 60.6549 117.798 60.9343 117.798 61.0895C117.798 61.2757 117.844 61.3688 117.844 61.3688C117.844 61.3688 117.844 61.2757 117.844 61.0895C117.844 60.9498 117.89 60.6704 117.89 60.3289C117.89 60.0496 117.937 59.615 117.937 59.1959C117.983 58.7303 117.983 58.2492 118.029 57.6904C118.029 57.1317 118.076 56.5574 118.076 55.9055C118.076 55.3002 118.122 54.6328 118.122 53.9189C118.122 53.593 118.122 53.2049 118.122 52.879C118.122 52.6928 118.122 52.5065 118.168 52.3668C118.168 52.1806 118.168 51.9943 118.168 51.8081C118.168 51.0941 118.168 50.3491 118.168 49.6352Z" fill="#37210C"/>
<path d="M162.497 69.0516C162.497 69.1447 162.497 69.2378 162.497 69.3154V82.2286C162.312 89.7562 156.162 95.8403 148.591 95.8403C140.928 95.8403 134.685 89.5699 134.685 81.8717C134.593 77.7587 132.723 78.5502 132.723 76.5015H137.358C138.162 76.5015 138.78 77.1223 138.78 77.9294C138.78 77.1223 139.491 76.5015 140.201 76.5015H144.929C144.929 78.5658 142.967 77.7587 142.967 81.8717C142.967 81.9648 142.967 81.9648 142.967 81.9648C142.967 85.1 143.06 91.6342 148.591 91.6342C154.215 91.6342 154.215 84.9137 154.215 81.8717V75.2443C154.215 72.016 154.03 65.7457 148.591 65.7457C141.005 65.7457 134.855 59.6615 134.685 52.0409V46.7638C134.871 39.2363 141.02 33.1522 148.591 33.1522C156.255 33.1522 162.497 39.4226 162.497 47.1208C162.497 51.2338 164.459 50.4422 164.459 52.491H159.731C159.021 52.491 158.31 51.8702 158.31 51.0631C158.31 51.8702 157.692 52.491 156.888 52.491H152.253C152.253 50.4267 154.215 51.2338 154.215 47.0277C154.215 43.8925 154.123 37.2652 148.591 37.2652C142.967 37.2652 142.967 43.9856 142.967 47.1208V51.6839C142.967 54.8191 142.967 61.5395 148.591 61.5395C152.516 61.5395 156.085 63.2468 158.665 65.8388C159.561 64.7679 160.983 64.0539 162.497 64.0539C163.393 64.0539 164.274 64.2402 165 64.6747C163.486 65.5594 162.497 67.1736 162.497 69.0516ZM142.982 61.2602C142.982 61.2602 142.89 61.167 142.797 61.0739C142.704 60.9808 142.612 60.8877 142.534 60.8101L142.442 60.7169C142.349 60.6238 142.256 60.5307 142.256 60.5307C141.994 60.2668 141.808 59.9099 141.546 59.5529C141.283 59.1959 141.097 58.7458 140.835 58.2957C140.649 57.7525 140.387 57.2248 140.217 56.5884C140.031 55.9676 139.861 55.3313 139.769 54.7104C139.769 54.6173 139.676 54.5242 139.676 54.4466C139.676 54.3535 139.676 54.2603 139.676 54.1827C139.583 53.9965 139.583 53.8258 139.583 53.6395C139.491 53.2825 139.398 52.9256 139.398 52.5686C139.305 51.8546 139.212 51.1407 139.212 50.4267C139.12 49.7128 139.12 48.9057 139.12 48.1917C139.12 48.0055 139.12 47.8348 139.12 47.6485C139.12 47.4623 139.12 47.2915 139.12 47.1053C139.12 46.7483 139.12 46.3913 139.12 46.1275C139.212 45.4135 139.305 44.6996 139.382 44.0632C139.382 43.4424 139.568 42.8992 139.645 42.356C139.738 41.8127 139.908 41.285 140 40.9281C140.186 40.478 140.356 40.121 140.541 39.8571C140.634 39.5933 140.804 39.3139 140.897 39.2363C140.989 39.1432 141.082 39.1432 141.082 39.0501H140.989C140.989 39.1432 140.897 39.1432 140.897 39.1432C140.804 39.1432 140.804 39.2363 140.711 39.2363C140.711 39.3294 140.618 39.3294 140.618 39.3294C140.526 39.4226 140.526 39.4226 140.433 39.5157C140.433 39.6088 140.34 39.6088 140.248 39.7019C140.062 39.9658 139.8 40.3228 139.537 40.6797C139.352 41.1298 139.089 41.5799 138.919 42.1076C138.733 42.6509 138.471 43.2717 138.378 43.8925C138.193 44.6065 138.115 45.2428 138.023 45.9568C137.93 46.3137 137.93 46.6707 137.837 47.1208C137.837 47.4778 137.837 47.8348 137.837 48.1917C137.745 48.9988 137.745 49.7128 137.837 50.5199C137.93 51.2338 137.93 52.0409 138.1 52.7548C138.1 52.9411 138.193 53.2049 138.193 53.3757C138.193 53.5619 138.285 53.7326 138.285 53.9189C138.378 54.2759 138.471 54.6328 138.548 54.9898C138.733 55.7038 138.996 56.3401 139.259 56.9609C139.521 57.5818 139.8 58.125 140.155 58.6682C140.418 59.1183 140.773 59.5684 141.128 59.9254C141.391 60.2824 141.746 60.5462 142.025 60.7325C142.287 60.9187 142.565 60.9963 142.643 61.0894C142.89 61.167 142.982 61.2602 142.982 61.2602ZM158.943 78.721C158.943 78.1777 158.851 77.5569 158.851 77.0137C158.851 76.3929 158.758 75.8496 158.665 75.3995C158.665 75.1357 158.572 74.8563 158.572 74.5925C158.48 74.4062 158.48 74.1424 158.48 73.9716C158.387 73.5215 158.294 73.0714 158.124 72.7144C158.032 72.3575 157.939 72.0936 157.862 71.8142C157.862 71.628 157.769 71.5504 157.769 71.4573C157.676 71.3641 157.676 71.271 157.584 71.271C157.584 71.0848 157.491 71.0072 157.491 71.0072C157.491 71.0072 157.491 71.1003 157.584 71.271C157.584 71.3642 157.584 71.4573 157.584 71.5349C157.584 71.628 157.584 71.7211 157.584 71.7987C157.676 72.0626 157.676 72.4195 157.676 72.7765C157.676 72.8697 157.676 72.9628 157.676 73.0404C157.676 73.1335 157.676 73.2266 157.676 73.3042C157.676 73.5681 157.676 73.7543 157.676 73.9251C157.676 74.3752 157.676 74.9029 157.676 75.353C157.676 75.6168 157.676 75.8962 157.676 76.16C157.676 76.4239 157.676 76.7033 157.676 76.9671C157.676 77.231 157.676 77.5103 157.676 77.7742C157.676 77.9604 157.676 78.1312 157.676 78.2243C157.676 78.4105 157.676 78.4881 157.676 78.6744C157.584 78.9382 157.584 79.2952 157.584 79.5746C157.584 79.6677 157.584 79.8384 157.584 80.0247V80.4748C157.584 81.018 157.491 81.6388 157.491 82.1821C157.398 82.7253 157.398 83.3461 157.305 83.8894C157.305 83.9825 157.305 84.1532 157.305 84.2463C157.213 84.4326 157.213 84.5102 157.213 84.6964C157.213 84.9603 157.12 85.1465 157.12 85.4104C157.12 85.6742 157.027 85.9536 157.027 86.1243C156.935 86.3882 156.935 86.5744 156.842 86.8383C156.842 87.0245 156.749 87.1953 156.749 87.4591C156.657 87.6454 156.657 87.8161 156.564 88.0023C156.471 88.3593 156.378 88.6232 156.301 88.9025C156.301 88.9025 156.301 88.9957 156.301 89.0888C156.208 89.0888 156.208 89.1819 156.208 89.1819C156.208 89.275 156.116 89.3681 156.116 89.4458C156.023 89.5389 156.023 89.632 156.023 89.632C156.023 89.632 156.116 89.632 156.208 89.4458C156.301 89.3526 156.394 89.1819 156.564 88.9957C156.749 88.8094 156.826 88.4524 157.012 88.1886C157.105 88.0023 157.197 87.8316 157.275 87.6454C157.367 87.4591 157.46 87.2884 157.537 87.0245C157.63 86.8383 157.723 86.5744 157.8 86.4037C157.893 86.2175 157.893 86.1399 157.893 86.0467C157.985 85.8605 157.985 85.7829 158.078 85.6897C158.078 85.4259 158.171 85.1465 158.263 84.8827C158.356 84.6188 158.356 84.3395 158.449 84.0756C158.449 83.8894 158.449 83.8117 158.542 83.6255C158.542 83.4392 158.542 83.3616 158.542 83.1754C158.634 82.9115 158.634 82.6322 158.727 82.2752C158.727 82.1821 158.727 82.0113 158.727 81.8251C158.727 81.732 158.82 81.5612 158.82 81.375C158.82 81.1111 158.82 80.8318 158.82 80.4748C158.912 80.2109 158.912 79.9316 158.912 79.5746C158.943 79.3573 158.943 79.0003 158.943 78.721Z" fill="#37210C"/>
<path d="M22.9755 70.8209H54.279V70.5105H22.9755V70.8209ZM110.721 70.5105V70.8209H142.009V70.5105H110.721Z" fill="#37210C"/>
<path fill-rule="evenodd" clip-rule="evenodd" d="M51.6832 74.7166C52.6566 75.5392 54.3408 76.9516 57.3691 78.7986C59.0069 79.8229 63.874 82.477 69.3281 83.9514C72.032 84.712 74.8441 85.2397 77.2699 85.519C79.7111 85.7984 81.7661 85.845 83.0022 85.845C84.2382 85.845 86.2932 85.7984 88.7344 85.519C91.1757 85.2397 93.9723 84.7275 96.6762 83.9514C102.115 82.4615 106.997 79.8229 108.635 78.7986C111.679 76.9516 113.348 75.5547 114.321 74.7166C115.295 73.8785 115.542 73.5526 115.495 73.506C115.449 73.4594 115.125 73.6767 114.089 74.4217C113.054 75.1667 111.339 76.4705 108.311 78.2398C106.673 79.2176 101.852 81.8096 96.4908 83.253C93.8178 83.998 91.0675 84.5102 88.6572 84.774C86.2623 85.0379 84.2228 85.0844 83.0176 85.0844C81.8124 85.0844 79.7729 85.0379 77.378 84.774C74.9831 84.5102 72.2174 83.998 69.5444 83.253C64.1675 81.8096 59.3469 79.2176 57.7245 78.2398C54.6961 76.4705 52.9811 75.1512 51.9459 74.4217C50.9261 73.6612 50.5862 73.4439 50.5398 73.506C50.4626 73.5526 50.7098 73.863 51.6832 74.7166ZM124.225 84.6809C122.865 85.6742 120.61 87.4281 116.592 89.7717C115.495 90.408 113.379 91.6187 110.613 92.8758C107.847 94.1485 104.433 95.4523 100.894 96.4456C97.3406 97.4389 93.6633 98.1218 90.4804 98.4633C87.2975 98.8203 84.6091 98.8823 83.0022 98.8823C81.3953 98.8823 78.7223 98.8203 75.5394 98.4633C72.3565 98.1218 68.6792 97.4389 65.1255 96.4456C61.5718 95.4678 58.1571 94.1485 55.3914 92.8758C52.6257 91.6031 50.5089 90.408 49.4119 89.7717C45.3947 87.4126 43.1389 85.6587 41.7792 84.6809C40.435 83.6721 40.0023 83.3616 39.956 83.4237C39.9096 83.4703 40.265 83.8738 41.5474 84.9758C42.8453 86.0622 45.0702 87.8937 49.1029 90.3304C50.1999 90.9823 52.3321 92.224 55.1288 93.5122C57.9099 94.8159 61.3555 96.1352 64.9555 97.144C68.5401 98.1684 72.2638 98.8513 75.4776 99.2083C78.6914 99.5808 81.4107 99.6429 83.0331 99.6429C84.6554 99.6429 87.3593 99.5808 90.5885 99.2083C93.8023 98.8513 97.526 98.1529 101.111 97.144C104.695 96.1352 108.141 94.8004 110.937 93.5122C113.719 92.224 115.851 90.9823 116.963 90.3304C120.98 87.8937 123.205 86.0622 124.503 84.9758C125.786 83.8738 126.141 83.4703 126.095 83.4237C126.002 83.3616 125.569 83.6721 124.225 84.6809Z" fill="#37210C"/>
<path fill-rule="evenodd" clip-rule="evenodd" d="M114.321 27.5337C113.348 26.7111 111.664 25.2987 108.635 23.4518C106.997 22.4274 102.13 19.7734 96.6762 18.2989C93.9723 17.5229 91.1602 17.0107 88.7344 16.7313C86.2932 16.4519 84.2382 16.4054 83.0021 16.4054C81.7661 16.4054 79.7111 16.4519 77.2699 16.7313C74.8286 17.0107 72.032 17.5229 69.3281 18.2989C63.8894 19.7889 59.0069 22.4274 57.3691 23.4518C54.3253 25.2987 52.6566 26.6956 51.6832 27.5337C50.7098 28.3718 50.4626 28.6978 50.5089 28.7443C50.5553 28.7909 50.8798 28.5736 51.915 27.8286C52.9502 27.0836 54.6652 25.7799 57.6936 24.0105C59.3314 23.0327 64.1521 20.4408 69.5135 18.9973C72.1865 18.2523 74.9522 17.7402 77.3471 17.4763C79.742 17.2125 81.7815 17.1659 82.9867 17.1659C84.2073 17.1659 86.2314 17.2125 88.6262 17.4763C91.0211 17.7402 93.7868 18.2523 96.4598 18.9973C101.837 20.4408 106.657 23.0327 108.28 24.0105C111.308 25.7799 113.023 27.0836 114.058 27.8286C115.094 28.5736 115.418 28.7909 115.464 28.7443C115.542 28.6978 115.294 28.3873 114.321 27.5337ZM124.472 14.6671C123.174 13.5806 120.949 11.7492 116.932 9.31242C115.835 8.66055 113.703 7.41889 110.906 6.13067C108.125 4.82694 104.68 3.50768 101.08 2.49883C97.4951 1.47447 93.7868 0.791555 90.5576 0.434579C87.3438 0.0620827 84.6245 0 83.0176 0C81.3952 0 78.6913 0.0620827 75.4621 0.434579C72.2483 0.791555 68.5247 1.48999 64.9401 2.49883C61.3555 3.50768 57.9099 4.84246 55.1133 6.13067C52.3321 7.41889 50.1845 8.66055 49.0875 9.31242C45.0702 11.7492 42.8453 13.5806 41.5474 14.6671C40.265 15.769 39.9096 16.1726 39.956 16.2191C40.0023 16.2812 40.435 15.9708 41.7792 14.9619C43.1389 13.9686 45.4101 12.2148 49.4119 9.87116C50.5089 9.23481 52.6257 8.0242 55.3914 6.76702C58.1571 5.49433 61.5718 4.19059 65.1255 3.19726C68.6792 2.20394 72.3565 1.52103 75.5394 1.17957C78.7222 0.822597 81.4107 0.760514 83.0021 0.760514C84.609 0.760514 87.282 0.822597 90.4803 1.17957C93.6632 1.53655 97.3405 2.20394 100.894 3.19726C104.448 4.19059 107.863 5.49433 110.628 6.76702C113.394 8.03972 115.511 9.23481 116.608 9.87116C120.625 12.2303 122.881 13.9841 124.241 14.9619C125.585 15.9708 126.017 16.2812 126.064 16.2191C126.11 16.1726 125.755 15.769 124.472 14.6671Z" fill="#37210C"/>
<path d="M125.43 22.3498C125.26 22.1325 125.029 22.0549 124.75 22.117C124.488 22.1791 124.333 22.3653 124.287 22.6292C124.241 22.893 124.024 23.1258 123.777 23.1569C123.437 23.2034 123.19 23.4983 123.221 23.8398C123.252 24.1968 123.514 24.4451 123.885 24.4451C123.962 24.4296 124.04 24.4296 124.117 24.414C124.843 24.2588 125.399 23.7001 125.538 22.9706C125.585 22.7533 125.585 22.536 125.43 22.3498ZM124.441 23.1413C124.271 23.3431 124.055 23.4673 123.808 23.5604C123.746 23.5759 123.7 23.5759 123.684 23.5138C123.669 23.4518 123.7 23.4207 123.746 23.3897C123.901 23.3121 124.04 23.2345 124.179 23.1413C124.318 23.0482 124.411 22.9085 124.426 22.7223C124.441 22.6757 124.457 22.6136 124.519 22.6292C124.55 22.6447 124.58 22.6757 124.596 22.6912C124.596 22.893 124.534 23.0172 124.441 23.1413Z" fill="#37210C"/>
<path d="M41.5011 23.638C41.4393 23.3742 41.2539 23.219 40.9912 23.1724C40.7286 23.1258 40.4968 22.9085 40.4659 22.6602C40.4195 22.3187 40.126 22.0704 39.786 22.1015C39.4307 22.1325 39.1835 22.3963 39.1835 22.7688C39.1989 22.8465 39.1989 22.9241 39.2144 23.0017C39.3689 23.7311 39.9251 24.2899 40.6513 24.4296C40.8676 24.4761 41.0994 24.4606 41.2848 24.3209C41.4857 24.1502 41.5784 23.9174 41.5011 23.638ZM40.914 23.4828C40.7285 23.4673 40.6049 23.4052 40.4813 23.3121C40.2805 23.1413 40.1569 22.9241 40.0642 22.6757C40.0487 22.6136 40.0487 22.5671 40.1105 22.5516C40.1723 22.536 40.2032 22.5671 40.2341 22.6136C40.3114 22.7688 40.3886 22.9085 40.4813 23.0482C40.574 23.1879 40.7131 23.281 40.8985 23.2966C40.9449 23.3121 41.0067 23.3276 40.9912 23.3897C40.9758 23.4362 40.9294 23.4673 40.914 23.4828Z" fill="#37210C"/>
<path d="M127.145 75.2133C127.022 75.0581 126.852 74.996 126.651 75.0425C126.465 75.0891 126.342 75.2288 126.311 75.415C126.28 75.6168 126.126 75.772 125.94 75.8031C125.693 75.8341 125.508 76.0514 125.538 76.2997C125.554 76.5636 125.755 76.7498 126.017 76.7498C126.079 76.7498 126.141 76.7343 126.187 76.7343C126.713 76.6257 127.13 76.2066 127.223 75.6789C127.253 75.5082 127.253 75.353 127.145 75.2133ZM126.404 75.8031C126.28 75.9583 126.126 76.0514 125.94 76.1135C125.894 76.129 125.863 76.129 125.847 76.0824C125.832 76.0359 125.847 76.0204 125.894 75.9893C126.002 75.9272 126.11 75.8807 126.218 75.8031C126.326 75.7255 126.388 75.6323 126.404 75.4926C126.404 75.4461 126.435 75.415 126.481 75.4306C126.512 75.4306 126.527 75.4616 126.543 75.4771C126.527 75.6168 126.481 75.7099 126.404 75.8031Z" fill="#37210C"/>
<path d="M40.4813 76.16C40.435 75.9738 40.2959 75.8496 40.0951 75.8186C39.8942 75.7875 39.7397 75.6323 39.7088 75.4461C39.6779 75.1977 39.4616 75.0115 39.2144 75.0425C38.9517 75.0581 38.7663 75.2598 38.7663 75.5237C38.7663 75.5858 38.7817 75.6479 38.7817 75.6944C38.8899 76.2221 39.3071 76.6412 39.8324 76.7343C40.0023 76.7653 40.1569 76.7653 40.2959 76.6567C40.4813 76.5325 40.5431 76.3618 40.4813 76.16ZM40.0487 76.0514C39.9096 76.0359 39.8169 75.9893 39.7397 75.9272C39.5852 75.8031 39.4925 75.6479 39.4307 75.4616C39.4152 75.415 39.4152 75.384 39.4616 75.3685C39.5079 75.353 39.5234 75.3685 39.5543 75.415C39.6161 75.5237 39.6624 75.6323 39.7397 75.741C39.8169 75.8496 39.9096 75.9117 40.0487 75.9272C40.0951 75.9272 40.126 75.9583 40.1105 76.0048C40.0951 76.0203 40.0641 76.0359 40.0487 76.0514Z" fill="#37210C"/>
<path d="M124.395 25.159C125.428 25.159 126.265 24.3182 126.265 23.281C126.265 22.2438 125.428 21.403 124.395 21.403C123.363 21.403 122.526 22.2438 122.526 23.281C122.526 24.3182 123.363 25.159 124.395 25.159Z" fill="#37210C"/>
<path d="M40.3422 25.159C41.3748 25.159 42.2118 24.3182 42.2118 23.281C42.2118 22.2438 41.3748 21.403 40.3422 21.403C39.3097 21.403 38.4727 22.2438 38.4727 23.281C38.4727 24.3182 39.3097 25.159 40.3422 25.159Z" fill="#37210C"/>
<path d="M126.388 77.262C127.139 77.262 127.748 76.6505 127.748 75.8962C127.748 75.1419 127.139 74.5304 126.388 74.5304C125.637 74.5304 125.029 75.1419 125.029 75.8962C125.029 76.6505 125.637 77.262 126.388 77.262Z" fill="#37210C"/>
<path d="M39.647 77.262C40.3979 77.262 41.0066 76.6505 41.0066 75.8962C41.0066 75.1419 40.3979 74.5304 39.647 74.5304C38.896 74.5304 38.2873 75.1419 38.2873 75.8962C38.2873 76.6505 38.896 77.262 39.647 77.262Z" fill="#37210C"/>
<path d="M53.6764 80.8939L52.4867 82.7874L52.703 82.927C52.7802 82.9736 52.8575 83.0047 52.9193 82.9736C52.9811 82.9581 53.0584 82.896 53.1665 82.8029C53.2438 82.7408 53.2901 82.6942 53.3056 82.6942C53.321 82.6942 53.3519 82.6942 53.3983 82.7253L53.5373 82.8184C53.5991 82.8494 53.5991 82.896 53.5682 82.9426L52.873 84.0601C52.842 84.1066 52.7957 84.1221 52.7493 84.0911L52.5948 83.998C52.5639 83.9825 52.533 83.9514 52.533 83.9359C52.533 83.9204 52.533 83.8738 52.5639 83.7962C52.6103 83.6255 52.6257 83.5168 52.5948 83.4548C52.5639 83.3927 52.533 83.3461 52.4712 83.3151L52.2549 83.1754L51.1579 84.9292C51.0807 85.0379 51.0807 85.1465 51.127 85.2551C51.1579 85.3328 51.1579 85.3948 51.127 85.4414L51.0343 85.5811C51.0034 85.6276 50.957 85.6432 50.9107 85.5966L49.9064 84.9603C49.86 84.9292 49.8446 84.8982 49.8755 84.8516L49.9682 84.6964C49.9991 84.6498 50.0454 84.6188 50.1381 84.6188C50.2618 84.6188 50.3545 84.5567 50.4163 84.4481L52.8111 80.6145C52.8729 80.5058 52.8884 80.3972 52.842 80.2885C52.8111 80.2109 52.8111 80.1488 52.842 80.1023L52.9348 79.9626C52.9657 79.916 52.9966 79.9005 53.0429 79.9316L54.7116 80.987C54.758 81.018 54.8352 81.0646 54.9588 81.1267C55.0206 81.1577 55.0515 81.1732 55.067 81.1887C55.1133 81.2198 55.1442 81.2508 55.1442 81.2663C55.1442 81.2819 55.1288 81.3129 55.1133 81.3595L54.5107 82.3217C54.4798 82.3838 54.4335 82.3838 54.3717 82.3528L54.2481 82.2752C54.2017 82.2441 54.1863 82.2286 54.1863 82.1976C54.1863 82.1665 54.2017 82.12 54.2481 82.0113C54.3562 81.7785 54.3871 81.5923 54.3408 81.4526C54.3099 81.3284 54.2017 81.2043 54.0472 81.1111L53.6764 80.8939Z" fill="#37210C"/>
<path d="M56.0868 88.6076L53.8 87.3505C53.7537 87.3194 53.7382 87.2729 53.7691 87.2263L53.8464 87.0866C53.8773 87.04 53.9391 87.009 54.0472 86.9935C54.1399 86.978 54.2172 86.9159 54.279 86.8072L56.4267 82.834C56.4885 82.7253 56.4885 82.6011 56.4421 82.508C56.4112 82.4459 56.4112 82.3839 56.4267 82.3218L56.5194 82.1666C56.5348 82.12 56.5812 82.12 56.6275 82.151L58.3426 83.0978C58.3735 83.1133 58.4353 83.1444 58.528 83.1909C58.6052 83.222 58.667 83.253 58.6825 83.2685C58.7598 83.3151 58.7752 83.3461 58.7597 83.3927L58.219 84.3705C58.1881 84.4171 58.1726 84.4481 58.1572 84.4481C58.1417 84.4481 58.1108 84.4481 58.0645 84.4171L57.9409 84.355C57.8945 84.3239 57.8791 84.2774 57.8945 84.2153C57.9718 84.029 58.0027 83.8583 58.0027 83.7031C58.0027 83.5479 57.91 83.4082 57.7245 83.3151L57.3074 83.0823L56.2722 84.9758L56.4267 85.0534C56.5194 85.1 56.5966 85.131 56.6584 85.1C56.7202 85.0844 56.8284 84.9913 56.9829 84.8206C57.0293 84.774 57.0602 84.743 57.0756 84.743C57.0911 84.743 57.1065 84.743 57.1374 84.7585L57.2919 84.8361C57.3537 84.8672 57.3692 84.9137 57.3383 84.9603L56.6584 86.2175C56.6275 86.264 56.5812 86.2795 56.5348 86.2485L56.3803 86.1709C56.3494 86.1554 56.334 86.1243 56.3185 86.1088C56.3185 86.0778 56.3185 86.0157 56.3494 85.9226C56.3958 85.7363 56.4112 85.6277 56.3803 85.5656C56.3494 85.5035 56.3031 85.4569 56.2104 85.4104L56.0713 85.3328L54.9125 87.4591L55.3606 87.7074C55.5305 87.8006 55.6696 87.8161 55.7777 87.785C55.8859 87.754 56.0868 87.5677 56.3649 87.2573C56.4267 87.1953 56.4885 87.1642 56.5503 87.1953L56.6893 87.2729C56.7511 87.3039 56.7511 87.3505 56.7202 87.397L56.0868 88.6076Z" fill="#37210C"/>
<path d="M59.146 89.3216C59.0842 89.4458 59.0842 89.5544 59.146 89.6475C59.1923 89.7096 59.1923 89.7717 59.1769 89.8338L59.0996 89.989C59.0687 90.0356 59.0378 90.0511 58.976 90.02L57.9099 89.5079C57.8636 89.4768 57.8481 89.4458 57.8636 89.3992L57.9408 89.244C57.9717 89.1974 58.0181 89.1664 58.0953 89.1509C58.2189 89.1354 58.2962 89.0577 58.358 88.9491L60.2894 84.8671C60.3512 84.743 60.3357 84.6343 60.2894 84.5412C60.243 84.4791 60.243 84.417 60.2739 84.355L60.3512 84.1998C60.3821 84.1532 60.413 84.1377 60.4748 84.1687L61.5409 84.6809C61.5872 84.7119 61.6027 84.743 61.5872 84.7895L61.51 84.9447C61.4791 84.9913 61.4327 85.0379 61.3555 85.0379C61.2319 85.0534 61.1546 85.131 61.0928 85.2396L59.146 89.3216Z" fill="#37210C"/>
<path d="M62.3134 90.3615L63.9049 86.4968C63.9512 86.3727 63.9512 86.264 63.874 86.1709C63.8276 86.1088 63.8276 86.0467 63.8431 85.9846L63.9049 85.8294C63.9203 85.7829 63.9667 85.7674 64.0285 85.7829L65.1255 86.233C65.1718 86.2485 65.1873 86.2951 65.1718 86.3416L65.11 86.4968C65.0946 86.5434 65.0328 86.59 64.9555 86.6055C64.8319 86.6365 64.7547 86.6986 64.7083 86.8228L63.3023 90.2683C63.1169 90.7184 62.8697 91.0133 62.5452 91.1841C62.2207 91.3548 61.8963 91.3703 61.5718 91.2461C61.3246 91.153 61.1546 90.9978 61.0774 90.8116C60.9846 90.6253 60.9692 90.4391 61.0465 90.2683C61.0928 90.1597 61.1701 90.0821 61.2782 90.0355C61.3864 89.989 61.51 89.989 61.6336 90.0355C61.7417 90.0821 61.8035 90.1442 61.8499 90.2218C61.8963 90.2994 61.8963 90.3925 61.8499 90.4856C61.8344 90.5167 61.8035 90.5632 61.7726 90.6253C61.7572 90.6564 61.7417 90.6874 61.7263 90.7029C61.6954 90.7961 61.7263 90.8581 61.819 90.9047C61.9735 90.9823 62.1435 90.796 62.3134 90.3615Z" fill="#37210C"/>
<path d="M67.5204 87.9092L67.5668 87.6453C67.5822 87.5677 67.5977 87.5212 67.5977 87.5057C67.6131 87.4746 67.6286 87.4746 67.6749 87.4591L68.3857 87.3815C68.4011 87.3815 68.4011 87.3815 68.4166 87.3815C68.4475 87.397 68.4629 87.428 68.4629 87.4746L67.8294 92.7206C67.814 92.8137 67.814 92.8913 67.8294 92.9379C67.8449 92.9845 67.8758 93.0465 67.9376 93.1086C67.9839 93.1552 67.9994 93.2017 67.9839 93.2483L67.9376 93.4035C67.9221 93.4656 67.8912 93.4811 67.8449 93.4656L66.6397 93.0621C66.5779 93.0465 66.547 93 66.5779 92.9379L66.6243 92.7827C66.6397 92.7206 66.7015 92.6896 66.7942 92.674C66.9024 92.6585 66.9796 92.5964 67.0105 92.5188C67.026 92.4878 67.026 92.4723 67.026 92.4257L67.1187 91.6186L66.1762 91.3082L65.7899 91.9911C65.7745 92.0222 65.759 92.0377 65.759 92.0532C65.7281 92.1308 65.759 92.2239 65.8363 92.3481C65.8826 92.4257 65.8981 92.4878 65.8826 92.5344L65.8363 92.6896C65.8208 92.7516 65.7745 92.7672 65.6972 92.7361L64.9401 92.4878C64.8629 92.4568 64.8165 92.4102 64.8474 92.3636L64.9092 92.1774C64.9247 92.1308 64.971 92.0998 65.0328 92.0843C65.1564 92.0532 65.2491 91.9756 65.3264 91.8359L67.5204 87.9092ZM67.3968 89.1509L66.4079 90.8892L67.1496 91.1375L67.3968 89.1509ZM67.4122 86.8072L67.4586 86.6675C67.5204 86.4813 67.6131 86.3416 67.7213 86.264C67.8449 86.1709 67.9685 86.1554 68.1075 86.2019C68.2311 86.2485 68.3702 86.3571 68.5247 86.5434C68.6483 86.6831 68.741 86.7762 68.8028 86.7917C68.911 86.8228 69.0037 86.7762 69.05 86.621L69.0809 86.5279L69.39 86.6365L69.3282 86.8072C69.2664 86.978 69.1891 87.1021 69.0655 87.1952C68.9419 87.2729 68.8337 87.3039 68.6947 87.2573C68.5556 87.2108 68.4011 87.0866 68.2466 86.8848C68.1384 86.7451 68.0457 86.6675 67.9839 86.652C67.8758 86.621 67.7831 86.6831 67.7213 86.8383L67.6904 86.9314L67.4122 86.8072Z" fill="#37210C"/>
<path d="M71.4758 94.5055C70.9659 94.3813 70.6415 94.0244 70.5024 93.4501C70.3633 92.8758 70.4097 92.1153 70.626 91.1996C70.8423 90.2839 71.1359 89.5854 71.5222 89.1043C71.9084 88.6231 72.3411 88.4524 72.82 88.5611C73.2836 88.6697 73.5771 89.0112 73.7316 89.5699C73.8862 90.1287 73.8398 90.8892 73.608 91.867C73.3763 92.8603 73.0673 93.5743 72.681 94.0088C72.3256 94.4434 71.9084 94.6142 71.4758 94.5055ZM71.5222 94.102C71.6303 94.133 71.7539 94.0864 71.8775 93.9623C72.0011 93.8381 72.1557 93.4656 72.3565 92.8293C72.5419 92.1929 72.7119 91.6031 72.8355 91.0754C72.9436 90.5943 73.0209 90.1907 73.0364 89.8648C73.0518 89.5389 73.0364 89.3216 72.99 89.2129C72.9436 89.1043 72.8664 89.0422 72.7582 89.0112C72.6655 88.9957 72.5728 89.0112 72.4801 89.0577C72.3874 89.1043 72.3102 89.2129 72.2175 89.3837C72.1402 89.5544 72.0166 89.8959 71.8621 90.408C71.7076 90.9202 71.5685 91.4634 71.4295 92.0222C71.2595 92.7206 71.1977 93.2328 71.2132 93.5587C71.2286 93.8692 71.3368 94.0554 71.5222 94.102Z" fill="#37210C"/>
<path d="M80.8854 95.8713L78.2897 95.6385C78.2279 95.6385 78.197 95.6075 78.2124 95.5454L78.2279 95.3747C78.2279 95.3281 78.2742 95.266 78.3669 95.2039C78.4442 95.1574 78.4905 95.0642 78.506 94.9401L78.9077 90.4391C78.9232 90.3149 78.8768 90.2063 78.7996 90.1287C78.7377 90.0821 78.7068 90.02 78.7223 89.9734L78.7377 89.7872C78.7377 89.7406 78.7686 89.7251 78.8305 89.7251L80.7773 89.8958C80.8082 89.8958 80.8854 89.8958 80.9781 89.8958C81.0708 89.8958 81.1172 89.8958 81.1481 89.8958C81.2253 89.8958 81.2717 89.9269 81.2717 89.9734L81.179 91.0909C81.179 91.153 81.1635 91.1841 81.1481 91.1996C81.1326 91.2151 81.1017 91.2151 81.0554 91.2151L80.9163 91.1996C80.8545 91.1996 80.8236 91.153 80.8236 91.0909C80.8082 90.8892 80.7773 90.7184 80.7155 90.5632C80.6537 90.4235 80.5146 90.3304 80.2983 90.3149L79.8193 90.2683L79.6339 92.4257L79.8039 92.4412C79.912 92.4568 79.9893 92.4412 80.0356 92.3947C80.082 92.3636 80.1438 92.224 80.221 92.0222C80.2519 91.9601 80.2674 91.9135 80.2674 91.9135C80.2828 91.9135 80.2983 91.898 80.3292 91.9135L80.4991 91.9291C80.561 91.9291 80.5918 91.9756 80.5918 92.0377L80.4682 93.4656C80.4682 93.5277 80.4373 93.5587 80.3755 93.5432L80.2056 93.5277C80.1747 93.5277 80.1438 93.5122 80.1283 93.4967C80.1129 93.4811 80.0974 93.419 80.082 93.3104C80.0511 93.1242 80.0202 93.0155 79.9584 92.9689C79.912 92.9224 79.8348 92.8913 79.7421 92.8913L79.5875 92.8758L79.3712 95.2815L79.8811 95.3281C80.0665 95.3436 80.2056 95.3126 80.2828 95.235C80.3601 95.1574 80.4837 94.909 80.6227 94.521C80.6536 94.4279 80.7 94.3969 80.7773 94.3969L80.9472 94.4124C81.009 94.4124 81.0399 94.4589 81.0399 94.521L80.8854 95.8713Z" fill="#37210C"/>
<path d="M86.8494 90.408L86.9885 92.643L87.2357 92.6275C87.3284 92.6275 87.4057 92.5964 87.4366 92.5499C87.4675 92.5033 87.5138 92.4102 87.5447 92.2705C87.5756 92.1619 87.5911 92.1153 87.5911 92.0998C87.6065 92.0843 87.6374 92.0687 87.6838 92.0687L87.8537 92.0532C87.9155 92.0532 87.9464 92.0843 87.9619 92.1463L88.0391 93.4656C88.0391 93.5277 88.0237 93.5587 87.9619 93.5587L87.7765 93.5742C87.7301 93.5742 87.6992 93.5742 87.6838 93.5587C87.6683 93.5432 87.6529 93.4967 87.622 93.419C87.5602 93.2483 87.4984 93.1552 87.452 93.1241C87.3902 93.0931 87.3284 93.0776 87.2666 93.0776L87.0194 93.0931L87.143 95.1574C87.1584 95.297 87.2048 95.3902 87.2975 95.4523C87.3593 95.4988 87.4057 95.5454 87.4057 95.5919L87.4211 95.7627C87.4211 95.8248 87.3902 95.8558 87.3284 95.8558L86.1387 95.9334C86.0769 95.9334 86.0614 95.9179 86.046 95.8558L86.0305 95.6695C86.0305 95.6075 86.0614 95.5609 86.1232 95.5143C86.2159 95.4367 86.2623 95.3436 86.2468 95.2039L85.9687 90.6874C85.9533 90.5632 85.9069 90.4546 85.7988 90.3925C85.7215 90.3459 85.6906 90.2994 85.6906 90.2528L85.6752 90.0821C85.6752 90.02 85.6906 89.989 85.7524 89.989L87.7147 89.8648C87.7765 89.8648 87.8692 89.8493 87.9928 89.8338C88.0546 89.8182 88.1009 89.8182 88.1164 89.8182C88.1782 89.8182 88.2091 89.8182 88.2245 89.8338C88.24 89.8493 88.24 89.8803 88.2554 89.9269L88.3172 91.0599C88.3172 91.122 88.2864 91.1685 88.2091 91.1685L88.0546 91.1841C88.0082 91.1841 87.9773 91.1841 87.9619 91.1685C87.9464 91.153 87.931 91.0909 87.9001 90.9823C87.8383 90.734 87.761 90.5632 87.6529 90.4701C87.5447 90.3925 87.4057 90.3459 87.2048 90.3615L86.8494 90.408Z" fill="#37210C"/>
<path d="M93.3697 95.1419L90.7894 95.5454C90.7276 95.5609 90.6967 95.5299 90.6813 95.4678L90.6504 95.2971C90.6349 95.2505 90.6813 95.1729 90.7431 95.1108C90.8049 95.0487 90.8358 94.9401 90.8049 94.8159L90.125 90.346C90.1096 90.2218 90.0478 90.1287 89.9396 90.0666C89.8778 90.0355 89.8315 89.989 89.816 89.9269L89.7851 89.7407C89.7851 89.6941 89.8005 89.663 89.8624 89.6475L91.7937 89.3526C91.8246 89.3526 91.9019 89.3371 91.9946 89.3061C92.0873 89.2906 92.1337 89.275 92.1646 89.275C92.2418 89.2595 92.2882 89.275 92.3036 89.3216L92.4736 90.4236C92.489 90.4856 92.489 90.5167 92.4736 90.5322C92.4581 90.5477 92.4272 90.5632 92.3809 90.5632L92.2418 90.5788C92.18 90.5943 92.1491 90.5633 92.1182 90.4856C92.0564 90.2994 91.9791 90.1287 91.8864 90.0045C91.7937 89.8803 91.6392 89.8338 91.4229 89.8648L90.9439 89.9424L91.2684 92.0843L91.4384 92.0532C91.5465 92.0377 91.6238 92.0067 91.6547 91.9601C91.6856 91.9136 91.7165 91.7739 91.7474 91.5411C91.7628 91.4634 91.7628 91.4324 91.7783 91.4169C91.7783 91.4014 91.8092 91.4014 91.8401 91.4014L92.0101 91.3703C92.0719 91.3548 92.1182 91.3858 92.1182 91.4479L92.3345 92.8758C92.35 92.9379 92.3191 92.969 92.2573 92.9845L92.0873 93.0155C92.0564 93.0155 92.0255 93.0155 92.0101 93C91.9946 92.9845 91.9637 92.9224 91.9174 92.8293C91.8401 92.6585 91.7783 92.5499 91.7165 92.5189C91.6547 92.4878 91.5774 92.4723 91.4847 92.4878L91.3302 92.5033L91.701 94.8935L92.2109 94.8159C92.3963 94.7849 92.5199 94.7228 92.5817 94.6142C92.6435 94.521 92.6899 94.2572 92.7363 93.8381C92.7517 93.745 92.7826 93.6984 92.8444 93.6829L92.9989 93.6519C93.0607 93.6364 93.0916 93.6674 93.1071 93.7295L93.3697 95.1419Z" fill="#37210C"/>
<path d="M96.2745 93.7915C96.3054 93.9157 96.3672 94.0088 96.4753 94.0554C96.5526 94.0864 96.5989 94.1175 96.5989 94.1796L96.6453 94.3503C96.6608 94.4124 96.6299 94.4434 96.568 94.4589L95.4092 94.7383C95.3474 94.7538 95.3165 94.7383 95.3165 94.6762L95.2702 94.5055C95.2547 94.4434 95.2702 94.3968 95.332 94.3348C95.4092 94.2416 95.4401 94.133 95.4092 94.0088L94.374 89.6165C94.3431 89.4923 94.2813 89.3992 94.1732 89.3681C94.0959 89.3371 94.0495 89.2906 94.0341 89.244L94.0032 89.0733C93.9878 89.0112 94.0187 88.9801 94.0805 88.9646L95.2393 88.6852C95.3011 88.6697 95.332 88.6852 95.332 88.7473L95.3783 88.9181C95.3938 88.9801 95.3783 89.0267 95.3165 89.0888C95.2393 89.1819 95.2084 89.2905 95.2393 89.4147L96.2745 93.7915Z" fill="#37210C"/>
<path d="M99.4419 92.5499L98.1904 88.5611C98.144 88.4369 98.0822 88.3593 97.9586 88.3283C97.8814 88.3127 97.835 88.2662 97.8196 88.2041L97.7732 88.0489C97.7578 87.9868 97.7732 87.9558 97.835 87.9402L98.9629 87.5833C99.0093 87.5677 99.0402 87.5833 99.0556 87.6298L99.102 87.8006C99.1174 87.8626 99.102 87.9092 99.0556 87.9713C98.9784 88.0644 98.9629 88.1731 99.0093 88.2972L100.122 91.8515C100.261 92.3016 100.261 92.7051 100.122 93.0465C99.9827 93.388 99.7355 93.6053 99.411 93.7139C99.1638 93.7915 98.932 93.7915 98.7466 93.6984C98.5612 93.6208 98.4376 93.4811 98.3758 93.3104C98.3449 93.1862 98.3449 93.0776 98.4067 92.9689C98.4685 92.8603 98.5458 92.7827 98.6848 92.7516C98.793 92.7206 98.8857 92.7206 98.9629 92.7516C99.0402 92.7827 99.102 92.8603 99.1329 92.9534C99.1483 93 99.1483 93.0465 99.1638 93.1241C99.1638 93.1552 99.1792 93.1862 99.1792 93.2173C99.2101 93.3104 99.2719 93.3414 99.3801 93.3104C99.5655 93.2483 99.581 93 99.4419 92.5499Z" fill="#37210C"/>
<path d="M104.355 91.9446C103.861 92.1464 103.397 92.0532 102.949 91.6652C102.501 91.2772 102.099 90.6409 101.744 89.7717C101.389 88.9025 101.219 88.1575 101.25 87.5522C101.281 86.9469 101.528 86.5434 101.991 86.3416C102.424 86.1554 102.872 86.2485 103.32 86.621C103.768 86.9935 104.185 87.6298 104.556 88.5611C104.942 89.5078 105.112 90.2684 105.051 90.8426C105.004 91.3859 104.772 91.7739 104.355 91.9446ZM104.17 91.5721C104.278 91.5255 104.34 91.4169 104.371 91.2462C104.402 91.0754 104.309 90.6719 104.093 90.0511C103.876 89.4302 103.66 88.856 103.459 88.3438C103.274 87.8782 103.088 87.5212 102.903 87.2418C102.718 86.9624 102.578 86.8072 102.486 86.7452C102.378 86.6831 102.285 86.6831 102.177 86.7141C102.084 86.7452 102.022 86.8228 101.991 86.9159C101.945 87.009 101.945 87.1487 101.976 87.335C102.007 87.5212 102.115 87.8627 102.285 88.3748C102.455 88.887 102.656 89.3992 102.872 89.9424C103.15 90.6098 103.382 91.0599 103.583 91.3083C103.799 91.5566 103.984 91.6497 104.17 91.5721Z" fill="#37210C"/>
<path d="M106.148 85.3173L105.993 85.1C105.947 85.0379 105.916 84.9913 105.916 84.9758C105.9 84.9603 105.916 84.9292 105.931 84.8982L106.364 84.3395C106.364 84.3239 106.379 84.3239 106.395 84.3239C106.426 84.3084 106.457 84.3239 106.488 84.355L109.779 88.468C109.84 88.5456 109.887 88.5921 109.933 88.6232C109.979 88.6542 110.041 88.6542 110.134 88.6697C110.196 88.6697 110.242 88.7008 110.273 88.7318L110.35 88.887C110.381 88.9336 110.366 88.9802 110.335 88.9957L109.207 89.5855C109.145 89.6165 109.099 89.601 109.068 89.5544L108.991 89.3992C108.96 89.3526 108.975 89.2906 109.037 89.213C109.099 89.1198 109.114 89.0267 109.068 88.9491C109.052 88.9336 109.037 88.9025 109.021 88.8715L108.512 88.2352L107.631 88.7008L107.847 89.4613C107.863 89.4923 107.863 89.5234 107.878 89.5234C107.909 89.5855 108.002 89.632 108.141 89.6631C108.233 89.6786 108.295 89.7096 108.311 89.7562L108.388 89.9114C108.419 89.958 108.403 90.0045 108.326 90.0511L107.615 90.4236C107.538 90.4701 107.476 90.4546 107.461 90.4081L107.368 90.2373C107.337 90.1908 107.353 90.1442 107.384 90.0821C107.445 89.9735 107.461 89.8493 107.415 89.6941L106.148 85.3173ZM106.936 86.2951L107.476 88.2196L108.172 87.8471L106.936 86.2951Z" fill="#37210C"/>
<path d="M109.13 83.1133L109.021 82.9426C109.006 82.9116 109.021 82.8805 109.068 82.8495L109.902 82.3218C110.381 82.0269 110.891 81.9648 111.463 82.151C112.034 82.3373 112.591 82.8495 113.131 83.7186C113.41 84.1687 113.626 84.6188 113.796 85.1C113.95 85.5656 113.997 85.9847 113.919 86.3416C113.842 86.6986 113.549 87.0401 113.039 87.366L112.22 87.8937C112.173 87.9248 112.158 87.9092 112.127 87.8782L112.019 87.7075C111.988 87.6609 111.988 87.5988 112.019 87.5212C112.065 87.4126 112.05 87.3039 111.973 87.1953L109.578 83.3772C109.516 83.2685 109.423 83.2064 109.315 83.2064C109.222 83.1909 109.161 83.1754 109.13 83.1133ZM110.18 82.6943L112.853 86.9625C113.07 86.8228 113.209 86.6676 113.255 86.4968C113.301 86.3261 113.255 86.0312 113.085 85.6587C112.915 85.2707 112.699 84.8516 112.405 84.4015C112.096 83.9204 111.834 83.5324 111.617 83.284C111.401 83.0202 111.216 82.8339 111.061 82.7408C110.906 82.6322 110.767 82.5856 110.644 82.5701C110.52 82.5546 110.366 82.5856 110.18 82.6943Z" fill="#37210C"/>
<path d="M114.182 80.3506L113.997 80.1644C113.935 80.1023 113.904 80.0713 113.904 80.0557C113.889 80.0402 113.889 80.0092 113.904 79.9626L114.244 79.3418C114.244 79.3263 114.259 79.3263 114.259 79.3108C114.29 79.2952 114.321 79.2952 114.352 79.3263L118.23 82.8805C118.307 82.9426 118.354 82.9891 118.4 83.0047C118.446 83.0202 118.508 83.0202 118.601 83.0202C118.663 83.0202 118.709 83.0357 118.74 83.0667L118.833 83.2064C118.864 83.253 118.864 83.2996 118.833 83.3306L117.813 84.0911C117.751 84.1377 117.705 84.1222 117.674 84.0756L117.581 83.9359C117.55 83.8893 117.55 83.8273 117.597 83.7496C117.643 83.641 117.643 83.5634 117.581 83.4858C117.566 83.4703 117.55 83.4392 117.519 83.4237L116.917 82.8805L116.113 83.4703L116.438 84.1842C116.453 84.2153 116.469 84.2308 116.469 84.2463C116.515 84.3084 116.608 84.3394 116.747 84.355C116.84 84.355 116.901 84.386 116.932 84.417L117.025 84.5567C117.056 84.6033 117.056 84.6498 116.994 84.6964L116.361 85.162C116.283 85.2086 116.237 85.2241 116.206 85.162L116.083 85.0068C116.052 84.9603 116.052 84.9137 116.067 84.8516C116.113 84.743 116.098 84.6033 116.036 84.4636L114.182 80.3506ZM115.109 81.1732L115.943 82.9891L116.577 82.5235L115.109 81.1732Z" fill="#37210C"/>
<path d="M83.5121 71.4573C83.5121 71.9539 83.5121 72.6989 83.5121 72.792C82.6005 72.792 82.585 71.9074 82.585 71.9074V71.5814C82.585 71.4418 82.4614 71.3176 82.3223 71.3176H81.6116C81.4571 71.3176 81.3489 71.4418 81.3489 71.5814V74.2665C81.3489 74.4217 81.4725 74.5304 81.6116 74.5459H81.6889C81.8279 74.5304 81.9515 74.4217 81.9515 74.2665V74.251C81.9515 74.251 81.967 73.7233 82.5541 73.7233C82.5541 73.7854 82.5541 74.22 82.5541 74.5304C82.5541 74.5614 82.5541 74.608 82.5541 74.6235C82.5541 74.7787 82.5541 74.8718 82.5541 74.8718V74.9805C82.5541 75.3064 82.5541 75.7254 82.5541 75.7875C81.9515 75.7875 81.9515 75.2754 81.9515 75.2754V75.2598C81.9515 75.1046 81.8279 74.996 81.6889 74.9805H81.6116C81.4571 74.996 81.3489 75.1046 81.3489 75.2598V77.9759C81.3489 78.4416 81.5652 78.364 81.5652 78.5812H81.0399C80.9472 78.5812 80.8854 78.5036 80.8854 78.426C80.8854 78.5192 80.8082 78.5812 80.7309 78.5812H80.2056C80.2056 78.3484 80.4219 78.4416 80.4219 77.9915V75.2133C80.4064 75.027 80.2983 74.8563 80.1438 74.7632C80.221 74.7166 80.3292 74.6856 80.4219 74.6856V71.3797C80.4064 70.9296 80.2056 71.0227 80.2056 70.7899H80.7309C80.8082 70.7899 80.8854 70.8675 80.8854 70.9606C80.8854 70.8675 80.9627 70.7899 81.0399 70.7899H83.7284C83.7284 71.0848 83.5121 70.9917 83.5121 71.4573ZM80.9318 74.7477C80.9318 74.5614 80.9318 74.3907 80.9318 74.2044C80.9318 74.1113 80.9163 74.0337 80.9163 73.9406C80.9163 73.8475 80.9163 73.7699 80.9163 73.6767C80.9009 73.3508 80.9009 73.0248 80.9009 72.761C80.8854 72.6368 80.8854 72.4972 80.8854 72.3885C80.8854 72.2799 80.87 72.1867 80.87 72.1091C80.87 72.0315 80.8545 71.9695 80.8545 71.9229C80.8545 71.8763 80.8545 71.8453 80.8545 71.8453C80.8545 71.8453 80.8391 71.8608 80.8391 71.9229C80.8391 71.9695 80.8236 72.016 80.8236 72.1091C80.8236 72.2023 80.8082 72.2799 80.8082 72.3885C80.7927 72.4972 80.7927 72.6213 80.7927 72.761C80.7773 73.0248 80.7773 73.3508 80.7773 73.6767C80.7773 73.7699 80.7773 73.8475 80.7773 73.9406C80.7773 74.0337 80.7773 74.1113 80.7618 74.2044C80.7618 74.3907 80.7618 74.5614 80.7618 74.7477C80.7618 74.9339 80.7618 75.1046 80.7618 75.2909C80.7618 75.3374 80.7773 75.384 80.7773 75.415C80.7773 75.4461 80.7773 75.5082 80.7773 75.5392C80.7773 75.6323 80.7773 75.7099 80.7773 75.8031C80.7773 75.9738 80.7927 76.129 80.7927 76.2842C80.7927 76.4394 80.8082 76.5791 80.8082 76.7188C80.8236 76.7964 80.8236 76.8429 80.8236 76.905C80.8236 76.9671 80.8391 77.0292 80.8391 77.0913C80.8391 77.1999 80.8545 77.293 80.8545 77.3706C80.8545 77.4482 80.87 77.5103 80.87 77.5569C80.87 77.6034 80.8854 77.6345 80.8854 77.6345C80.8854 77.6345 80.8854 77.619 80.8854 77.5569C80.8854 77.5103 80.9009 77.4638 80.9009 77.3706C80.9009 77.293 80.9163 77.1999 80.9163 77.0913C80.9318 77.0292 80.9318 76.9671 80.9318 76.905C80.9318 76.8429 80.9472 76.7808 80.9472 76.7188C80.9472 76.5791 80.9627 76.4394 80.9627 76.2842C80.9627 76.129 80.9781 75.9738 80.9781 75.8031C80.9781 75.7099 80.9781 75.6323 80.9781 75.5392C80.9781 75.4926 80.9781 75.4461 80.9936 75.415C80.9936 75.3685 80.9936 75.3219 80.9936 75.2909C80.9318 75.1046 80.9318 74.9184 80.9318 74.7477Z" fill="#37210C"/>
<path d="M84.2073 77.3862C84.0528 77.4638 83.9601 77.619 83.9447 77.8052V80.9559C83.9292 81.7475 83.2957 82.3683 82.5077 82.3683C81.1326 82.3683 81.2717 81.049 82.0596 81.049C82.3378 81.049 82.5541 81.2663 82.5541 81.5457C82.5541 81.763 82.3996 81.9648 82.1987 82.0269C82.5232 82.151 82.8322 81.9027 82.9403 81.7009C83.0639 81.4681 83.064 81.1422 83.064 80.9404V77.8207C83.0485 77.65 82.9558 77.4948 82.8167 77.4017C82.894 77.3706 82.9713 77.3396 83.064 77.3396V74.3131C83.064 73.8785 82.8631 73.9716 82.8631 73.7543H83.3421C83.4193 73.7543 83.4966 73.8319 83.4966 73.9095C83.4966 73.8319 83.5584 73.7543 83.6511 73.7543H84.1455C84.1455 73.9716 83.9447 73.8785 83.9447 74.3131V77.3396C84.0374 77.3086 84.1301 77.3396 84.2073 77.3862ZM83.5738 77.6345C83.5738 77.4482 83.5738 77.2775 83.5738 77.0913C83.5738 76.9982 83.5738 76.905 83.5738 76.8274C83.5738 76.7498 83.5738 76.6567 83.5738 76.5636C83.5584 76.2376 83.5584 75.9117 83.5429 75.6323C83.5429 75.5082 83.5275 75.3685 83.5275 75.2598C83.5275 75.1512 83.512 75.0581 83.512 74.9805C83.4966 74.9029 83.4966 74.8408 83.4966 74.7942C83.4811 74.7477 83.4811 74.7321 83.4811 74.7321C83.4811 74.7321 83.4811 74.7477 83.4811 74.7942C83.4811 74.8408 83.4657 74.9029 83.4657 74.9805C83.4502 75.0581 83.4502 75.1512 83.4502 75.2598C83.4502 75.3685 83.4348 75.4926 83.4348 75.6323C83.4193 75.9117 83.4193 76.2221 83.4193 76.5636C83.4193 76.6412 83.4039 76.7343 83.4039 76.8274C83.4039 76.905 83.4039 76.9982 83.4039 77.0913C83.4039 77.262 83.4039 77.4482 83.4039 77.6345C83.4039 77.8052 83.4039 77.9915 83.4039 78.1777C83.4039 78.2243 83.4039 78.2553 83.4039 78.3019C83.4039 78.3484 83.4039 78.395 83.4039 78.426C83.4039 78.5192 83.4193 78.5968 83.4193 78.6899C83.4193 78.8606 83.4193 79.0158 83.4348 79.1866C83.4348 79.3418 83.4502 79.4815 83.4502 79.6211C83.4502 79.6832 83.4502 79.7453 83.4657 79.8229C83.4657 79.885 83.4657 79.9471 83.4657 79.9936C83.4811 80.1023 83.4811 80.1954 83.4811 80.273C83.4811 80.3506 83.4966 80.4127 83.4966 80.4437C83.4966 80.4903 83.4966 80.5058 83.4966 80.5058C83.4966 80.5058 83.4966 80.4903 83.512 80.4437C83.512 80.4127 83.512 80.3351 83.5275 80.273C83.5275 80.1954 83.5429 80.1023 83.5429 79.9936C83.5429 79.9316 83.5429 79.885 83.5584 79.8229C83.5584 79.7608 83.5584 79.6988 83.5584 79.6211C83.5738 79.4815 83.5738 79.3418 83.5738 79.1866C83.5738 79.0314 83.5738 78.8606 83.5893 78.6899C83.5893 78.6123 83.5893 78.5192 83.5893 78.426C83.5893 78.395 83.5893 78.3484 83.5893 78.3019C83.5893 78.2553 83.5893 78.2243 83.5893 78.1777C83.5738 77.9915 83.5738 77.8207 83.5738 77.6345Z" fill="#37210C"/>
<path d="M47.326 23.4984L47.1715 23.5915C47.1252 23.6225 47.0788 23.607 47.0325 23.5604L46.2754 22.3343C46.229 22.2567 46.229 22.1946 46.2908 22.1636L46.4299 22.0704C46.4608 22.0549 46.4917 22.0394 46.5226 22.0549C46.5535 22.0704 46.6153 22.1481 46.7389 22.2877C47.1715 22.7999 47.5578 22.9551 47.8668 22.7689C48.0368 22.6602 48.114 22.5205 48.114 22.3188C48.114 22.117 48.0677 21.9152 47.9286 21.7135C47.805 21.4962 47.6351 21.341 47.4188 21.2168C47.2024 21.0926 46.8625 20.984 46.3835 20.8443C46.0127 20.7512 45.7501 20.6581 45.5801 20.596C45.4101 20.5184 45.2402 20.4253 45.0857 20.3011C44.9312 20.1769 44.7921 20.0062 44.6685 19.8199C44.4522 19.463 44.3595 19.106 44.3904 18.7645C44.4213 18.4231 44.5758 18.1748 44.8385 18.004C44.9621 17.9264 45.1011 17.8799 45.2865 17.8643C45.3638 17.8643 45.4101 17.8488 45.441 17.8333C45.4719 17.8178 45.4874 17.8023 45.5028 17.7557C45.5183 17.7247 45.5492 17.6936 45.5801 17.6781L45.7037 17.6005C45.7655 17.5539 45.8119 17.5694 45.8582 17.6315L46.5226 18.7025C46.5535 18.749 46.5535 18.7956 46.5072 18.8266L46.3526 18.9197C46.3063 18.9508 46.2754 18.9508 46.2599 18.9353C46.229 18.9197 46.1672 18.8577 46.0591 18.7335C45.6728 18.33 45.3638 18.1903 45.132 18.33C45.0084 18.4076 44.9466 18.5162 44.9312 18.6714C44.9157 18.8266 44.9621 18.9663 45.0393 19.106C45.132 19.2612 45.2865 19.4009 45.4719 19.5095C45.6574 19.6182 45.9664 19.7268 46.399 19.8355C46.9398 19.9752 47.3569 20.1304 47.6505 20.3166C47.9441 20.5029 48.1758 20.7357 48.3613 21.0461C48.6085 21.4496 48.7166 21.8532 48.6548 22.2567C48.593 22.6447 48.4231 22.9396 48.1295 23.1103C47.9904 23.1879 47.8205 23.25 47.6042 23.2966C47.5269 23.3121 47.4806 23.3276 47.4651 23.3276C47.4497 23.3431 47.4188 23.3742 47.4033 23.4052C47.3569 23.4828 47.3415 23.4984 47.326 23.4984Z" fill="#37210C"/>
<path d="M49.3347 16.2968L49.1802 16.0795C49.1338 16.0174 49.1029 15.9708 49.1029 15.9708C49.0875 15.9553 49.1029 15.9243 49.1184 15.8932L49.5355 15.3189C49.5355 15.3034 49.551 15.3034 49.5664 15.3034C49.5973 15.2879 49.6282 15.2879 49.6591 15.3345L53.012 19.3854C53.0738 19.463 53.1201 19.5095 53.1665 19.5251C53.2128 19.5406 53.2746 19.5561 53.3674 19.5716C53.4292 19.5716 53.4755 19.6027 53.5064 19.6337L53.5837 19.7889C53.6146 19.8355 53.5991 19.882 53.5682 19.8976L52.4558 20.5029C52.394 20.5339 52.3476 20.5184 52.3167 20.4718L52.2394 20.3166C52.2085 20.2701 52.224 20.208 52.2703 20.1304C52.3321 20.0372 52.3476 19.9441 52.3012 19.8665C52.2858 19.851 52.2703 19.82 52.2549 19.7889L51.7296 19.1681L50.8489 19.6492L51.0806 20.3942C51.0961 20.4253 51.0961 20.4563 51.1115 20.4563C51.1424 20.5184 51.2351 20.5649 51.3742 20.596C51.4669 20.6115 51.5287 20.6425 51.5442 20.6891L51.6214 20.8443C51.6523 20.8909 51.6369 20.9374 51.5751 20.984L50.8798 21.3565C50.8025 21.4031 50.7407 21.3875 50.7253 21.341L50.6326 21.1703C50.6017 21.1237 50.6171 21.0771 50.648 21.015C50.7098 20.9064 50.7253 20.7822 50.6789 20.627L49.3347 16.2968ZM50.1536 17.259L50.7253 19.1681L51.4205 18.7956L50.1536 17.259Z" fill="#37210C"/>
<path d="M55.6541 15.5052C56.4575 15.3965 57.0138 15.6759 57.3073 16.3433C57.4464 16.6382 57.4927 16.9176 57.4618 17.2125C57.4309 17.5073 57.3073 17.7557 57.1219 17.973C56.9365 18.1903 56.7048 18.361 56.4575 18.4696L55.4069 18.9663C55.3605 18.9818 55.3296 18.9663 55.3142 18.9352L55.2369 18.7645C55.2215 18.718 55.2215 18.6559 55.2678 18.5783C55.3296 18.4696 55.3296 18.361 55.2678 18.2523L53.3674 14.1549C53.3056 14.0307 53.2283 13.9686 53.1047 13.9531C53.0274 13.9376 52.9811 13.9065 52.9502 13.86L52.8729 13.7048C52.8575 13.6582 52.8729 13.6117 52.9193 13.5961L54.0163 13.0839C54.418 12.8977 54.8043 12.8667 55.1751 12.9908C55.5305 13.115 55.8086 13.3788 55.9786 13.7513C56.1022 14.0307 56.1485 14.3101 56.1176 14.6205C56.1022 14.9154 55.9322 15.2103 55.6541 15.5052ZM54.0472 13.5806L54.9743 15.5828C55.4687 15.35 55.5459 14.8999 55.2369 14.2325C55.1288 13.9841 54.9897 13.7979 54.8506 13.6582C54.7116 13.534 54.5725 13.4564 54.4644 13.4564C54.3562 13.472 54.2172 13.503 54.0472 13.5806ZM55.1597 15.9863L56.1485 18.1282C56.3339 18.035 56.473 17.9264 56.5657 17.8022C56.6584 17.6781 56.6893 17.5384 56.6739 17.3677C56.6584 17.1814 56.5966 16.9641 56.473 16.7158C56.303 16.3433 56.1176 16.095 55.9013 15.9708C55.7004 15.8466 55.4532 15.8466 55.1597 15.9863Z" fill="#37210C"/>
<path d="M61.4018 16.4364C60.9074 16.6227 60.4439 16.5296 60.0112 16.126C59.5786 15.7225 59.1923 15.0861 58.8524 14.2015C58.5125 13.3168 58.358 12.5718 58.3889 11.951C58.4352 11.3457 58.6825 10.9421 59.146 10.7559C59.5786 10.5851 60.0267 10.6938 60.4593 11.0663C60.9074 11.4388 61.3091 12.0907 61.6645 13.0219C62.0353 13.9687 62.1898 14.7292 62.1125 15.3034C62.0662 15.8932 61.819 16.2657 61.4018 16.4364ZM61.2164 16.0639C61.3246 16.0174 61.3864 15.9087 61.4327 15.738C61.4791 15.5673 61.3864 15.1637 61.1855 14.5274C60.9846 13.8911 60.7838 13.3168 60.5829 12.8046C60.3975 12.339 60.2275 11.9665 60.0576 11.6871C59.8876 11.4077 59.7486 11.237 59.6559 11.1749C59.5632 11.1128 59.455 11.0973 59.3468 11.1439C59.2541 11.1749 59.1923 11.237 59.146 11.3301C59.0996 11.4233 59.0996 11.5629 59.1151 11.7492C59.146 11.9354 59.2387 12.2924 59.4086 12.7891C59.5786 13.3013 59.764 13.829 59.9649 14.3567C60.2275 15.0241 60.4593 15.4897 60.6602 15.738C60.861 15.9863 61.031 16.126 61.2164 16.0639Z" fill="#37210C"/>
<path d="M64.94 12.1372L65.5581 14.1083C65.6044 14.2325 65.6662 14.3101 65.7898 14.3567C65.8671 14.3722 65.9135 14.4187 65.9289 14.4653L65.9753 14.636C65.9907 14.6981 65.9753 14.7292 65.9135 14.7447L64.7855 15.1016C64.7392 15.1172 64.6928 15.1016 64.6774 15.0551L64.631 14.8844C64.6156 14.8378 64.631 14.7757 64.6774 14.7136C64.7546 14.6205 64.7701 14.5119 64.7237 14.3877L63.3795 10.0729C63.3331 9.94877 63.2713 9.87117 63.1477 9.84013C63.0705 9.82461 63.0241 9.77805 63.0087 9.71596L62.9623 9.56076C62.9469 9.49867 62.9623 9.46763 63.0241 9.45211L63.9666 9.15722C64.5074 8.98649 64.9555 8.98649 65.3109 9.1417C65.6662 9.2969 65.9135 9.60732 66.068 10.0574C66.2997 10.7869 66.1143 11.3612 65.4963 11.7957C65.728 11.8268 65.9134 11.8889 66.0525 11.982C66.1916 12.0751 66.3306 12.2303 66.4542 12.4476L67.0723 13.5185C67.1495 13.6582 67.2113 13.7513 67.2731 13.7824C67.3195 13.829 67.3967 13.86 67.474 13.8755C67.5049 13.8755 67.5204 13.9066 67.5358 13.9376L67.5976 14.1394C67.6131 14.1859 67.5976 14.2325 67.5358 14.248L66.8096 14.4808C66.7323 14.4963 66.686 14.4808 66.6396 14.4032L65.5117 12.5563C65.3881 12.3545 65.28 12.2303 65.2027 12.1838C65.1255 12.1217 65.0327 12.1062 64.94 12.1372ZM64.1366 9.56076L64.801 11.7026C65.0636 11.625 65.2336 11.4698 65.2954 11.268C65.3727 11.0663 65.3418 10.7559 65.2027 10.3213C65.0791 9.90221 64.9246 9.65388 64.7546 9.56076C64.6001 9.49867 64.3993 9.48315 64.1366 9.56076Z" fill="#37210C"/>
<path d="M75.0758 12.4942L72.5264 12.9753C72.4646 12.9909 72.4337 12.9598 72.4183 12.8977L72.3874 12.727C72.3719 12.6804 72.4028 12.6028 72.4801 12.5252C72.5419 12.4476 72.5573 12.3545 72.5419 12.2303L71.6921 7.82246C71.6612 7.6983 71.5994 7.60517 71.4912 7.55861C71.414 7.52757 71.3831 7.48101 71.3676 7.41892L71.3367 7.23268C71.3213 7.18611 71.3522 7.15507 71.414 7.13955L73.3299 6.76705C73.3608 6.76705 73.4226 6.75153 73.5307 6.72049C73.6234 6.68945 73.6698 6.68945 73.6852 6.67393C73.7625 6.65841 73.8089 6.67393 73.8243 6.72049L74.0406 7.82246C74.0561 7.88454 74.0561 7.91559 74.0406 7.93111C74.0252 7.94663 73.9943 7.96215 73.9479 7.96215L73.8089 7.99319C73.747 8.00871 73.7161 7.97767 73.6852 7.90007C73.6234 7.71382 73.5462 7.55861 73.438 7.43444C73.3453 7.31028 73.1908 7.26372 72.9745 7.31028L72.511 7.4034L72.9127 9.52974L73.0827 9.4987C73.1908 9.48318 73.2526 9.43661 73.2835 9.39005C73.3144 9.34349 73.3453 9.2038 73.3608 8.97099C73.3608 8.89339 73.3762 8.86235 73.3762 8.84683C73.3762 8.83131 73.4071 8.83131 73.438 8.81579L73.608 8.78474C73.6698 8.76922 73.7161 8.80027 73.7161 8.86235L73.9788 10.2747C73.9943 10.3368 73.9634 10.3679 73.9016 10.3834L73.7316 10.4144C73.7007 10.4144 73.6698 10.4144 73.6544 10.3989C73.6389 10.3834 73.608 10.3213 73.5616 10.2437C73.4844 10.073 73.4071 9.97984 73.3608 9.9488C73.299 9.91775 73.2217 9.91775 73.129 9.93328L72.9745 9.96432L73.4226 12.339L73.9325 12.2459C74.1179 12.2148 74.2415 12.1372 74.2878 12.0441C74.3496 11.9354 74.3805 11.6871 74.4114 11.2681C74.4269 11.1749 74.4578 11.1128 74.5196 11.1128L74.6741 11.0818C74.7359 11.0663 74.7668 11.0973 74.7823 11.1594L75.0758 12.4942Z" fill="#37210C"/>
<path d="M81.2562 11.8268C80.4682 11.5784 80.0201 10.6006 79.9274 8.92441C79.8811 7.94661 79.9583 7.18609 80.1901 6.64287C80.4218 6.08412 80.7772 5.80475 81.2716 5.77371C81.7661 5.74267 82.1678 5.991 82.4614 6.5187C82.755 7.04641 82.9249 7.77588 82.9867 8.72264C83.0176 9.23482 83.0022 9.68492 82.9558 10.0729C82.9095 10.461 82.8322 10.7714 82.724 11.0197C82.6159 11.268 82.4923 11.4543 82.3532 11.5784C82.2142 11.7026 82.0442 11.7957 81.8433 11.8578C82.0751 11.9199 82.3069 12.013 82.5232 12.1527C82.6777 12.2458 82.8167 12.2924 82.9249 12.2769C82.9404 12.2769 82.9867 12.2769 83.0331 12.2614C83.064 12.2614 83.0794 12.2614 83.0794 12.2614C83.1103 12.2614 83.1258 12.2769 83.1258 12.3079L83.1412 12.4786C83.1412 12.5407 83.0949 12.6183 82.9713 12.6804C82.8631 12.758 82.724 12.7891 82.585 12.8046C82.3378 12.8201 82.0905 12.6804 81.8279 12.401C81.5498 12.0906 81.3644 11.9044 81.2562 11.8268ZM81.5961 11.4388C81.7043 11.4388 81.8124 11.3456 81.8897 11.206C81.9824 11.0507 82.0287 10.6472 82.0287 9.97982C82.0287 9.31243 82.0133 8.70712 81.9824 8.1639C81.9515 7.66723 81.9051 7.2637 81.8279 6.93776C81.7506 6.62735 81.6734 6.41006 81.5961 6.33245C81.5189 6.23933 81.4262 6.20829 81.318 6.20829C81.2253 6.20829 81.148 6.25485 81.0708 6.33245C80.9935 6.41006 80.9472 6.53422 80.9163 6.72047C80.8854 6.90672 80.8699 7.2637 80.8699 7.80692C80.8699 8.35014 80.8854 8.90889 80.9163 9.48316C80.9626 10.1971 81.0244 10.7093 81.148 11.0197C81.2562 11.2991 81.4107 11.4543 81.5961 11.4388Z" fill="#37210C"/>
<path d="M87.9773 10.3834C87.9619 10.8335 87.8383 11.1904 87.5911 11.4388C87.3439 11.6871 87.0503 11.8113 86.6795 11.7957C86.3086 11.7802 85.9996 11.6405 85.7833 11.3767C85.5516 11.1128 85.4434 10.7714 85.4588 10.3678L85.5979 6.44111C85.5979 6.31694 85.5516 6.20829 85.4588 6.14621C85.397 6.09965 85.3661 6.03757 85.3661 5.99101V5.82028C85.3661 5.7582 85.397 5.72715 85.4743 5.74267L86.664 5.78924C86.7258 5.78924 86.7413 5.82028 86.7413 5.86684V6.03757C86.7413 6.09965 86.7104 6.14621 86.6331 6.19277C86.5404 6.25486 86.4786 6.34798 86.4786 6.48767L86.3395 10.4454C86.3241 10.9731 86.4786 11.237 86.834 11.2525C87.2202 11.268 87.4211 10.9576 87.4366 10.3368L87.5756 6.50319C87.5756 6.37902 87.5293 6.27038 87.4366 6.2083C87.3748 6.16173 87.3438 6.09965 87.3438 6.05309V5.88236C87.3438 5.82028 87.3748 5.78924 87.452 5.80476L88.3018 5.8358C88.3636 5.8358 88.3791 5.86684 88.3791 5.9134V6.08413C88.3791 6.14621 88.3482 6.19277 88.2709 6.23934C88.1782 6.30142 88.1164 6.39454 88.1164 6.53423L87.9773 10.3834Z" fill="#37210C"/>
<path d="M91.6701 6.90673V6.64288C91.6701 6.56527 91.6701 6.50319 91.6701 6.50319C91.6701 6.47215 91.701 6.45663 91.7319 6.44111L92.4117 6.22382C92.4272 6.22382 92.4272 6.22382 92.4426 6.22382C92.4735 6.22382 92.5044 6.25486 92.5044 6.30142L92.8752 11.5629C92.8752 11.6561 92.8907 11.7337 92.9216 11.7647C92.9371 11.8113 92.9834 11.8578 93.0607 11.9199C93.107 11.9665 93.1379 12.013 93.1379 12.0596L93.1225 12.2303C93.1225 12.2924 93.0916 12.3235 93.0452 12.3079L91.7937 12.1527C91.7319 12.1372 91.701 12.1062 91.701 12.0441L91.7164 11.8734C91.7164 11.8113 91.7628 11.7647 91.8555 11.7337C91.9636 11.6871 92.0254 11.625 92.0254 11.5319C92.0254 11.5009 92.0254 11.4698 92.0254 11.4388L91.9636 10.6317L90.9748 10.5075L90.7276 11.2525C90.7121 11.2836 90.7121 11.3146 90.7121 11.3301C90.6967 11.4077 90.743 11.5009 90.8512 11.594C90.913 11.6716 90.9439 11.7181 90.9439 11.7647L90.9284 11.9354C90.9284 11.9975 90.8821 12.0286 90.8048 12.013L90.0168 11.9199C89.9241 11.9044 89.8932 11.8734 89.8932 11.8113L89.9241 11.6095C89.9241 11.5629 89.9705 11.5164 90.0168 11.4853C90.125 11.4388 90.2022 11.3301 90.2641 11.1904L91.6701 6.90673ZM91.7782 8.16391L91.1448 10.0574L91.9327 10.1506L91.7782 8.16391Z" fill="#37210C"/>
<path d="M95.301 12.013L96.2744 7.60515C96.3053 7.48099 96.2744 7.37234 96.1972 7.27922C96.1354 7.21714 96.1199 7.17057 96.1354 7.10849L96.1663 6.93776C96.1817 6.87568 96.2126 6.86016 96.2744 6.87568L97.4333 7.13953C97.4951 7.15505 97.5105 7.18609 97.4951 7.23266L97.4642 7.40338C97.4487 7.46547 97.4024 7.51203 97.3406 7.52755C97.2324 7.57411 97.1706 7.65172 97.1397 7.77588L96.1199 12.4321L96.4289 12.5097C96.6144 12.5563 96.7689 12.5252 96.8925 12.4321C97.0161 12.339 97.1397 12.1527 97.2479 11.8889C97.2942 11.7802 97.3251 11.7337 97.3251 11.7181C97.3406 11.7026 97.356 11.7026 97.4024 11.7026L97.5723 11.7337C97.6341 11.7492 97.665 11.7802 97.6496 11.8423L97.356 13.1771L94.992 12.6494C94.9147 12.6339 94.8839 12.5873 94.8993 12.5097L94.9302 12.37C94.9457 12.3079 94.992 12.2769 95.0693 12.2458C95.1929 12.2303 95.2701 12.1372 95.301 12.013Z" fill="#37210C"/>
<path d="M100.462 13.3478C100.431 13.472 100.446 13.5806 100.508 13.6738C100.554 13.7358 100.57 13.7979 100.554 13.8445L100.508 14.0152C100.493 14.0773 100.446 14.0928 100.384 14.0773L99.2565 13.7358C99.2101 13.7203 99.1792 13.6893 99.1947 13.6272L99.241 13.4565C99.2565 13.4099 99.3028 13.3633 99.3801 13.3323C99.4882 13.3013 99.5655 13.2081 99.5964 13.084L100.894 8.75369C100.925 8.62953 100.91 8.52088 100.848 8.42776C100.802 8.36568 100.786 8.30359 100.802 8.25703L100.848 8.10182C100.863 8.03974 100.91 8.02422 100.971 8.03974L102.099 8.3812C102.146 8.39672 102.177 8.42776 102.161 8.48984L102.115 8.66057C102.099 8.72265 102.053 8.75369 101.976 8.78473C101.868 8.81577 101.79 8.9089 101.759 9.01754L100.462 13.3478Z" fill="#37210C"/>
<path d="M104.402 9.40555L104.479 9.2193C104.494 9.18826 104.525 9.17274 104.587 9.20378L105.514 9.56075C106.039 9.76252 106.395 10.1505 106.58 10.7093C106.766 11.268 106.673 12.0285 106.302 12.9908C106.117 13.4875 105.869 13.9376 105.591 14.3411C105.313 14.7447 105.004 15.024 104.664 15.1792C104.324 15.3344 103.892 15.2879 103.32 15.0706L102.408 14.7136C102.362 14.6981 102.347 14.6671 102.362 14.6205L102.439 14.4342C102.455 14.3877 102.501 14.3411 102.578 14.3256C102.687 14.2946 102.764 14.217 102.81 14.0928L104.448 9.88669C104.494 9.76252 104.494 9.6694 104.433 9.57627C104.402 9.52971 104.386 9.46763 104.402 9.40555ZM105.375 10.0109L103.552 14.6981C103.784 14.7912 104 14.8067 104.17 14.7447C104.34 14.6826 104.541 14.4653 104.742 14.1083C104.942 13.7513 105.159 13.3168 105.344 12.8201C105.56 12.2769 105.7 11.8423 105.777 11.5164C105.854 11.1904 105.885 10.9266 105.885 10.7403C105.885 10.5541 105.839 10.4144 105.761 10.3057C105.684 10.1971 105.56 10.0885 105.375 10.0109Z" fill="#37210C"/>
<path d="M110.149 12.4166L110.227 12.1683C110.258 12.0906 110.273 12.0441 110.273 12.0286C110.288 12.013 110.304 11.9975 110.35 11.9975L111.061 12.013C111.076 12.013 111.076 12.013 111.092 12.0286C111.123 12.0441 111.138 12.0751 111.123 12.1217L109.748 17.2125C109.717 17.3056 109.717 17.3677 109.717 17.4298C109.717 17.4763 109.748 17.5384 109.794 17.616C109.825 17.6781 109.84 17.7247 109.825 17.7712L109.748 17.9264C109.717 17.9885 109.686 18.004 109.639 17.973L108.496 17.3987C108.434 17.3677 108.419 17.3211 108.45 17.2746L108.527 17.1194C108.558 17.0728 108.604 17.0418 108.697 17.0418C108.805 17.0418 108.882 16.9952 108.929 16.9176C108.944 16.9021 108.944 16.871 108.96 16.84L109.176 16.0484L108.28 15.5983L107.801 16.2192C107.785 16.2502 107.77 16.2657 107.754 16.2812C107.724 16.3433 107.739 16.452 107.801 16.5761C107.832 16.6693 107.847 16.7313 107.832 16.7624L107.754 16.9176C107.724 16.9797 107.677 16.9797 107.615 16.9486L106.905 16.5917C106.827 16.5451 106.797 16.4985 106.827 16.452L106.92 16.2812C106.951 16.2347 106.982 16.2036 107.059 16.2036C107.183 16.1881 107.291 16.126 107.384 16.0019L110.149 12.4166ZM109.84 13.6272L108.604 15.2103L109.315 15.5673L109.84 13.6272Z" fill="#37210C"/>
<path d="M114.306 14.0773L114.414 13.9066C114.429 13.8755 114.476 13.8755 114.522 13.9066L115.356 14.4343C115.835 14.7292 116.113 15.1637 116.206 15.7535C116.299 16.3433 116.067 17.0728 115.542 17.9419C115.264 18.392 114.955 18.7956 114.599 19.137C114.244 19.494 113.904 19.7113 113.549 19.7889C113.193 19.882 112.761 19.7579 112.251 19.4475L111.416 18.9353C111.37 18.9042 111.37 18.8732 111.385 18.8421L111.494 18.6714C111.524 18.6249 111.571 18.5938 111.648 18.5938C111.772 18.5783 111.864 18.5162 111.926 18.4076L114.29 14.5584C114.352 14.4498 114.367 14.3411 114.337 14.248C114.275 14.1859 114.275 14.1239 114.306 14.0773ZM115.155 14.8223L112.529 19.106C112.745 19.2457 112.946 19.2922 113.131 19.2612C113.317 19.2302 113.533 19.0594 113.811 18.7335C114.074 18.4231 114.352 18.0351 114.63 17.5694C114.939 17.0728 115.155 16.6692 115.279 16.3588C115.418 16.0484 115.495 15.8001 115.526 15.6138C115.557 15.4276 115.542 15.2724 115.495 15.1637C115.434 15.0706 115.325 14.9465 115.155 14.8223Z" fill="#37210C"/>
<path d="M117.813 23.2655L115.712 21.729C115.665 21.698 115.65 21.6514 115.696 21.6048L115.789 21.4651C115.82 21.4186 115.882 21.4031 115.99 21.4031C116.082 21.4031 116.16 21.341 116.237 21.2479L118.895 17.6005C118.972 17.4918 118.987 17.3832 118.956 17.2746C118.925 17.197 118.941 17.1349 118.972 17.0883L119.08 16.9331C119.111 16.8865 119.142 16.8865 119.204 16.9331L120.78 18.0972C120.81 18.1127 120.872 18.1592 120.95 18.2058C121.027 18.2524 121.073 18.2834 121.089 18.2989C121.15 18.3455 121.181 18.392 121.15 18.4231L120.486 19.3233C120.455 19.3699 120.424 19.4009 120.409 19.4009C120.393 19.4009 120.362 19.3854 120.316 19.3543L120.208 19.2767C120.162 19.2457 120.146 19.1991 120.192 19.137C120.285 18.9663 120.347 18.7956 120.378 18.6404C120.409 18.4852 120.331 18.3455 120.146 18.2058L119.76 17.9264L118.493 19.6647L118.632 19.7734C118.725 19.8355 118.786 19.8665 118.848 19.851C118.91 19.8355 119.018 19.7579 119.204 19.6182C119.265 19.5716 119.296 19.5561 119.312 19.5406C119.327 19.5406 119.343 19.5561 119.374 19.5716L119.513 19.6647C119.559 19.7113 119.574 19.7423 119.544 19.8044L118.694 20.9685C118.663 21.015 118.616 21.0306 118.57 20.984L118.431 20.8754C118.4 20.8598 118.385 20.8288 118.385 20.7978C118.385 20.7667 118.4 20.7201 118.446 20.6115C118.508 20.4408 118.539 20.3166 118.524 20.2545C118.508 20.1924 118.462 20.1304 118.385 20.0838L118.261 19.9907L116.84 21.9463L117.257 22.2567C117.411 22.3653 117.55 22.4119 117.658 22.3809C117.767 22.3498 117.983 22.2101 118.323 21.9463C118.4 21.8842 118.462 21.8842 118.508 21.9152L118.647 22.0084C118.694 22.0394 118.709 22.086 118.663 22.1481L117.813 23.2655Z" fill="#37210C"/>
</svg>
