<svg width="28" height="23" viewBox="0 0 28 23" fill="none" xmlns="http://www.w3.org/2000/svg">
<path d="M2 9.54752C1.17157 9.54752 0.5 10.2191 0.5 11.0475C0.5 11.8759 1.17157 12.5475 2 12.5475L2 9.54752ZM27.1258 12.1082C27.7115 11.5224 27.7115 10.5726 27.1258 9.98685L17.5798 0.440913C16.994 -0.144874 16.0443 -0.144874 15.4585 0.440913C14.8727 1.0267 14.8727 1.97645 15.4585 2.56223L23.9438 11.0475L15.4585 19.5328C14.8727 20.1186 14.8727 21.0683 15.4585 21.6541C16.0443 22.2399 16.994 22.2399 17.5798 21.6541L27.1258 12.1082ZM2 12.5475L26.0651 12.5475L26.0651 9.54751L2 9.54752L2 12.5475Z" fill="#E47B18"/>
</svg>
