<svg width="26" height="20" viewBox="0 0 26 20" fill="none" xmlns="http://www.w3.org/2000/svg">
<path d="M6.60983 15.6243C6.09099 15.2592 5.55295 14.9325 5.08536 14.5354C4.40639 13.9653 3.9388 13.2287 3.62494 12.396C3.4648 11.9669 3.48402 11.8131 3.74664 11.416C3.20219 10.9292 2.75381 10.3591 2.42714 9.69939C2.08766 9.00761 1.8955 8.2774 1.87628 7.50876C1.86347 6.9515 1.99798 6.75293 2.504 6.52234C2.3759 6.18926 2.22217 5.86259 2.12609 5.52311C1.70334 4.0691 1.87628 2.67273 2.60008 1.34683C2.92676 0.751133 3.52886 0.687079 3.97083 1.20591C5.25189 2.71757 6.79558 3.87053 8.60189 4.6712C9.67798 5.14519 10.7989 5.45906 11.9583 5.62559C12.0223 5.632 12.08 5.62559 12.1376 5.62559C12.1825 5.20284 12.1889 4.77368 12.285 4.36374C12.8038 2.08985 14.277 0.719106 16.4869 0.168247C18.3316 -0.286532 19.9906 0.193868 21.4126 1.44931C21.656 1.66069 21.9442 1.66069 22.2196 1.67991C22.8794 1.71834 23.4751 1.50056 24.0516 1.1931C24.2117 1.10983 24.4167 1.03937 24.5896 1.04578C25.0124 1.06499 25.2878 1.40448 25.2814 1.84004C25.2686 2.756 24.9355 3.56308 24.4295 4.29969C24.1092 4.76087 23.7057 5.17082 23.347 5.61278C23.2701 5.70886 23.1996 5.84338 23.1996 5.95867C23.1356 10.0133 21.656 13.4593 18.7095 16.2456C16.6214 18.2185 14.1169 19.3907 11.2793 19.8198C7.74357 20.3515 4.43201 19.7109 1.37666 17.8406C0.934697 17.5715 0.819401 17.1168 1.08202 16.7132C1.26137 16.4442 1.51758 16.3545 1.83144 16.3866C3.04846 16.5211 4.24626 16.4122 5.41843 16.0535C5.82837 15.9318 6.23832 15.7588 6.60983 15.6243ZM23.3534 3.13392C23.2701 3.14032 23.2125 3.14032 23.1612 3.14032C22.6872 3.15313 22.2196 3.19797 21.752 3.17876C21.2845 3.15954 20.8425 3.05705 20.4838 2.69195C18.5494 0.738322 15.494 1.48775 14.2514 3.467C13.7005 4.35093 13.5916 5.29892 13.8094 6.30456C13.9247 6.84901 13.566 7.27817 13.0088 7.26536C12.8486 7.25896 12.6885 7.24614 12.5284 7.22693C9.11431 6.91947 6.18067 5.56795 3.72102 3.19157C3.67618 3.14673 3.63134 3.1147 3.5801 3.06986C3.45199 3.43497 3.41356 4.12034 3.48402 4.5559C3.66337 5.64481 4.21423 6.50313 5.11098 7.14366C5.4953 7.41909 5.6234 7.72014 5.5017 8.08524C5.38 8.45675 5.09176 8.6361 4.61136 8.61048C4.27828 8.59126 3.95161 8.53362 3.52886 8.48878C3.77867 8.91794 3.97083 9.32788 4.23345 9.68017C4.79071 10.436 5.54654 10.91 6.4625 11.1214C6.75715 11.1918 7.00696 11.3007 7.12866 11.6018C7.30801 12.0437 7.09023 12.5177 6.61623 12.6394C6.29596 12.7227 5.96289 12.7675 5.59778 12.838C5.66824 12.9277 5.72589 13.0109 5.78994 13.0814C6.56499 13.9397 7.52579 14.3881 8.67875 14.4521C9.1015 14.4778 9.35131 14.6827 9.44739 15.0222C9.53706 15.3553 9.41536 15.6435 9.08869 15.8933C8.03181 16.6876 6.86604 17.2513 5.59778 17.5972C5.38 17.6548 5.15581 17.7125 4.88679 17.7829C4.99568 17.8278 5.04692 17.8534 5.10457 17.8726C6.85963 18.4171 8.64032 18.5836 10.4658 18.3786C13.1305 18.0776 15.5004 17.0976 17.4861 15.2848C20.3493 12.6715 21.7392 9.40474 21.6432 5.52311C21.6367 5.18363 21.7392 4.92101 22.0211 4.71604C22.5783 4.3061 23.0011 3.76805 23.3534 3.13392Z" fill="#F2F2F2"/>
</svg>
