<svg id="visual" viewBox="0 0 900 500" width="940" height="600" xmlns="http://www.w3.org/2000/svg" xmlns:xlink="http://www.w3.org/1999/xlink" version="1.1"><path d="M0 375L21.5 375C43 375 86 375 128.8 396.7C171.7 418.3 214.3 461.7 257.2 476.8C300 492 343 479 385.8 465.3C428.7 451.7 471.3 437.3 514.2 429.5C557 421.7 600 420.3 642.8 431.2C685.7 442 728.3 465 771.2 472.7C814 480.3 857 472.7 878.5 468.8L900 465L900 601L878.5 601C857 601 814 601 771.2 601C728.3 601 685.7 601 642.8 601C600 601 557 601 514.2 601C471.3 601 428.7 601 385.8 601C343 601 300 601 257.2 601C214.3 601 171.7 601 128.8 601C86 601 43 601 21.5 601L0 601Z" fill="#E48F2B" stroke-linecap="round" stroke-linejoin="miter"></path></svg>