<svg width="20" height="20" viewBox="0 0 20 20" fill="none" xmlns="http://www.w3.org/2000/svg">
<path d="M14.5822 11.9851L14.5897 11.9226C14.6165 11.9347 14.6423 11.9462 14.6671 11.9572C14.8736 12.0491 15.0097 12.1097 15.0647 12.2101C15.1272 12.3226 15.1272 12.8101 14.9147 13.3976C14.7072 13.9851 13.7131 14.5101 13.2348 14.5859C12.8056 14.6476 12.2631 14.6743 11.6681 14.4851C9.46484 13.7284 8.25986 13.1835 5.99823 10.2235C4.84742 8.60187 4.50826 7.0769 5.85323 5.59859C6.16239 5.27693 6.51322 5.27027 6.99321 5.31193C7.00835 5.31193 7.024 5.31134 7.04008 5.31072C7.18775 5.30511 7.37285 5.29807 7.5532 5.73692C7.64455 5.95104 7.79149 6.30679 7.93298 6.64934C8.11418 7.08801 8.28643 7.50503 8.32152 7.57522C8.38319 7.69939 8.42569 7.83689 8.34236 8.01188C8.14634 8.38283 7.94218 8.60807 7.78987 8.77612C7.58086 9.00672 7.46946 9.12961 7.6107 9.37352C7.75737 9.62352 8.25402 10.436 8.99401 11.0985C9.7891 11.8099 10.4809 12.1098 10.8319 12.2619C10.9003 12.2916 10.9557 12.3156 10.9965 12.336C11.244 12.4485 11.389 12.436 11.5348 12.2735C11.679 12.1085 12.1573 11.551 12.3214 11.3052C12.5458 10.9686 12.7297 11.0604 14.3091 11.8489C14.3959 11.8922 14.4868 11.9376 14.5822 11.9851Z" fill="#F2F2F2"/>
<path fill-rule="evenodd" clip-rule="evenodd" d="M0.0850044 9.91101C0.089171 1.17284 10.6931 -3.31958 17.1005 2.87448L17.088 2.90697C18.9672 4.77861 20.0005 7.2694 20.0005 9.91602C19.9971 17.4567 11.8673 22.1816 5.27991 18.6234L0.000839233 20L1.41415 14.8651C0.542496 13.361 0.0850044 11.6576 0.0850044 9.91101ZM5.82573 16.9751C11.3481 20.2217 18.3305 16.2492 18.3355 9.88852C18.3355 7.68856 17.4739 5.61276 15.9114 4.06362C14.3481 2.50115 12.2723 1.63866 10.0607 1.63866C3.55077 1.63866 -0.397487 8.78854 3.03912 14.2593L3.23828 14.5718L2.4008 17.6092L5.52574 16.7967L5.82573 16.9751Z" fill="#F2F2F2"/>
</svg>
