<svg width="27" height="20" viewBox="0 0 27 20" fill="none" xmlns="http://www.w3.org/2000/svg">
<path d="M26.9429 8.78344C26.9429 9.59426 26.9429 10.4051 26.9429 11.2159C26.9294 11.297 26.9091 11.3781 26.9024 11.4592C26.7605 12.77 26.6591 14.0808 26.4699 15.3849C26.2334 16.993 25.3821 18.2092 23.9294 18.9863C23.1794 19.3849 22.355 19.4728 21.5374 19.5741C19.0644 19.8714 16.5779 19.993 14.0846 19.9998C11.2603 20.0066 8.44944 19.8444 5.65211 19.4795C3.69938 19.2295 2.10477 17.939 1.61827 16.0268C1.36827 15.0538 1.28719 14.0335 1.15205 13.0335C1.07773 12.4254 1.04394 11.8173 0.996643 11.2159C0.996643 10.4051 0.996643 9.59426 0.996643 8.78344C1.01016 8.6483 1.03043 8.51993 1.04394 8.38479C1.19935 7.04693 1.29394 5.69556 1.51692 4.36447C1.85476 2.35768 3.44938 0.864423 5.4494 0.560365C7.67916 0.22928 9.92919 0.0738726 12.186 0.0198178C15.5576 -0.0545074 18.9225 0.0738725 22.2672 0.513067C24.2604 0.776584 25.8483 2.04011 26.3213 3.99284C26.5983 5.1415 26.6794 6.33746 26.8348 7.51991C26.8956 7.93884 26.9091 8.36452 26.9429 8.78344ZM13.5644 18.3714C16.4225 18.3849 19.2671 18.243 22.105 17.8646C23.4699 17.6822 24.5713 16.7633 24.8145 15.4051C25.024 14.2362 25.1659 13.0538 25.2605 11.8646C25.4497 9.48615 25.2605 7.12126 24.8686 4.77663C24.6456 3.43878 23.6726 2.40498 22.3347 2.18876C20.1793 1.83741 18.0036 1.70227 15.8279 1.65497C12.4698 1.57389 9.12512 1.69551 5.794 2.14822C4.48317 2.33066 3.39532 3.2631 3.1318 4.57393C2.80748 6.18206 2.65883 7.81046 2.62504 9.45237C2.5845 11.3916 2.76018 13.3173 3.08451 15.2227C3.30748 16.5606 4.28722 17.5673 5.61832 17.8173C5.94265 17.8781 6.26698 17.9187 6.59806 17.9525C8.90215 18.2363 11.2265 18.3646 13.5644 18.3714Z" fill="#F2F2F2"/>
<path d="M10.517 9.99967C10.517 8.77668 10.517 7.5537 10.517 6.33071C10.517 5.54691 11.1522 5.17529 11.8279 5.5807C13.8887 6.80369 15.9428 8.03343 17.9969 9.26318C18.6455 9.65507 18.6455 10.3713 17.9969 10.7632C15.9495 11.9862 13.8955 13.2024 11.8481 14.4254C11.5441 14.6078 11.24 14.6754 10.9157 14.493C10.5914 14.3105 10.5035 14.0132 10.5103 13.6551C10.5238 12.4254 10.517 11.2091 10.517 9.99967ZM12.1589 7.65505C12.1589 9.23615 12.1589 10.7767 12.1589 12.3511C13.4765 11.5673 14.7671 10.797 16.0914 10.0064C14.7603 9.20912 13.4765 8.43884 12.1589 7.65505Z" fill="#F2F2F2"/>
</svg>
