<svg width="126" height="103" viewBox="0 0 126 103" fill="none" xmlns="http://www.w3.org/2000/svg">
<g clip-path="url(#clip0)">
<path d="M13.9827 31.7779C14.3127 30.0322 14.5159 28.2358 14.9729 26.5154C17.9691 15.3071 27.1098 7.71679 39.3229 8.24811C48.8191 8.65292 56.5126 12.9288 62.9873 19.6335C64.3838 21.0757 65.6026 22.6949 66.7198 24.0612C68.9034 21.6576 70.9855 19.0263 73.423 16.7998C80.1771 10.6011 88.1752 8.24811 97.2398 10.0192C103.511 11.2336 108.564 14.3203 111.789 19.9624C114.912 25.4021 115.09 31.1707 113.287 37.0658C111.306 43.5935 107.523 49.0585 102.927 53.9921C97.1129 60.2415 90.3843 65.4029 83.7064 70.6654C79.0599 74.3341 74.5149 78.0786 69.8937 81.7725C69.3859 82.1774 69.2589 82.5316 69.5382 83.1641C71.8742 88.3761 70.8332 93.1326 67.4562 97.5097C66.0089 99.4073 64.4092 101.153 62.2256 102.292C58.5439 104.164 54.8368 102.519 53.872 98.5217C53.2118 95.7639 53.7196 93.082 54.6845 90.4761C55.7763 87.4905 57.7314 85.0364 59.5849 82.5063C59.8642 82.1267 60.1943 81.7472 60.5244 81.3677C58.0615 78.787 55.3446 76.5859 52.3993 74.6883C46.9148 71.1462 41.3542 67.7558 35.8189 64.2643C31.1724 61.3294 26.729 58.1162 22.8949 54.144C18.7054 49.8175 15.5823 44.9091 14.4651 38.8875C14.2874 37.9008 14.135 36.914 13.9827 35.902C13.9827 34.5104 13.9827 33.1442 13.9827 31.7779ZM65.3741 76.8136C65.5772 76.6871 65.7042 76.5858 65.8311 76.4846C71.5187 71.9558 77.1809 67.3763 82.9193 62.8728C88.8354 58.2427 94.5484 53.3849 99.525 47.7175C102.75 44.0489 105.543 40.1019 107.092 35.396C110.062 26.313 104.654 18.5456 96.5289 16.5721C91.1206 15.2565 86.0678 16.4456 81.3704 19.2287C76.5461 22.0624 73.1945 26.2371 70.63 31.1201C70.1984 31.9551 69.7413 32.79 69.132 33.5237C68.3702 34.4598 67.253 34.637 66.212 34.055C65.5772 33.7008 64.9171 33.2454 64.46 32.6635C63.3936 31.2972 62.4287 29.8804 61.4639 28.4382C56.081 20.4431 48.7938 15.5601 38.9928 15.0794C33.5591 14.8263 28.7095 16.4962 25.2055 20.7721C20.1273 26.9708 19.6703 34.0044 22.4125 41.2911C24.3168 46.326 27.9223 50.1717 32.188 53.2837C36.9615 56.7499 41.9382 59.9126 46.9656 63.0499C53.4403 67.098 59.9658 71.1462 65.3741 76.8136ZM61.2607 94.3977C62.9873 92.5507 64.2061 90.5266 64.003 87.6676C62.3526 89.7676 61.4385 91.9435 61.2607 94.3977Z" fill="white"/>
<path d="M123.316 27.6539C123.266 27.6539 123.215 27.6539 123.164 27.6539C121.996 27.578 121.107 26.5407 121.184 25.3768C121.971 14.6745 113.871 5.33849 103.131 4.52887L99.6774 4.27586C98.5095 4.19995 97.6208 3.16262 97.6969 1.99878C97.7731 0.834934 98.8141 -0.0505983 99.9821 0.0253044L103.435 0.278313C116.512 1.26505 126.389 12.6505 125.424 25.6804C125.348 26.7937 124.408 27.6539 123.316 27.6539Z" fill="white"/>
<path d="M40.4546 80.175C40.2252 80.1467 40.0014 80.0727 39.7833 79.953L31.6499 75.6548C19.6679 69.3273 10.309 58.9141 5.31726 46.3242C4.92815 45.3248 5.41599 44.2015 6.41854 43.8145C7.42109 43.4276 8.54874 43.9148 8.93786 44.9142C13.5952 56.6274 22.3191 66.3358 33.466 72.2586L41.5994 76.5568C42.5379 77.067 42.9073 78.2265 42.4162 79.187C42.025 79.9045 41.2346 80.2712 40.4546 80.175Z" fill="white"/>
</g>
<defs>
<clipPath id="clip0">
<rect width="125" height="103" fill="white" transform="translate(0.5)"/>
</clipPath>
</defs>
</svg>
