<svg width="166" height="101" viewBox="0 0 166 101" fill="none" xmlns="http://www.w3.org/2000/svg">
<g clip-path="url(#clip0)">
<path d="M27.3054 38.7754C27.3054 42.8108 27.3054 48.7707 27.3054 49.5778C19.9199 49.5778 19.8426 42.4073 19.8426 42.4073V39.8308C19.8426 38.6978 18.8847 37.6579 17.6795 37.6579H11.9009C10.6957 37.6579 9.73777 38.7133 9.73777 39.8308V61.5132C9.73777 62.7238 10.6957 63.6861 11.9009 63.7637H12.4571C13.585 63.6861 14.543 62.7083 14.543 61.5132V61.4356C14.543 61.4356 14.6202 57.245 19.4409 57.245C19.4409 57.7262 19.4409 61.1873 19.4409 63.7793C19.4409 64.0276 19.4409 64.338 19.4409 64.5863C19.4409 65.7969 19.4409 66.604 19.4409 66.604V67.4887C19.4409 70.0651 19.4409 73.4487 19.4409 73.9298C14.6202 73.9298 14.543 69.8168 14.543 69.8168V69.7392C14.543 68.5286 13.585 67.5663 12.4571 67.4887H11.9009C10.6957 67.5663 9.73777 68.5441 9.73777 69.7392V91.67C9.73777 95.457 11.4992 94.7275 11.4992 96.59H7.32743C6.60124 96.59 6.04501 96.0313 6.04501 95.3018C6.04501 96.0313 5.39607 96.59 4.76259 96.59H0.498142C0.498142 94.743 2.18229 95.457 2.25954 91.8407V69.4133C2.10503 67.8767 1.30159 66.5109 0.019165 65.7814C0.668102 65.4555 1.4561 65.2227 2.25954 65.2227V38.6202C2.18229 34.9884 0.498142 35.7178 0.498142 33.8553H4.74714C5.39607 33.8553 6.02956 34.5072 6.02956 35.2212C6.02956 34.4917 6.58579 33.8553 7.31198 33.8553H8.20813H11.4992H18.0812H22.3302H24.8951H25.7758H29.0668C29.0668 35.7954 27.3054 34.9884 27.3054 38.7754ZM6.60124 65.2227C6.60124 63.7793 6.60124 62.3203 6.60124 60.8769C6.60124 60.1474 6.52399 59.5111 6.52399 58.7816C6.52399 58.0521 6.52399 57.4158 6.52399 56.6863C6.44673 54.0323 6.44673 51.4403 6.36948 49.2674C6.29222 48.212 6.29222 47.1721 6.21497 46.2874C6.21497 45.4027 6.13771 44.6733 6.13771 44.0369C6.13771 43.4006 6.06046 42.9039 6.06046 42.5935C6.06046 42.19 6.06046 42.0348 6.06046 42.0348C6.06046 42.0348 5.98321 42.19 5.98321 42.5935C5.98321 42.9194 5.90595 43.4006 5.90595 44.0369C5.90595 44.6733 5.8287 45.4027 5.8287 46.2874C5.75144 47.1721 5.75144 48.2275 5.67419 49.2674C5.59693 51.4403 5.59693 54.0167 5.51968 56.6863C5.51968 57.4158 5.51968 58.0521 5.51968 58.7816C5.51968 59.5111 5.51968 60.1474 5.44243 60.8769C5.44243 62.3203 5.44243 63.7793 5.44243 65.2227C5.44243 66.6661 5.44243 68.125 5.44243 69.5685C5.44243 69.8944 5.51968 70.2979 5.51968 70.6239C5.51968 70.9498 5.51968 71.3534 5.51968 71.6793C5.51968 72.4088 5.51968 73.0451 5.51968 73.7746C5.51968 75.1404 5.59693 76.4286 5.59693 77.6392C5.59693 78.9275 5.67419 80.0605 5.67419 81.178C5.75144 81.7367 5.75144 82.2334 5.75144 82.7145C5.75144 83.1956 5.8287 83.6768 5.8287 84.1579C5.8287 85.0426 5.90595 85.7721 5.90595 86.4084C5.90595 87.0603 5.98321 87.5414 5.98321 87.8519C5.98321 88.2554 6.06046 88.4106 6.06046 88.4106C6.06046 88.4106 6.06046 88.2554 6.06046 87.8519C6.06046 87.5259 6.13771 87.0448 6.13771 86.4084C6.13771 85.7566 6.21497 85.0426 6.21497 84.1579C6.29222 83.6768 6.29222 83.1956 6.29222 82.7145C6.29222 82.2334 6.36948 81.7522 6.36948 81.178C6.36948 80.0449 6.44673 78.9275 6.44673 77.6392C6.44673 76.4286 6.52399 75.1404 6.52399 73.7746C6.52399 73.0451 6.52399 72.4088 6.52399 71.6793C6.52399 71.3534 6.52399 70.9498 6.60124 70.6239C6.60124 70.2979 6.60124 69.8944 6.60124 69.5685C6.60124 68.125 6.60124 66.6661 6.60124 65.2227Z" fill="white"/>
<path d="M51.7333 66.8834H49.802H49.2921H47.7934H45.2903H39.5117H38.9555C38.5846 66.8834 38.1984 66.5109 38.1984 66.1228C38.1984 66.4953 37.8739 66.8834 37.4413 66.8834H35C35 65.7969 35.9889 66.216 36.0352 64.1052V52.6043C35.9425 51.7041 35.479 50.9126 34.7219 50.478C35.0927 50.2452 35.5717 50.152 36.0352 50.152V36.6646C35.9889 34.5382 35 34.9728 35 33.8864H37.4876C37.8585 33.8864 38.2447 34.2123 38.2447 34.6469C38.2447 34.2278 38.5692 33.8864 39.0018 33.8864H39.5117H41.4431H45.2903H47.7779H49.2766H49.7865H51.7179C51.7179 34.9728 50.6827 34.5537 50.6827 36.7577C50.6827 39.0703 50.6827 42.5624 50.6827 43.028C46.3719 43.028 46.3101 38.8375 46.3101 38.8375V37.363C46.3101 36.649 45.7538 36.0903 45.0431 36.0437H41.6594C40.9486 36.0903 40.3924 36.649 40.3924 37.363V47.9791C40.3924 48.6931 40.9486 49.2518 41.6594 49.2518H41.9838C42.6482 49.2518 43.2045 48.6931 43.2045 47.9791V47.9171C43.2045 47.9171 43.2508 45.4648 46.0629 45.4648C46.0629 45.7442 46.0629 47.7774 46.0629 49.2363C46.0629 49.4226 46.0629 49.6088 46.0629 49.7485C46.0629 50.4625 46.0629 50.9281 46.0629 50.9281V51.4403C46.0629 52.9458 46.0629 54.9324 46.0629 55.2118C43.2508 55.2118 43.2045 52.7595 43.2045 52.7595C43.2045 52.0456 42.6482 51.4868 41.9838 51.4403H41.6594C40.9486 51.4868 40.3924 52.0456 40.3924 52.7595V63.3757C40.3924 64.0896 40.9486 64.6484 41.6594 64.6484H45.0431C45.7538 64.6484 46.3101 64.0896 46.3101 63.3757V61.8857C46.3101 61.8857 46.3564 57.6951 50.6827 57.6951C50.6827 58.1607 50.6827 61.6529 50.6827 64.012C50.6981 66.216 51.7333 65.7969 51.7333 66.8834ZM38.5846 50.3693C38.5846 49.6088 38.5846 48.9104 38.5846 48.1499C38.5846 47.8239 38.5383 47.4359 38.5383 47.0634C38.5383 46.7375 38.5383 46.3495 38.5383 46.0235C38.4919 44.6577 38.4919 43.385 38.4456 42.252C38.3992 41.7398 38.3992 41.2121 38.3529 40.7931C38.3529 40.3274 38.3065 39.9394 38.3065 39.6135C38.3065 39.2876 38.2602 39.0547 38.2602 38.853C38.2602 38.6667 38.2602 38.6202 38.2602 38.6202C38.2602 38.6202 38.2138 38.6667 38.2138 38.853C38.2138 39.0392 38.1675 39.272 38.1675 39.6135C38.1675 39.9394 38.1211 40.3274 38.1211 40.7931C38.0748 41.2121 38.0748 41.7398 38.0284 42.252C37.9821 43.385 37.9821 44.6577 37.9357 46.0235C37.9357 46.3495 37.9357 46.7375 37.9357 47.0634C37.9357 47.4359 37.8894 47.8239 37.8894 48.1499C37.8894 48.9104 37.8894 49.6088 37.8894 50.3693C37.8894 51.0833 37.8894 51.8283 37.8894 52.5422C37.8894 52.7285 37.8894 52.9147 37.9357 53.101C37.9357 53.2407 37.9357 53.4269 37.9357 53.6132C37.9357 53.9391 37.9357 54.3271 37.9357 54.653C37.9357 55.367 37.9821 56.0189 37.9821 56.6397C37.9821 57.3071 38.0284 57.8658 38.0284 58.4246C38.0748 58.9833 38.0748 59.4645 38.1211 59.9301C38.1211 60.3491 38.1675 60.7837 38.1675 61.0631C38.1675 61.389 38.2138 61.6684 38.2138 61.8236C38.2138 62.0099 38.2602 62.103 38.2602 62.103C38.2602 62.103 38.2602 62.0099 38.2602 61.8236C38.2602 61.6839 38.3065 61.4046 38.3065 61.0631C38.3065 60.7837 38.3529 60.3491 38.3529 59.9301C38.3992 59.4645 38.3992 58.9833 38.4456 58.4246C38.4456 57.8658 38.4919 57.2916 38.4919 56.6397C38.4919 56.0344 38.5383 55.367 38.5383 54.653C38.5383 54.3271 38.5383 53.9391 38.5383 53.6132C38.5383 53.4269 38.5383 53.2407 38.5846 53.101C38.5846 52.9147 38.5846 52.7285 38.5846 52.5422C38.5846 51.8283 38.5846 51.0833 38.5846 50.3693Z" fill="white"/>
<path d="M61.761 66.8834H59.2734C58.9026 66.8834 58.5163 66.5109 58.5163 66.1228C58.5163 66.4953 58.1918 66.8834 57.7592 66.8834H55.3334C55.3334 65.7969 56.3223 66.216 56.3686 64.1052V52.6043C56.2759 51.7041 55.8124 50.9126 55.0553 50.478C55.4261 50.2452 55.9051 50.152 56.3686 50.152V36.6646C56.3223 34.5382 55.3334 34.9728 55.3334 33.8864H57.821C58.1918 33.8864 58.5781 34.2123 58.5781 34.6469C58.5781 34.2278 58.9026 33.8864 59.3352 33.8864H61.7764C61.7764 34.9728 60.7412 34.5537 60.7412 36.7577V50.152C61.2048 50.152 61.6837 50.2452 62.0545 50.478C61.2975 50.897 60.8339 51.7041 60.7412 52.6043V64.012C60.7258 66.216 61.761 65.7969 61.761 66.8834ZM58.8871 50.3693C58.8871 49.6088 58.8871 48.9104 58.8408 48.1499C58.8408 47.8239 58.8408 47.4359 58.8408 47.0634C58.8408 46.7375 58.8408 46.3495 58.8408 46.0235C58.7944 44.6577 58.7481 43.385 58.7017 42.252C58.7017 41.7398 58.7017 41.2121 58.6554 40.7931C58.6554 40.3274 58.609 39.9394 58.609 39.6135C58.5626 39.2876 58.5626 39.0547 58.5626 38.853C58.5163 38.6667 58.5163 38.6202 58.5163 38.6202C58.5163 38.6202 58.5163 38.6667 58.5163 38.853C58.5163 39.0392 58.4699 39.272 58.4699 39.6135C58.4236 39.9394 58.4236 40.3274 58.3772 40.7931C58.3772 41.2121 58.3772 41.7398 58.3309 42.252C58.2845 43.385 58.2382 44.6577 58.2382 46.0235C58.2382 46.3495 58.2382 46.7375 58.1918 47.0634C58.1918 47.4359 58.1918 47.8239 58.1918 48.1499C58.1918 48.9104 58.1918 49.6088 58.1918 50.3693C58.1918 51.0833 58.1918 51.8283 58.1918 52.5422C58.1918 52.7285 58.1918 52.9147 58.1918 53.101C58.1918 53.2407 58.1918 53.4269 58.1918 53.6132C58.2382 53.9391 58.2382 54.3271 58.2382 54.653C58.2382 55.367 58.2382 56.0189 58.2845 56.6397C58.2845 57.3071 58.3309 57.8658 58.3309 58.4246C58.3309 58.9833 58.3772 59.4645 58.3772 59.9301C58.4236 60.3491 58.4236 60.7837 58.4699 61.0631C58.4699 61.389 58.5163 61.6684 58.5163 61.8236C58.5163 62.0099 58.5163 62.103 58.5163 62.103C58.5163 62.103 58.5163 62.0099 58.5626 61.8236C58.5626 61.6839 58.5626 61.4046 58.609 61.0631C58.609 60.7837 58.6554 60.3491 58.6554 59.9301C58.7017 59.4645 58.7017 58.9833 58.7481 58.4246C58.7481 57.8658 58.7481 57.2916 58.7944 56.6397C58.7944 56.0344 58.7944 55.367 58.8408 54.653C58.8408 54.3271 58.8408 53.9391 58.8408 53.6132C58.8408 53.4269 58.8408 53.2407 58.8408 53.101C58.8408 52.9147 58.8408 52.7285 58.8408 52.5422C58.8871 51.8283 58.8871 51.0833 58.8871 50.3693Z" fill="white"/>
<path d="M73.3492 47.824C72.7312 48.1344 72.314 48.7397 72.2676 49.4071V61.4356C72.1904 64.4311 69.5328 66.7903 66.2573 66.7903C60.5095 66.7903 61.0503 61.746 64.3723 61.746C65.5311 61.746 66.4581 62.5997 66.4581 63.6551C66.4581 64.5087 65.8401 65.2382 64.9903 65.4865C66.3345 65.9832 67.6169 65.0209 68.1114 64.2138C68.6521 63.3291 68.6521 62.0564 68.6521 61.2804V49.4071C68.6058 48.7397 68.1886 48.1344 67.6169 47.824C67.9259 47.6843 68.2659 47.5756 68.6521 47.5756V46.3805V36.0127C68.6521 34.352 67.8487 34.709 67.8487 33.8553H69.8573C70.1972 33.8553 70.4753 34.1347 70.4753 34.4607C70.4753 34.1502 70.738 33.8553 71.0934 33.8553H73.1329C73.1329 34.709 72.2831 34.352 72.2831 36.0127V46.3805V47.5756C72.6539 47.5756 73.0402 47.6843 73.3492 47.824ZM70.7226 48.8018C70.7226 48.1033 70.7226 47.4204 70.7226 46.753C70.7226 46.3961 70.7226 46.0546 70.7226 45.7287C70.7226 45.4183 70.7226 45.0613 70.7226 44.7354C70.6916 43.4627 70.6453 42.2676 70.6144 41.2122C70.6144 40.7155 70.5835 40.2188 70.5835 39.7998C70.5835 39.4118 70.5526 39.0237 70.5526 38.7444C70.5217 38.434 70.5217 38.2167 70.5217 38.0459C70.4753 37.8752 70.4753 37.7976 70.4753 37.7976C70.4753 37.7976 70.4753 37.8752 70.4753 38.0459C70.4753 38.2167 70.4444 38.434 70.4444 38.7444C70.4135 39.0237 70.4135 39.4118 70.3672 39.7998C70.3672 40.2188 70.3363 40.7155 70.3363 41.2122C70.2899 42.2676 70.259 43.4627 70.259 44.7354C70.259 45.0458 70.2281 45.4027 70.2281 45.7287C70.2281 46.0391 70.2281 46.3961 70.2281 46.753C70.2281 47.4204 70.2281 48.0878 70.2281 48.8018C70.2281 49.4692 70.2281 50.1831 70.2281 50.8505C70.2281 51.0212 70.2281 51.1609 70.2281 51.3472C70.2281 51.5179 70.2281 51.7041 70.2281 51.8438C70.2281 52.2008 70.259 52.5112 70.259 52.8372C70.259 53.4735 70.259 54.1099 70.2899 54.6996C70.2899 55.3049 70.3363 55.8326 70.3363 56.3604C70.3363 56.6087 70.3363 56.857 70.3672 57.1053C70.3672 57.3537 70.3672 57.571 70.3672 57.7727C70.3981 58.1918 70.3981 58.5488 70.4444 58.8592C70.4444 59.1386 70.4753 59.3869 70.4753 59.5266C70.4753 59.6973 70.4753 59.7749 70.4753 59.7749C70.4753 59.7749 70.4753 59.6973 70.5217 59.5266C70.5217 59.3869 70.5217 59.1386 70.5526 58.8592C70.5526 58.5488 70.5835 58.1918 70.5835 57.7727C70.5835 57.5554 70.5835 57.3537 70.6144 57.1053C70.6144 56.857 70.6144 56.6087 70.6144 56.3604C70.6453 55.8326 70.6453 55.3049 70.6916 54.6996C70.6916 54.0943 70.6916 53.4735 70.7226 52.8372C70.7226 52.5267 70.7226 52.2008 70.7226 51.8438C70.7226 51.7041 70.7226 51.5334 70.7226 51.3472C70.7226 51.1764 70.7226 51.0368 70.7226 50.8505C70.7226 50.1831 70.7226 49.4847 70.7226 48.8018Z" fill="white"/>
<path d="M92.091 50.4625C91.3803 50.8815 90.8704 51.6886 90.7777 52.5888V59.7128C90.685 63.6706 87.4403 66.8834 83.4539 66.8834C79.4676 66.8834 76.2229 63.6706 76.1302 59.7128V52.5888C76.0375 51.6886 75.574 50.8971 74.8169 50.4625C75.1877 50.2297 75.6667 50.1365 76.1302 50.1365V48.5379V41.0414C76.2229 37.0836 79.4676 33.8708 83.4539 33.8708C87.4403 33.8708 90.685 37.0836 90.7777 41.0414V48.5379V50.1365C91.2412 50.1365 91.7202 50.2297 92.091 50.4625ZM78.6642 50.3228C78.6642 49.7175 78.6642 49.0501 78.6642 48.4293C78.6642 48.1499 78.6178 47.824 78.6178 47.5291C78.6178 47.2342 78.6178 46.9238 78.6178 46.6289C78.5715 45.4493 78.5715 44.3628 78.5251 43.4161C78.4788 42.997 78.4788 42.5159 78.4324 42.1434C78.4324 41.7709 78.3861 41.4294 78.3861 41.1966C78.3861 40.9172 78.3397 40.6844 78.3397 40.5292C78.3397 40.3895 78.3397 40.2964 78.3397 40.2964C78.3397 40.2964 78.2933 40.3895 78.2933 40.5292C78.2933 40.6689 78.247 40.9017 78.247 41.1966C78.247 41.4294 78.2006 41.7554 78.2006 42.1434C78.1543 42.5159 78.1543 42.997 78.1079 43.4161C78.0616 44.3628 78.0616 45.4493 78.0152 46.6289C78.0152 46.9082 78.0152 47.2342 78.0152 47.5291C78.0152 47.824 77.9689 48.1344 77.9689 48.4293C77.9689 49.0346 77.9689 49.702 77.9689 50.3228C77.9689 50.9281 77.9689 51.5489 77.9689 52.1542C77.9689 52.3405 77.9689 52.4802 78.0152 52.6199C78.0152 52.7595 78.0152 52.9458 78.0152 53.0855C78.0152 53.3648 78.0152 53.6442 78.0152 53.9857C78.0152 54.5444 78.0616 55.1187 78.0616 55.6309C78.0616 56.1896 78.1079 56.6708 78.1079 57.1364C78.1543 57.602 78.1543 58.0366 78.2006 58.4091C78.2006 58.7816 78.247 59.123 78.247 59.4024C78.247 59.6818 78.2933 59.9146 78.2933 60.0698C78.2933 60.2095 78.3397 60.256 78.3397 60.256C78.3397 60.256 78.3397 60.2095 78.3397 60.0698C78.3397 59.9301 78.3861 59.6973 78.3861 59.4024C78.3861 59.123 78.4324 58.7971 78.4324 58.4091C78.4788 58.0366 78.4788 57.602 78.5251 57.1364C78.5251 56.6708 78.5715 56.1896 78.5715 55.6309C78.5715 55.1187 78.6178 54.5444 78.6178 53.9857C78.6178 53.6597 78.6178 53.3804 78.6178 53.0855C78.6178 52.9458 78.6178 52.7595 78.6178 52.6199C78.6642 52.4802 78.6642 52.3405 78.6642 52.1542C78.6642 51.5489 78.6642 50.9436 78.6642 50.3228ZM86.4051 41.2277C86.4051 39.5825 86.4051 36.0437 83.4539 36.0437C80.5028 36.0437 80.5028 39.5825 80.5028 41.2277V48.5379V50.1365C80.9664 50.1365 81.4453 50.2297 81.8162 50.4625C81.0591 50.8815 80.5955 51.6886 80.5028 52.5888V59.5266C80.5028 61.1252 80.5028 64.6639 83.4539 64.6639C86.4051 64.6639 86.4051 61.1252 86.4051 59.5266V52.5888C86.3587 51.6886 85.8488 50.8971 85.0917 50.4625C85.4626 50.2297 85.9415 50.1365 86.4051 50.1365V48.5379V41.2277ZM88.939 50.3228C88.939 49.7175 88.939 49.0501 88.939 48.4293C88.939 48.1499 88.939 47.824 88.8927 47.5291C88.8927 47.2497 88.8927 46.9238 88.8927 46.6289C88.8927 45.4493 88.8463 44.3628 88.8 43.4161C88.7536 42.997 88.7536 42.5159 88.7072 42.1434C88.7072 41.7709 88.6609 41.4294 88.6609 41.1966C88.6609 40.9172 88.6145 40.6844 88.6145 40.5292C88.6145 40.3895 88.6145 40.2964 88.6145 40.2964C88.6145 40.2964 88.5682 40.3895 88.5682 40.5292C88.5682 40.6689 88.5682 40.9017 88.5218 41.1966C88.5218 41.4294 88.4755 41.7554 88.4755 42.1434C88.4291 42.5159 88.4291 42.997 88.3828 43.4161C88.3364 44.3628 88.3364 45.4493 88.2901 46.6289C88.2901 46.9082 88.2901 47.2342 88.2901 47.5291C88.2901 47.824 88.2901 48.1344 88.2901 48.4293C88.2437 49.0346 88.2437 49.702 88.2437 50.3228C88.2437 50.9281 88.2437 51.5489 88.2901 52.1542C88.2901 52.3405 88.2901 52.4802 88.2901 52.6199C88.2901 52.7595 88.2901 52.9458 88.2901 53.0855C88.2901 53.3648 88.2901 53.6442 88.2901 53.9857C88.2901 54.5444 88.3364 55.1187 88.3364 55.6309C88.3364 56.1896 88.3828 56.6708 88.3828 57.1364C88.4291 57.602 88.4291 58.0366 88.4755 58.4091C88.4755 58.7816 88.5218 59.123 88.5218 59.4024C88.5682 59.6818 88.5682 59.9146 88.5682 60.0698C88.5682 60.2095 88.6145 60.256 88.6145 60.256C88.6145 60.256 88.6145 60.2095 88.6145 60.0698C88.6145 59.9301 88.6609 59.6973 88.6609 59.4024C88.6609 59.123 88.7072 58.7971 88.7072 58.4091C88.7536 58.0366 88.7536 57.602 88.8 57.1364C88.8 56.6708 88.8463 56.1896 88.8463 55.6309C88.8463 55.1187 88.8927 54.5444 88.8927 53.9857C88.8927 53.6597 88.8927 53.3804 88.8927 53.0855C88.8927 52.9458 88.939 52.7595 88.939 52.6199C88.939 52.4802 88.939 52.3405 88.939 52.1542C88.939 51.5489 88.939 50.9436 88.939 50.3228Z" fill="white"/>
<path d="M110.555 66.8834H108.114C107.696 66.8834 107.357 66.5109 107.357 66.1228C107.357 66.4953 106.986 66.8834 106.599 66.8834H104.112C104.112 66.8834 104.112 66.8834 104.112 66.8368L99.2294 40.343V50.152C99.6929 50.152 100.172 50.2452 100.543 50.478C99.7856 50.897 99.3221 51.7041 99.2294 52.6043V64.012C99.2294 66.2315 100.265 65.7969 100.265 66.8834H97.777C97.4062 66.8834 97.0199 66.5109 97.0199 66.1228C97.0199 66.4953 96.6954 66.8834 96.2628 66.8834H93.8216C93.8216 65.7969 94.8104 66.216 94.8568 64.1052V52.6043C94.7641 51.7041 94.3006 50.9126 93.5435 50.478C93.9143 50.2452 94.3933 50.152 94.8568 50.152V36.6646C94.8104 34.5382 93.8216 34.9728 93.8216 33.8864H96.3092C96.68 33.8864 97.0663 34.2123 97.0663 34.6469C97.0663 34.2278 97.3907 33.8864 97.8234 33.8864H100.265L105.147 60.2871V52.6043C105.101 51.7041 104.591 50.9126 103.834 50.478C104.205 50.2452 104.684 50.152 105.147 50.152V36.6646C105.101 34.5382 104.112 34.9728 104.112 33.8864H106.599C107.017 33.8864 107.357 34.2123 107.357 34.6469C107.357 34.2278 107.681 33.8864 108.114 33.8864H110.555C110.555 34.9728 109.52 34.5537 109.52 36.7577V50.152C109.983 50.152 110.462 50.2452 110.833 50.478C110.122 50.897 109.612 51.7041 109.52 52.6043V64.012C109.52 66.216 110.555 65.7969 110.555 66.8834ZM97.4062 50.3693C97.4062 49.6088 97.4062 48.9104 97.4062 48.1499C97.4062 47.8239 97.3598 47.4359 97.3598 47.0634C97.3598 46.7375 97.3598 46.3495 97.3598 46.0235C97.3135 44.6577 97.3135 43.385 97.2671 42.252C97.2208 41.7398 97.2208 41.2121 97.1744 40.7931C97.1744 40.3274 97.1281 39.9394 97.1281 39.6135C97.1281 39.2876 97.0817 39.0547 97.0817 38.853C97.0817 38.6667 97.0817 38.6202 97.0817 38.6202C97.0817 38.6202 97.0354 38.6667 97.0354 38.853C97.0354 39.0392 96.989 39.272 96.989 39.6135C96.989 39.9394 96.9427 40.3274 96.9427 40.7931C96.8963 41.2121 96.8963 41.7398 96.85 42.252C96.8036 43.385 96.8036 44.6577 96.7572 46.0235C96.7572 46.3495 96.7572 46.7375 96.7572 47.0634C96.7572 47.4359 96.7109 47.8239 96.7109 48.1499C96.7109 48.9104 96.7109 49.6088 96.7109 50.3693C96.7109 51.0833 96.7109 51.8283 96.7109 52.5422C96.7109 52.7285 96.7109 52.9147 96.7572 53.101C96.7572 53.2407 96.7572 53.4269 96.7572 53.6132C96.7572 53.9391 96.7572 54.3271 96.7572 54.653C96.7572 55.367 96.8036 56.0189 96.8036 56.6397C96.8036 57.3071 96.85 57.8658 96.85 58.4246C96.8963 58.9833 96.8963 59.4645 96.9427 59.9301C96.9427 60.3491 96.989 60.7837 96.989 61.0631C96.989 61.389 97.0354 61.6684 97.0354 61.8236C97.0354 62.0099 97.0817 62.103 97.0817 62.103C97.0817 62.103 97.0817 62.0099 97.0817 61.8236C97.0817 61.6839 97.1281 61.4046 97.1281 61.0631C97.1281 60.7837 97.1744 60.3491 97.1744 59.9301C97.2208 59.4645 97.2208 58.9833 97.2671 58.4246C97.2671 57.8658 97.3135 57.2916 97.3135 56.6397C97.3135 56.0344 97.3598 55.367 97.3598 54.653C97.3598 54.3271 97.3598 53.9391 97.3598 53.6132C97.3598 53.4269 97.3598 53.2407 97.4062 53.101C97.4062 52.9147 97.4062 52.7285 97.4062 52.5422C97.4062 51.8283 97.4062 51.0833 97.4062 50.3693ZM107.681 50.3693C107.681 49.6088 107.681 48.9104 107.681 48.1499C107.681 47.8239 107.681 47.4359 107.635 47.0634C107.635 46.7375 107.635 46.3495 107.635 46.0235C107.635 44.6577 107.588 43.385 107.542 42.252C107.496 41.7398 107.496 41.2121 107.449 40.7931C107.449 40.3274 107.403 39.9394 107.403 39.6135C107.403 39.2876 107.357 39.0547 107.357 38.853C107.357 38.6667 107.357 38.6202 107.357 38.6202C107.357 38.6202 107.31 38.6667 107.31 38.853C107.31 39.0392 107.31 39.272 107.264 39.6135C107.264 39.9394 107.217 40.3274 107.217 40.7931C107.171 41.2121 107.171 41.7398 107.125 42.252C107.078 43.385 107.078 44.6577 107.032 46.0235C107.032 46.3495 107.032 46.7375 107.032 47.0634C107.032 47.4359 107.032 47.8239 107.032 48.1499C106.986 48.9104 106.986 49.6088 106.986 50.3693C106.986 51.0833 106.986 51.8283 107.032 52.5422C107.032 52.7285 107.032 52.9147 107.032 53.101C107.032 53.2407 107.032 53.4269 107.032 53.6132C107.032 53.9391 107.032 54.3271 107.032 54.653C107.032 55.367 107.078 56.0189 107.078 56.6397C107.125 57.3071 107.125 57.8658 107.125 58.4246C107.171 58.9833 107.171 59.4645 107.217 59.9301C107.217 60.3491 107.264 60.7837 107.264 61.0631C107.31 61.389 107.31 61.6684 107.31 61.8236C107.31 62.0099 107.357 62.103 107.357 62.103C107.357 62.103 107.357 62.0099 107.357 61.8236C107.357 61.6839 107.403 61.4046 107.403 61.0631C107.403 60.7837 107.449 60.3491 107.449 59.9301C107.496 59.4645 107.496 58.9833 107.542 58.4246C107.542 57.8658 107.588 57.2916 107.588 56.6397C107.588 56.0344 107.635 55.367 107.635 54.653C107.635 54.3271 107.635 53.9391 107.635 53.6132C107.681 53.4269 107.681 53.2407 107.681 53.101C107.681 52.9147 107.681 52.7285 107.681 52.5422C107.681 51.8283 107.681 51.0833 107.681 50.3693Z" fill="white"/>
<path d="M131.336 66.8834H129.405H128.895H127.396H124.909H119.13H118.574C118.203 66.8834 117.817 66.5109 117.817 66.1228C117.817 66.4953 117.492 66.8834 117.06 66.8834H114.618C114.618 65.7969 115.607 66.216 115.654 64.1052V52.6043C115.561 51.7041 115.097 50.9126 114.34 50.478C114.711 50.2452 115.19 50.152 115.654 50.152V36.6646C115.607 34.5382 114.618 34.9728 114.618 33.8864H117.106C117.477 33.8864 117.863 34.2123 117.863 34.6469C117.863 34.2278 118.188 33.8864 118.62 33.8864H119.13H121.061H124.909H127.396H128.895H129.405H131.336C131.336 34.9728 130.301 34.5537 130.301 36.7577C130.301 39.0703 130.301 42.5624 130.301 43.028C125.975 43.028 125.929 38.8375 125.929 38.8375V37.363C125.929 36.649 125.372 36.0903 124.662 36.0437H121.278C120.567 36.0903 120.011 36.649 120.011 37.363V47.9791C120.011 48.6931 120.567 49.2518 121.278 49.2518H121.602C122.267 49.2518 122.823 48.6931 122.823 47.9791V47.9171C122.823 47.9171 122.869 45.4648 125.681 45.4648C125.681 45.7442 125.681 47.7774 125.681 49.2363C125.681 49.4226 125.681 49.6088 125.681 49.7485C125.681 50.4625 125.681 50.9281 125.681 50.9281V51.4403C125.681 52.9458 125.681 54.9324 125.681 55.2118C122.869 55.2118 122.823 52.7595 122.823 52.7595C122.823 52.0456 122.267 51.4868 121.602 51.4403H121.278C120.567 51.4868 120.011 52.0456 120.011 52.7595V63.3757C120.011 64.0896 120.567 64.6484 121.278 64.6484H124.662C125.372 64.6484 125.929 64.0896 125.929 63.3757V61.8857C125.929 61.8857 125.975 57.6951 130.301 57.6951C130.301 58.1607 130.301 61.6529 130.301 64.012C130.301 66.216 131.336 65.7969 131.336 66.8834ZM118.188 50.3693C118.188 49.6088 118.188 48.9104 118.188 48.1499C118.188 47.8239 118.141 47.4359 118.141 47.0634C118.141 46.7375 118.141 46.3495 118.141 46.0235C118.095 44.6577 118.095 43.385 118.049 42.252C118.002 41.7398 118.002 41.2121 117.956 40.7931C117.956 40.3274 117.909 39.9394 117.909 39.6135C117.909 39.2876 117.863 39.0547 117.863 38.853C117.863 38.6667 117.863 38.6202 117.863 38.6202C117.863 38.6202 117.817 38.6667 117.817 38.853C117.817 39.0392 117.77 39.272 117.77 39.6135C117.77 39.9394 117.724 40.3274 117.724 40.7931C117.678 41.2121 117.678 41.7398 117.631 42.252C117.585 43.385 117.585 44.6577 117.539 46.0235C117.539 46.3495 117.539 46.7375 117.539 47.0634C117.539 47.4359 117.492 47.8239 117.492 48.1499C117.492 48.9104 117.492 49.6088 117.492 50.3693C117.492 51.0833 117.492 51.8283 117.492 52.5422C117.492 52.7285 117.492 52.9147 117.539 53.101C117.539 53.2407 117.539 53.4269 117.539 53.6132C117.539 53.9391 117.539 54.3271 117.539 54.653C117.539 55.367 117.585 56.0189 117.585 56.6397C117.585 57.3071 117.631 57.8658 117.631 58.4246C117.678 58.9833 117.678 59.4645 117.724 59.9301C117.724 60.3491 117.77 60.7837 117.77 61.0631C117.77 61.389 117.817 61.6684 117.817 61.8236C117.817 62.0099 117.863 62.103 117.863 62.103C117.863 62.103 117.863 62.0099 117.863 61.8236C117.863 61.6839 117.909 61.4046 117.909 61.0631C117.909 60.7837 117.956 60.3491 117.956 59.9301C118.002 59.4645 118.002 58.9833 118.049 58.4246C118.049 57.8658 118.095 57.2916 118.095 56.6397C118.095 56.0344 118.141 55.367 118.141 54.653C118.141 54.3271 118.141 53.9391 118.141 53.6132C118.141 53.4269 118.141 53.2407 118.188 53.101C118.188 52.9147 118.188 52.7285 118.188 52.5422C118.188 51.8283 118.188 51.0833 118.188 50.3693Z" fill="white"/>
<path d="M162.516 69.7857C162.516 69.8788 162.516 69.972 162.516 70.0496V73.371V76.2423V82.9628C162.331 90.4903 156.181 96.5744 148.61 96.5744C140.947 96.5744 134.704 90.3041 134.704 82.6058C134.612 78.4928 132.742 79.2844 132.742 77.2357H137.377C138.181 77.2357 138.799 77.8565 138.799 78.6636C138.799 77.8565 139.51 77.2357 140.22 77.2357H144.948C144.948 79.2999 142.986 78.4928 142.986 82.6058C142.986 82.6989 142.986 82.6989 142.986 82.6989C142.986 85.8341 143.079 92.3683 148.61 92.3683C154.234 92.3683 154.234 85.6479 154.234 82.6058V75.9785C154.234 72.7502 154.049 66.4798 148.61 66.4798C141.024 66.4798 134.874 60.3957 134.704 52.775V47.498C134.89 39.9705 141.039 33.8864 148.61 33.8864C156.274 33.8864 162.516 40.1567 162.516 47.855C162.516 51.968 164.478 51.1764 164.478 53.2251H159.75C159.04 53.2251 158.329 52.6043 158.329 51.7972C158.329 52.6043 157.711 53.2251 156.907 53.2251H152.272C152.272 51.1609 154.234 51.968 154.234 47.7619C154.234 44.6267 154.142 37.9993 148.61 37.9993C142.986 37.9993 142.986 44.7198 142.986 47.855V52.4181C142.986 55.5532 142.986 62.2737 148.61 62.2737C152.535 62.2737 156.104 63.981 158.684 66.5729C159.58 65.502 161.002 64.7881 162.516 64.7881C163.412 64.7881 164.293 64.9743 165.019 65.4089C163.505 66.2936 162.516 67.9077 162.516 69.7857ZM143.002 61.9943C143.002 61.9943 142.909 61.9012 142.816 61.8081C142.723 61.715 142.631 61.6218 142.554 61.5442L142.461 61.4511C142.368 61.358 142.275 61.2649 142.275 61.2649C142.013 61.001 141.827 60.644 141.565 60.2871C141.302 59.9301 141.117 59.48 140.854 59.0299C140.668 58.4867 140.406 57.959 140.236 57.3226C140.05 56.7018 139.88 56.0654 139.788 55.4446C139.788 55.3515 139.695 55.2583 139.695 55.1807C139.695 55.0876 139.695 54.9945 139.695 54.9169C139.602 54.7306 139.602 54.5599 139.602 54.3737C139.51 54.0167 139.417 53.6597 139.417 53.3027C139.324 52.5888 139.232 51.8748 139.232 51.1609C139.139 50.4469 139.139 49.6399 139.139 48.9259C139.139 48.7397 139.139 48.5689 139.139 48.3827C139.139 48.1964 139.139 48.0257 139.139 47.8395C139.139 47.4825 139.139 47.1255 139.139 46.8617C139.232 46.1477 139.324 45.4337 139.402 44.7974C139.402 44.1766 139.587 43.6333 139.664 43.0901C139.757 42.5469 139.927 42.0192 140.02 41.6622C140.205 41.2121 140.375 40.8551 140.56 40.5913C140.653 40.3274 140.823 40.0481 140.916 39.9705C141.008 39.8773 141.101 39.8773 141.101 39.7842H141.008C141.008 39.8773 140.916 39.8773 140.916 39.8773C140.823 39.8773 140.823 39.9705 140.73 39.9705C140.73 40.0636 140.638 40.0636 140.638 40.0636C140.545 40.1567 140.545 40.1567 140.452 40.2498C140.452 40.343 140.359 40.343 140.267 40.4361C140.081 40.6999 139.819 41.0569 139.556 41.4139C139.371 41.864 139.108 42.3141 138.938 42.8418C138.753 43.385 138.49 44.0058 138.397 44.6267C138.212 45.3406 138.135 45.977 138.042 46.6909C137.949 47.0479 137.949 47.4049 137.856 47.855C137.856 48.212 137.856 48.5689 137.856 48.9259C137.764 49.733 137.764 50.4469 137.856 51.254C137.949 51.968 137.949 52.775 138.119 53.489C138.119 53.6752 138.212 53.9391 138.212 54.1098C138.212 54.2961 138.305 54.4668 138.305 54.653C138.397 55.01 138.49 55.367 138.567 55.724C138.753 56.4379 139.015 57.0743 139.278 57.6951C139.541 58.3159 139.819 58.8591 140.174 59.4024C140.437 59.8525 140.792 60.3026 141.147 60.6596C141.41 61.0165 141.766 61.2804 142.044 61.4666C142.306 61.6529 142.584 61.7305 142.662 61.8236C142.909 61.9012 143.002 61.9943 143.002 61.9943ZM158.962 79.4551C158.962 78.9119 158.87 78.2911 158.87 77.7478C158.87 77.127 158.777 76.5838 158.684 76.1337C158.684 75.8698 158.592 75.5905 158.592 75.3266C158.499 75.1404 158.499 74.8765 158.499 74.7058C158.406 74.2557 158.313 73.8056 158.143 73.4486C158.051 73.0916 157.958 72.8278 157.881 72.5484C157.881 72.3622 157.788 72.2845 157.788 72.1914C157.695 72.0983 157.695 72.0052 157.603 72.0052C157.603 71.8189 157.51 71.7413 157.51 71.7413C157.51 71.7413 157.51 71.8345 157.603 72.0052C157.603 72.0983 157.603 72.1914 157.603 72.269C157.603 72.3622 157.603 72.4553 157.603 72.5329C157.695 72.7967 157.695 73.1537 157.695 73.5107C157.695 73.6038 157.695 73.6969 157.695 73.7745C157.695 73.8677 157.695 73.9608 157.695 74.0384C157.695 74.3022 157.695 74.4885 157.695 74.6592C157.695 75.1093 157.695 75.637 157.695 76.0871C157.695 76.351 157.695 76.6303 157.695 76.8942C157.695 77.1581 157.695 77.4374 157.695 77.7013C157.695 77.9651 157.695 78.2445 157.695 78.5084C157.695 78.6946 157.695 78.8653 157.695 78.9585C157.695 79.1447 157.695 79.2223 157.695 79.4086C157.603 79.6724 157.603 80.0294 157.603 80.3088C157.603 80.4019 157.603 80.5726 157.603 80.7588V81.209C157.603 81.7522 157.51 82.373 157.51 82.9162C157.417 83.4594 157.417 84.0803 157.325 84.6235C157.325 84.7166 157.325 84.8874 157.325 84.9805C157.232 85.1667 157.232 85.2443 157.232 85.4306C157.232 85.6944 157.139 85.8807 157.139 86.1445C157.139 86.4084 157.046 86.6878 157.046 86.8585C156.954 87.1223 156.954 87.3086 156.861 87.5724C156.861 87.7587 156.768 87.9294 156.768 88.1933C156.676 88.3795 156.676 88.5502 156.583 88.7365C156.49 89.0935 156.398 89.3573 156.32 89.6367C156.32 89.6367 156.32 89.7298 156.32 89.8229C156.228 89.8229 156.228 89.9161 156.228 89.9161C156.228 90.0092 156.135 90.1023 156.135 90.1799C156.042 90.273 156.042 90.3662 156.042 90.3662C156.042 90.3662 156.135 90.3662 156.228 90.1799C156.32 90.0868 156.413 89.9161 156.583 89.7298C156.768 89.5436 156.846 89.1866 157.031 88.9227C157.124 88.7365 157.216 88.5658 157.294 88.3795C157.386 88.1933 157.479 88.0225 157.556 87.7587C157.649 87.5724 157.742 87.3086 157.819 87.1379C157.912 86.9516 157.912 86.874 157.912 86.7809C158.004 86.5946 158.004 86.517 158.097 86.4239C158.097 86.16 158.19 85.8807 158.283 85.6168C158.375 85.353 158.375 85.0736 158.468 84.8098C158.468 84.6235 158.468 84.5459 158.561 84.3596C158.561 84.1734 158.561 84.0958 158.561 83.9096C158.653 83.6457 158.653 83.3663 158.746 83.0093C158.746 82.9162 158.746 82.7455 158.746 82.5593C158.746 82.4661 158.839 82.2954 158.839 82.1091C158.839 81.8453 158.839 81.5659 158.839 81.209C158.931 80.9451 158.931 80.6657 158.931 80.3088C158.962 80.0915 158.962 79.7345 158.962 79.4551Z" fill="white"/>
<path d="M22.9946 71.555H54.2981V71.2446H22.9946V71.555ZM110.74 71.2446V71.555H142.028V71.2446H110.74Z" fill="white"/>
<path fill-rule="evenodd" clip-rule="evenodd" d="M51.7023 75.4507C52.6757 76.2733 54.3599 77.6857 57.3883 79.5327C59.026 80.557 63.8931 83.2111 69.3472 84.6855C72.0512 85.4461 74.8632 85.9738 77.289 86.2531C79.7302 86.5325 81.7852 86.5791 83.0213 86.5791C84.2574 86.5791 86.3123 86.5325 88.7536 86.2531C91.1948 85.9738 93.9914 85.4616 96.6953 84.6855C102.134 83.1956 107.017 80.557 108.654 79.5327C111.698 77.6857 113.367 76.2888 114.34 75.4507C115.314 74.6126 115.561 74.2867 115.514 74.2401C115.468 74.1936 115.144 74.4108 114.108 75.1558C113.073 75.9008 111.358 77.2046 108.33 78.9739C106.692 79.9517 101.871 82.5437 96.5099 83.9871C93.8369 84.7321 91.0866 85.2443 88.6763 85.5081C86.2814 85.772 84.2419 85.8185 83.0367 85.8185C81.8316 85.8185 79.792 85.772 77.3972 85.5081C75.0023 85.2443 72.2366 84.7321 69.5636 83.9871C64.1866 82.5437 59.366 79.9517 57.7436 78.9739C54.7153 77.2046 53.0002 75.8853 51.965 75.1558C50.9452 74.3953 50.6053 74.178 50.559 74.2401C50.4817 74.2867 50.7289 74.5971 51.7023 75.4507ZM124.244 85.415C122.885 86.4083 120.629 88.1622 116.612 90.5058C115.514 91.1421 113.398 92.3528 110.632 93.6099C107.866 94.8826 104.452 96.1864 100.913 97.1797C97.3597 98.173 93.6824 98.8559 90.4995 99.1974C87.3166 99.5544 84.6282 99.6164 83.0213 99.6164C81.4144 99.6164 78.7414 99.5544 75.5585 99.1974C72.3756 98.8559 68.6983 98.173 65.1446 97.1797C61.5909 96.2019 58.1763 94.8826 55.4105 93.6099C52.6448 92.3372 50.5281 91.1421 49.431 90.5058C45.4138 88.1467 43.158 86.3928 41.7983 85.415C40.4541 84.4062 40.0215 84.0957 39.9751 84.1578C39.9288 84.2044 40.2841 84.6079 41.5665 85.7099C42.8644 86.7963 45.0893 88.6278 49.122 91.0645C50.219 91.7164 52.3513 92.9581 55.1479 94.2463C57.929 95.55 61.3746 96.8693 64.9746 97.8781C68.5592 98.9025 72.2829 99.5854 75.4967 99.9424C78.7105 100.315 81.4298 100.377 83.0522 100.377C84.6745 100.377 87.3784 100.315 90.6077 99.9424C93.8214 99.5854 97.5451 98.887 101.13 97.8781C104.714 96.8693 108.16 95.5345 110.956 94.2463C113.738 92.9581 115.87 91.7164 116.982 91.0645C121 88.6278 123.224 86.7963 124.522 85.7099C125.805 84.6079 126.16 84.2044 126.114 84.1578C126.021 84.0957 125.588 84.4062 124.244 85.415Z" fill="white"/>
<path fill-rule="evenodd" clip-rule="evenodd" d="M114.34 28.2678C113.367 27.4452 111.683 26.0329 108.654 24.1859C107.016 23.1615 102.149 20.5075 96.6953 19.033C93.9914 18.257 91.1793 17.7448 88.7535 17.4654C86.3123 17.1861 84.2573 17.1395 83.0213 17.1395C81.7852 17.1395 79.7302 17.1861 77.289 17.4654C74.8477 17.7448 72.0511 18.257 69.3472 19.033C63.9085 20.523 59.026 23.1615 57.3882 24.1859C54.3444 26.0329 52.6757 27.4297 51.7023 28.2678C50.7289 29.106 50.4817 29.4319 50.5281 29.4785C50.5744 29.525 50.8989 29.3077 51.9341 28.5627C52.9693 27.8177 54.6843 26.514 57.7127 24.7446C59.3505 23.7668 64.1712 21.1749 69.5326 19.7315C72.2056 18.9865 74.9713 18.4743 77.3662 18.2104C79.7611 17.9466 81.8006 17.9 83.0058 17.9C84.2264 17.9 86.2505 17.9466 88.6454 18.2104C91.0403 18.4743 93.806 18.9865 96.479 19.7315C101.856 21.1749 106.677 23.7668 108.299 24.7446C111.327 26.514 113.042 27.8177 114.078 28.5627C115.113 29.3077 115.437 29.525 115.484 29.4785C115.561 29.4319 115.314 29.1215 114.34 28.2678ZM124.491 15.4012C123.194 14.3147 120.969 12.4833 116.951 10.0465C115.854 9.39468 113.722 8.15302 110.926 6.8648C108.144 5.56107 104.699 4.24181 101.099 3.23296C97.5142 2.2086 93.806 1.52569 90.5767 1.16871C87.3629 0.796214 84.6436 0.734131 83.0367 0.734131C81.4144 0.734131 78.7105 0.796214 75.4812 1.16871C72.2674 1.52569 68.5438 2.22412 64.9592 3.23296C61.3746 4.24181 57.929 5.57659 55.1324 6.8648C52.3513 8.15302 50.2036 9.39468 49.1066 10.0465C45.0893 12.4833 42.8644 14.3147 41.5665 15.4012C40.2841 16.5032 39.9288 16.9067 39.9751 16.9533C40.0215 17.0153 40.4541 16.7049 41.7983 15.6961C43.158 14.7028 45.4293 12.9489 49.431 10.6053C50.5281 9.96894 52.6448 8.75833 55.4105 7.50115C58.1762 6.22846 61.5909 4.92472 65.1446 3.93139C68.6983 2.93807 72.3756 2.25516 75.5585 1.9137C78.7414 1.55673 81.4298 1.49464 83.0213 1.49464C84.6281 1.49464 87.3011 1.55673 90.4995 1.9137C93.6824 2.27068 97.3597 2.93807 100.913 3.93139C104.467 4.92472 107.882 6.22846 110.647 7.50115C113.413 8.77385 115.53 9.96894 116.627 10.6053C120.644 12.9644 122.9 14.7183 124.26 15.6961C125.604 16.7049 126.037 17.0153 126.083 16.9533C126.129 16.9067 125.774 16.5032 124.491 15.4012Z" fill="white"/>
<path d="M125.449 23.0839C125.279 22.8667 125.048 22.7891 124.77 22.8511C124.507 22.9132 124.352 23.0995 124.306 23.3633C124.26 23.6272 124.043 23.86 123.796 23.891C123.456 23.9376 123.209 24.2325 123.24 24.5739C123.271 24.9309 123.533 25.1792 123.904 25.1792C123.982 25.1637 124.059 25.1637 124.136 25.1482C124.862 24.993 125.418 24.4342 125.558 23.7048C125.604 23.4875 125.604 23.2702 125.449 23.0839ZM124.461 23.8755C124.291 24.0773 124.074 24.2014 123.827 24.2946C123.765 24.3101 123.719 24.3101 123.703 24.248C123.688 24.1859 123.719 24.1549 123.765 24.1238C123.92 24.0462 124.059 23.9686 124.198 23.8755C124.337 23.7824 124.43 23.6427 124.445 23.4564C124.461 23.4099 124.476 23.3478 124.538 23.3633C124.569 23.3788 124.6 23.4099 124.615 23.4254C124.615 23.6272 124.553 23.7513 124.461 23.8755Z" fill="white"/>
<path d="M41.5203 24.3722C41.4585 24.1083 41.2731 23.9531 41.0104 23.9066C40.7477 23.86 40.516 23.6427 40.4851 23.3944C40.4387 23.0529 40.1451 22.8046 39.8052 22.8356C39.4499 22.8667 39.2026 23.1305 39.2026 23.503C39.2181 23.5806 39.2181 23.6582 39.2335 23.7358C39.388 24.4653 39.9443 25.0241 40.6705 25.1637C40.8868 25.2103 41.1186 25.1948 41.304 25.0551C41.5048 24.8844 41.5975 24.6516 41.5203 24.3722ZM40.9331 24.217C40.7477 24.2015 40.6241 24.1394 40.5005 24.0462C40.2997 23.8755 40.176 23.6582 40.0833 23.4099C40.0679 23.3478 40.0679 23.3013 40.1297 23.2857C40.1915 23.2702 40.2224 23.3012 40.2533 23.3478C40.3306 23.503 40.4078 23.6427 40.5005 23.7824C40.5932 23.9221 40.7323 24.0152 40.9177 24.0307C40.964 24.0462 41.0258 24.0618 41.0104 24.1238C40.9949 24.1704 40.9486 24.2015 40.9331 24.217Z" fill="white"/>
<path d="M127.164 75.9474C127.041 75.7922 126.871 75.7302 126.67 75.7767C126.485 75.8233 126.361 75.963 126.33 76.1492C126.299 76.351 126.145 76.5062 125.959 76.5372C125.712 76.5683 125.527 76.7856 125.558 77.0339C125.573 77.2978 125.774 77.484 126.037 77.484C126.098 77.484 126.16 77.4685 126.206 77.4685C126.732 77.3598 127.149 76.9408 127.242 76.4131C127.273 76.2423 127.273 76.0871 127.164 75.9474ZM126.423 76.5372C126.299 76.6924 126.145 76.7856 125.959 76.8477C125.913 76.8632 125.882 76.8632 125.867 76.8166C125.851 76.7701 125.867 76.7545 125.913 76.7235C126.021 76.6614 126.129 76.6148 126.237 76.5372C126.346 76.4596 126.407 76.3665 126.423 76.2268C126.423 76.1803 126.454 76.1492 126.5 76.1647C126.531 76.1647 126.546 76.1958 126.562 76.2113C126.546 76.351 126.5 76.4441 126.423 76.5372Z" fill="white"/>
<path d="M40.5005 76.8942C40.4541 76.7079 40.315 76.5838 40.1142 76.5527C39.9133 76.5217 39.7588 76.3665 39.7279 76.1802C39.697 75.9319 39.4807 75.7457 39.2335 75.7767C38.9708 75.7922 38.7854 75.994 38.7854 76.2578C38.7854 76.3199 38.8009 76.382 38.8009 76.4286C38.909 76.9563 39.3262 77.3753 39.8515 77.4685C40.0215 77.4995 40.176 77.4995 40.315 77.3909C40.5004 77.2667 40.5623 77.096 40.5005 76.8942ZM40.0678 76.7855C39.9288 76.77 39.8361 76.7235 39.7588 76.6614C39.6043 76.5372 39.5116 76.382 39.4498 76.1958C39.4343 76.1492 39.4343 76.1182 39.4807 76.1026C39.527 76.0871 39.5425 76.1026 39.5734 76.1492C39.6352 76.2578 39.6816 76.3665 39.7588 76.4751C39.8361 76.5838 39.9288 76.6459 40.0678 76.6614C40.1142 76.6614 40.1451 76.6924 40.1296 76.739C40.1142 76.7545 40.0833 76.77 40.0678 76.7855Z" fill="white"/>
<path d="M124.414 25.8932C125.447 25.8932 126.284 25.0524 126.284 24.0152C126.284 22.978 125.447 22.1372 124.414 22.1372C123.382 22.1372 122.545 22.978 122.545 24.0152C122.545 25.0524 123.382 25.8932 124.414 25.8932Z" stroke="white" stroke-width="0.535714" stroke-miterlimit="10"/>
<path d="M40.3615 25.8932C41.394 25.8932 42.2311 25.0524 42.2311 24.0152C42.2311 22.978 41.394 22.1372 40.3615 22.1372C39.329 22.1372 38.4919 22.978 38.4919 24.0152C38.4919 25.0524 39.329 25.8932 40.3615 25.8932Z" stroke="white" stroke-width="0.535714" stroke-miterlimit="10"/>
<path d="M126.407 77.9961C127.158 77.9961 127.767 77.3847 127.767 76.6303C127.767 75.876 127.158 75.2645 126.407 75.2645C125.656 75.2645 125.048 75.876 125.048 76.6303C125.048 77.3847 125.656 77.9961 126.407 77.9961Z" stroke="white" stroke-width="0.535714" stroke-miterlimit="10"/>
<path d="M39.6662 77.9961C40.4171 77.9961 41.0259 77.3847 41.0259 76.6303C41.0259 75.876 40.4171 75.2645 39.6662 75.2645C38.9153 75.2645 38.3065 75.876 38.3065 76.6303C38.3065 77.3847 38.9153 77.9961 39.6662 77.9961Z" stroke="white" stroke-width="0.535714" stroke-miterlimit="10"/>
<path d="M53.6955 81.628L52.5058 83.5215L52.7221 83.6612C52.7994 83.7077 52.8766 83.7388 52.9384 83.7077C53.0002 83.6922 53.0775 83.6301 53.1856 83.537C53.2629 83.4749 53.3093 83.4284 53.3247 83.4284C53.3402 83.4284 53.3711 83.4284 53.4174 83.4594L53.5565 83.5525C53.6183 83.5836 53.6183 83.6301 53.5874 83.6767L52.8921 84.7942C52.8612 84.8407 52.8148 84.8563 52.7685 84.8252L52.614 84.7321C52.5831 84.7166 52.5522 84.6855 52.5522 84.67C52.5522 84.6545 52.5522 84.6079 52.5831 84.5303C52.6294 84.3596 52.6449 84.251 52.614 84.1889C52.5831 84.1268 52.5522 84.0802 52.4904 84.0492L52.2741 83.9095L51.177 85.6633C51.0998 85.772 51.0998 85.8806 51.1461 85.9893C51.177 86.0669 51.177 86.129 51.1461 86.1755L51.0534 86.3152C51.0225 86.3618 50.9762 86.3773 50.9298 86.3307L49.9255 85.6944C49.8792 85.6633 49.8637 85.6323 49.8946 85.5857L49.9873 85.4305C50.0182 85.384 50.0646 85.3529 50.1573 85.3529C50.2809 85.3529 50.3736 85.2908 50.4354 85.1822L52.8303 81.3486C52.8921 81.24 52.9075 81.1313 52.8612 81.0227C52.8303 80.9451 52.8303 80.883 52.8612 80.8364L52.9539 80.6967C52.9848 80.6502 53.0157 80.6346 53.062 80.6657L54.7307 81.7211C54.7771 81.7521 54.8543 81.7987 54.9779 81.8608C55.0398 81.8918 55.0707 81.9073 55.0861 81.9229C55.1325 81.9539 55.1634 81.9849 55.1634 82.0005C55.1634 82.016 55.1479 82.047 55.1325 82.0936L54.5299 83.0559C54.499 83.118 54.4526 83.1179 54.3908 83.0869L54.2672 83.0093C54.2209 82.9783 54.2054 82.9627 54.2054 82.9317C54.2054 82.9007 54.2209 82.8541 54.2672 82.7455C54.3754 82.5126 54.4063 82.3264 54.3599 82.1867C54.329 82.0625 54.2209 81.9384 54.0663 81.8453L53.6955 81.628Z" fill="white"/>
<path d="M56.1059 89.3418L53.8192 88.0846C53.7728 88.0535 53.7574 88.007 53.7883 87.9604L53.8655 87.8207C53.8964 87.7742 53.9583 87.7431 54.0664 87.7276C54.1591 87.7121 54.2364 87.65 54.2982 87.5414L56.4458 83.5681C56.5076 83.4594 56.5076 83.3353 56.4613 83.2421C56.4304 83.18 56.4304 83.118 56.4458 83.0559L56.5385 82.9007C56.554 82.8541 56.6003 82.8541 56.6467 82.8852L58.3617 83.8319C58.3927 83.8474 58.4545 83.8785 58.5472 83.925C58.6244 83.9561 58.6862 83.9871 58.7017 84.0026C58.7789 84.0492 58.7944 84.0802 58.7789 84.1268L58.2381 85.1046C58.2072 85.1512 58.1918 85.1822 58.1763 85.1822C58.1609 85.1822 58.13 85.1822 58.0836 85.1512L57.96 85.0891C57.9137 85.0581 57.8982 85.0115 57.9137 84.9494C57.9909 84.7632 58.0218 84.5924 58.0218 84.4372C58.0218 84.282 57.9291 84.1423 57.7437 84.0492L57.3265 83.8164L56.2913 85.7099L56.4458 85.7875C56.5385 85.8341 56.6158 85.8651 56.6776 85.8341C56.7394 85.8186 56.8476 85.7254 57.0021 85.5547C57.0484 85.5081 57.0793 85.4771 57.0948 85.4771C57.1102 85.4771 57.1257 85.4771 57.1566 85.4926L57.3111 85.5702C57.3729 85.6013 57.3883 85.6478 57.3574 85.6944L56.6776 86.9516C56.6467 86.9981 56.6003 87.0137 56.554 86.9826L56.3995 86.905C56.3686 86.8895 56.3531 86.8584 56.3377 86.8429C56.3377 86.8119 56.3377 86.7498 56.3686 86.6567C56.4149 86.4704 56.4304 86.3618 56.3995 86.2997C56.3686 86.2376 56.3222 86.1911 56.2295 86.1445L56.0905 86.0669L54.9317 88.1932L55.3797 88.4416C55.5497 88.5347 55.6887 88.5502 55.7969 88.5192C55.9051 88.4881 56.1059 88.3019 56.384 87.9915C56.4458 87.9294 56.5076 87.8983 56.5694 87.9294L56.7085 88.007C56.7703 88.038 56.7703 88.0846 56.7394 88.1311L56.1059 89.3418Z" fill="white"/>
<path d="M59.1652 90.0558C59.1034 90.1799 59.1034 90.2886 59.1652 90.3817C59.2115 90.4438 59.2115 90.5059 59.1961 90.5679L59.1188 90.7232C59.0879 90.7697 59.057 90.7852 58.9952 90.7542L57.9291 90.242C57.8827 90.211 57.8673 90.1799 57.8827 90.1334L57.96 89.9782C57.9909 89.9316 58.0373 89.9006 58.1145 89.885C58.2381 89.8695 58.3154 89.7919 58.3772 89.6833L60.3085 85.6013C60.3703 85.4771 60.3549 85.3685 60.3085 85.2754C60.2622 85.2133 60.2622 85.1512 60.2931 85.0891L60.3703 84.9339C60.4012 84.8873 60.4321 84.8718 60.4939 84.9029L61.5601 85.4151C61.6064 85.4461 61.6219 85.4771 61.6064 85.5237L61.5292 85.6789C61.4983 85.7255 61.4519 85.772 61.3746 85.772C61.251 85.7876 61.1738 85.8652 61.112 85.9738L59.1652 90.0558Z" fill="white"/>
<path d="M62.3325 91.0955L63.924 87.2309C63.9703 87.1067 63.9703 86.9981 63.8931 86.9049C63.8467 86.8429 63.8467 86.7808 63.8622 86.7187L63.924 86.5635C63.9394 86.5169 63.9858 86.5014 64.0476 86.5169L65.1446 86.967C65.1909 86.9825 65.2064 87.0291 65.1909 87.0757L65.1291 87.2309C65.1137 87.2774 65.0519 87.324 64.9746 87.3395C64.851 87.3706 64.7738 87.4326 64.7274 87.5568L63.3214 91.0024C63.136 91.4525 62.8888 91.7474 62.5643 91.9181C62.2398 92.0888 61.9154 92.1044 61.5909 91.9802C61.3437 91.8871 61.1737 91.7319 61.0965 91.5456C61.0038 91.3594 60.9883 91.1731 61.0656 91.0024C61.1119 90.8937 61.1892 90.8161 61.2973 90.7696C61.4055 90.723 61.5291 90.723 61.6527 90.7696C61.7609 90.8161 61.8227 90.8782 61.869 90.9558C61.9154 91.0334 61.9154 91.1266 61.869 91.2197C61.8536 91.2507 61.8227 91.2973 61.7918 91.3594C61.7763 91.3904 61.7609 91.4214 61.7454 91.437C61.7145 91.5301 61.7454 91.5922 61.8381 91.6387C61.9926 91.7163 62.1626 91.5301 62.3325 91.0955Z" fill="white"/>
<path d="M67.5396 88.6433L67.586 88.3795C67.6014 88.3019 67.6169 88.2553 67.6169 88.2398C67.6323 88.2088 67.6478 88.2088 67.6941 88.1932L68.4049 88.1156C68.4203 88.1156 68.4203 88.1156 68.4358 88.1156C68.4667 88.1312 68.4821 88.1622 68.4821 88.2088L67.8486 93.4548C67.8332 93.5479 67.8332 93.6255 67.8486 93.672C67.8641 93.7186 67.895 93.7807 67.9568 93.8428C68.0031 93.8893 68.0186 93.9359 68.0031 93.9825L67.9568 94.1377C67.9413 94.1997 67.9104 94.2153 67.8641 94.1997L66.6589 93.7962C66.5971 93.7807 66.5662 93.7341 66.5971 93.672L66.6435 93.5168C66.6589 93.4548 66.7207 93.4237 66.8134 93.4082C66.9216 93.3927 66.9988 93.3306 67.0297 93.253C67.0452 93.2219 67.0452 93.2064 67.0452 93.1599L67.1379 92.3528L66.1954 92.0424L65.8091 92.7253C65.7937 92.7563 65.7782 92.7718 65.7782 92.7874C65.7473 92.865 65.7782 92.9581 65.8555 93.0823C65.9018 93.1599 65.9173 93.2219 65.9018 93.2685L65.8555 93.4237C65.84 93.4858 65.7937 93.5013 65.7164 93.4703L64.9593 93.2219C64.8821 93.1909 64.8357 93.1443 64.8666 93.0978L64.9284 92.9115C64.9439 92.865 64.9902 92.8339 65.052 92.8184C65.1756 92.7874 65.2683 92.7098 65.3456 92.5701L67.5396 88.6433ZM67.416 89.885L66.4271 91.6233L67.1688 91.8716L67.416 89.885ZM67.4315 87.5414L67.4778 87.4017C67.5396 87.2154 67.6323 87.0758 67.7405 86.9981C67.8641 86.905 67.9877 86.8895 68.1267 86.9361C68.2504 86.9826 68.3894 87.0913 68.5439 87.2775C68.6675 87.4172 68.7602 87.5103 68.822 87.5259C68.9302 87.5569 69.0229 87.5103 69.0692 87.3551L69.1002 87.262L69.4092 87.3706L69.3474 87.5414C69.2856 87.7121 69.2083 87.8363 69.0847 87.9294C68.9611 88.007 68.8529 88.038 68.7139 87.9915C68.5748 87.9449 68.4203 87.8207 68.2658 87.619C68.1576 87.4793 68.0649 87.4017 68.0031 87.3862C67.895 87.3551 67.8023 87.4172 67.7405 87.5724L67.7096 87.6655L67.4315 87.5414Z" fill="white"/>
<path d="M71.495 95.2396C70.9851 95.1154 70.6606 94.7584 70.5216 94.1842C70.3825 93.6099 70.4289 92.8494 70.6452 91.9337C70.8615 91.0179 71.155 90.3195 71.5413 89.8384C71.9276 89.3572 72.3602 89.1865 72.8392 89.2951C73.3027 89.4038 73.5963 89.7452 73.7508 90.304C73.9053 90.8627 73.8589 91.6233 73.6272 92.6011C73.3954 93.5944 73.0864 94.3083 72.7001 94.7429C72.3448 95.1775 71.9276 95.3482 71.495 95.2396ZM71.5413 94.836C71.6495 94.8671 71.7731 94.8205 71.8967 94.6964C72.0203 94.5722 72.1748 94.1997 72.3757 93.5633C72.5611 92.927 72.731 92.3372 72.8546 91.8095C72.9628 91.3284 73.0401 90.9248 73.0555 90.5989C73.071 90.2729 73.0555 90.0557 73.0091 89.947C72.9628 89.8384 72.8855 89.7763 72.7774 89.7452C72.6847 89.7297 72.592 89.7452 72.4993 89.7918C72.4066 89.8384 72.3293 89.947 72.2366 90.1177C72.1593 90.2885 72.0357 90.6299 71.8812 91.1421C71.7267 91.6543 71.5877 92.1975 71.4486 92.7563C71.2787 93.4547 71.2168 93.9669 71.2323 94.2928C71.2477 94.6032 71.3559 94.7895 71.5413 94.836Z" fill="white"/>
<path d="M80.9046 96.6054L78.3089 96.3726C78.247 96.3726 78.2161 96.3416 78.2316 96.2795L78.247 96.1088C78.247 96.0622 78.2934 96.0001 78.3861 95.938C78.4634 95.8915 78.5097 95.7984 78.5252 95.6742L78.9269 91.1732C78.9423 91.049 78.896 90.9404 78.8187 90.8628C78.7569 90.8162 78.726 90.7541 78.7415 90.7076L78.7569 90.5213C78.7569 90.4748 78.7878 90.4592 78.8496 90.4592L80.7964 90.63C80.8273 90.63 80.9046 90.63 80.9973 90.63C81.09 90.63 81.1364 90.63 81.1673 90.63C81.2445 90.63 81.2909 90.661 81.2909 90.7076L81.1982 91.8251C81.1982 91.8871 81.1827 91.9182 81.1673 91.9337C81.1518 91.9492 81.1209 91.9492 81.0746 91.9492L80.9355 91.9337C80.8737 91.9337 80.8428 91.8871 80.8428 91.8251C80.8273 91.6233 80.7964 91.4526 80.7346 91.2974C80.6728 91.1577 80.5338 91.0645 80.3175 91.049L79.8385 91.0025L79.6531 93.1598L79.823 93.1754C79.9312 93.1909 80.0084 93.1754 80.0548 93.1288C80.1012 93.0977 80.163 92.9581 80.2402 92.7563C80.2711 92.6942 80.2866 92.6477 80.2866 92.6477C80.302 92.6477 80.3175 92.6321 80.3484 92.6477L80.5183 92.6632C80.5801 92.6632 80.611 92.7097 80.611 92.7718L80.4874 94.1997C80.4874 94.2618 80.4565 94.2928 80.3947 94.2773L80.2248 94.2618C80.1939 94.2618 80.163 94.2463 80.1475 94.2308C80.132 94.2152 80.1166 94.1532 80.1011 94.0445C80.0702 93.8583 80.0393 93.7496 79.9775 93.7031C79.9312 93.6565 79.8539 93.6255 79.7612 93.6255L79.6067 93.6099L79.3904 96.0156L79.9003 96.0622C80.0857 96.0777 80.2248 96.0467 80.302 95.9691C80.3793 95.8915 80.5029 95.6431 80.6419 95.2551C80.6728 95.162 80.7192 95.131 80.7964 95.131L80.9664 95.1465C81.0282 95.1465 81.0591 95.193 81.0591 95.2551L80.9046 96.6054Z" fill="white"/>
<path d="M86.8686 91.1422L87.0077 93.3771L87.2549 93.3616C87.3476 93.3616 87.4248 93.3306 87.4557 93.284C87.4866 93.2374 87.533 93.1443 87.5639 93.0046C87.5948 92.896 87.6102 92.8494 87.6102 92.8339C87.6257 92.8184 87.6566 92.8029 87.7029 92.8029L87.8729 92.7873C87.9347 92.7873 87.9656 92.8184 87.9811 92.8805L88.0583 94.1997C88.0583 94.2618 88.0429 94.2929 87.9811 94.2929L87.7956 94.3084C87.7493 94.3084 87.7184 94.3084 87.7029 94.2929C87.6875 94.2773 87.672 94.2308 87.6411 94.1532C87.5793 93.9824 87.5175 93.8893 87.4712 93.8583C87.4094 93.8272 87.3476 93.8117 87.2858 93.8117L87.0386 93.8272L87.1622 95.8915C87.1776 96.0312 87.224 96.1243 87.3167 96.1864C87.3785 96.233 87.4248 96.2795 87.4248 96.3261L87.4403 96.4968C87.4403 96.5589 87.4094 96.5899 87.3476 96.5899L86.1579 96.6675C86.0961 96.6675 86.0806 96.652 86.0652 96.5899L86.0497 96.4037C86.0497 96.3416 86.0806 96.295 86.1424 96.2485C86.2351 96.1709 86.2815 96.0777 86.266 95.9381L85.9879 91.4215C85.9725 91.2974 85.9261 91.1887 85.8179 91.1266C85.7407 91.0801 85.7098 91.0335 85.7098 90.9869L85.6943 90.8162C85.6943 90.7541 85.7098 90.7231 85.7716 90.7231L87.7338 90.5989C87.7956 90.5989 87.8883 90.5834 88.012 90.5679C88.0738 90.5524 88.1201 90.5524 88.1356 90.5524C88.1974 90.5524 88.2283 90.5524 88.2437 90.5679C88.2592 90.5834 88.2592 90.6145 88.2746 90.661L88.3364 91.794C88.3364 91.8561 88.3055 91.9027 88.2283 91.9027L88.0738 91.9182C88.0274 91.9182 87.9965 91.9182 87.9811 91.9027C87.9656 91.8872 87.9502 91.8251 87.9193 91.7164C87.8575 91.4681 87.7802 91.2974 87.672 91.2042C87.5639 91.1266 87.4248 91.0801 87.224 91.0956L86.8686 91.1422Z" fill="white"/>
<path d="M93.3888 95.8759L90.8085 96.2795C90.7467 96.295 90.7158 96.264 90.7004 96.2019L90.6695 96.0311C90.654 95.9846 90.7004 95.907 90.7622 95.8449C90.824 95.7828 90.8549 95.6742 90.824 95.55L90.1441 91.08C90.1287 90.9559 90.0669 90.8628 89.9587 90.8007C89.8969 90.7696 89.8506 90.7231 89.8351 90.661L89.8042 90.4747C89.8042 90.4282 89.8197 90.3971 89.8815 90.3816L91.8128 90.0867C91.8437 90.0867 91.921 90.0712 92.0137 90.0402C92.1064 90.0246 92.1528 90.0091 92.1837 90.0091C92.2609 89.9936 92.3073 90.0091 92.3227 90.0557L92.4927 91.1576C92.5081 91.2197 92.5081 91.2508 92.4927 91.2663C92.4772 91.2818 92.4463 91.2973 92.4 91.2973L92.2609 91.3128C92.1991 91.3284 92.1682 91.2973 92.1373 91.2197C92.0755 91.0335 91.9983 90.8628 91.9055 90.7386C91.8128 90.6144 91.6583 90.5679 91.442 90.5989L90.963 90.6765L91.2875 92.8184L91.4575 92.7873C91.5656 92.7718 91.6429 92.7408 91.6738 92.6942C91.7047 92.6476 91.7356 92.5079 91.7665 92.2751C91.7819 92.1975 91.7819 92.1665 91.7974 92.151C91.7974 92.1355 91.8283 92.1355 91.8592 92.1355L92.0292 92.1044C92.091 92.0889 92.1373 92.1199 92.1373 92.182L92.3536 93.6099C92.3691 93.672 92.3382 93.703 92.2764 93.7186L92.1064 93.7496C92.0755 93.7496 92.0446 93.7496 92.0292 93.7341C92.0137 93.7186 91.9828 93.6565 91.9365 93.5634C91.8592 93.3926 91.7974 93.284 91.7356 93.2529C91.6738 93.2219 91.5965 93.2064 91.5038 93.2219L91.3493 93.2374L91.7201 95.6276L92.23 95.55C92.4154 95.519 92.539 95.4569 92.6008 95.3482C92.6627 95.2551 92.709 94.9913 92.7554 94.5722C92.7708 94.4791 92.8017 94.4325 92.8635 94.417L93.018 94.386C93.0798 94.3704 93.1107 94.4015 93.1262 94.4636L93.3888 95.8759Z" fill="white"/>
<path d="M96.2936 94.5256C96.3245 94.6498 96.3864 94.7429 96.4945 94.7894C96.5718 94.8205 96.6181 94.8515 96.6181 94.9136L96.6645 95.0843C96.6799 95.1464 96.649 95.1775 96.5872 95.193L95.4284 95.4724C95.3666 95.4879 95.3357 95.4724 95.3357 95.4103L95.2893 95.2395C95.2739 95.1775 95.2893 95.1309 95.3511 95.0688C95.4284 94.9757 95.4593 94.867 95.4284 94.7429L94.3932 90.3505C94.3623 90.2264 94.3005 90.1332 94.1923 90.1022C94.1151 90.0712 94.0687 90.0246 94.0533 89.978L94.0224 89.8073C94.0069 89.7452 94.0378 89.7142 94.0996 89.6987L95.2584 89.4193C95.3202 89.4038 95.3511 89.4193 95.3511 89.4814L95.3975 89.6521C95.4129 89.7142 95.3975 89.7607 95.3357 89.8228C95.2584 89.916 95.2275 90.0246 95.2584 90.1488L96.2936 94.5256Z" fill="white"/>
<path d="M99.461 93.284L98.2095 89.2951C98.1631 89.171 98.1013 89.0934 97.9777 89.0623C97.9005 89.0468 97.8541 89.0003 97.8387 88.9382L97.7923 88.783C97.7769 88.7209 97.7923 88.6898 97.8541 88.6743L98.982 88.3173C99.0284 88.3018 99.0593 88.3173 99.0747 88.3639L99.1211 88.5346C99.1365 88.5967 99.1211 88.6433 99.0747 88.7054C98.9975 88.7985 98.982 88.9071 99.0284 89.0313L100.141 92.5855C100.28 93.0356 100.28 93.4392 100.141 93.7806C100.002 94.1221 99.7546 94.3394 99.4301 94.448C99.1829 94.5256 98.9511 94.5256 98.7657 94.4325C98.5803 94.3549 98.4567 94.2152 98.3949 94.0445C98.364 93.9203 98.364 93.8117 98.4258 93.703C98.4876 93.5944 98.5649 93.5168 98.7039 93.4857C98.8121 93.4547 98.9048 93.4547 98.982 93.4857C99.0593 93.5168 99.1211 93.5944 99.152 93.6875C99.1674 93.7341 99.1674 93.7806 99.1829 93.8582C99.1829 93.8893 99.1983 93.9203 99.1983 93.9513C99.2292 94.0445 99.291 94.0755 99.3992 94.0445C99.5846 93.9824 99.6001 93.7341 99.461 93.284Z" fill="white"/>
<path d="M104.374 92.6787C103.88 92.8804 103.417 92.7873 102.968 92.3993C102.52 92.0113 102.119 91.3749 101.763 90.5058C101.408 89.6366 101.238 88.8916 101.269 88.2863C101.3 87.681 101.547 87.2774 102.01 87.0757C102.443 86.8894 102.891 86.9825 103.339 87.355C103.787 87.7275 104.205 88.3639 104.575 89.2951C104.962 90.2419 105.132 91.0024 105.07 91.5767C105.023 92.1199 104.792 92.5079 104.374 92.6787ZM104.189 92.3062C104.297 92.2596 104.359 92.1509 104.39 91.9802C104.421 91.8095 104.328 91.406 104.112 90.7851C103.896 90.1643 103.679 89.59 103.478 89.0778C103.293 88.6122 103.108 88.2552 102.922 87.9759C102.737 87.6965 102.598 87.5413 102.505 87.4792C102.397 87.4171 102.304 87.4171 102.196 87.4482C102.103 87.4792 102.041 87.5568 102.01 87.6499C101.964 87.7431 101.964 87.8827 101.995 88.069C102.026 88.2552 102.134 88.5967 102.304 89.1089C102.474 89.6211 102.675 90.1333 102.891 90.6765C103.169 91.3439 103.401 91.794 103.602 92.0423C103.818 92.2906 104.004 92.3838 104.189 92.3062Z" fill="white"/>
<path d="M106.167 86.0514L106.012 85.8341C105.966 85.772 105.935 85.7255 105.935 85.71C105.92 85.6944 105.935 85.6634 105.95 85.6324L106.383 85.0736C106.383 85.0581 106.399 85.0581 106.414 85.0581C106.445 85.0426 106.476 85.0581 106.507 85.0891L109.798 89.2021C109.86 89.2797 109.906 89.3263 109.952 89.3573C109.999 89.3884 110.06 89.3884 110.153 89.4039C110.215 89.4039 110.261 89.4349 110.292 89.466L110.369 89.6212C110.4 89.6677 110.385 89.7143 110.354 89.7298L109.226 90.3196C109.164 90.3507 109.118 90.3351 109.087 90.2886L109.01 90.1334C108.979 90.0868 108.994 90.0247 109.056 89.9471C109.118 89.854 109.133 89.7609 109.087 89.6833C109.072 89.6677 109.056 89.6367 109.041 89.6057L108.531 88.9693L107.65 89.4349L107.866 90.1955C107.882 90.2265 107.882 90.2575 107.897 90.2575C107.928 90.3196 108.021 90.3662 108.16 90.3972C108.253 90.4127 108.314 90.4438 108.33 90.4903L108.407 90.6455C108.438 90.6921 108.423 90.7387 108.345 90.7852L107.635 91.1577C107.557 91.2043 107.496 91.1888 107.48 91.1422L107.387 90.9715C107.356 90.9249 107.372 90.8784 107.403 90.8163C107.465 90.7076 107.48 90.5835 107.434 90.4283L106.167 86.0514ZM106.955 87.0292L107.496 88.9538L108.191 88.5813L106.955 87.0292Z" fill="white"/>
<path d="M109.149 83.8474L109.041 83.6767C109.025 83.6457 109.041 83.6146 109.087 83.5836L109.921 83.0559C110.4 82.761 110.91 82.6989 111.482 82.8851C112.054 83.0714 112.61 83.5836 113.151 84.4527C113.429 84.9028 113.645 85.3529 113.815 85.8341C113.969 86.2997 114.016 86.7188 113.939 87.0757C113.861 87.4327 113.568 87.7742 113.058 88.1001L112.239 88.6278C112.193 88.6588 112.177 88.6433 112.146 88.6123L112.038 88.4416C112.007 88.395 112.007 88.3329 112.038 88.2553C112.084 88.1467 112.069 88.038 111.992 87.9294L109.597 84.1113C109.535 84.0026 109.442 83.9405 109.334 83.9405C109.241 83.925 109.18 83.9095 109.149 83.8474ZM110.199 83.4284L112.872 87.6966C113.089 87.5569 113.228 87.4017 113.274 87.2309C113.321 87.0602 113.274 86.7653 113.104 86.3928C112.934 86.0048 112.718 85.5857 112.424 85.1356C112.115 84.6545 111.853 84.2665 111.636 84.0181C111.42 83.7543 111.235 83.568 111.08 83.4749C110.926 83.3663 110.787 83.3197 110.663 83.3042C110.539 83.2887 110.385 83.3197 110.199 83.4284Z" fill="white"/>
<path d="M114.201 81.0847L114.016 80.8985C113.954 80.8364 113.923 80.8054 113.923 80.7899C113.908 80.7743 113.908 80.7433 113.923 80.6967L114.263 80.0759C114.263 80.0604 114.278 80.0604 114.278 80.0449C114.309 80.0293 114.34 80.0293 114.371 80.0604L118.249 83.6146C118.327 83.6767 118.373 83.7232 118.419 83.7388C118.466 83.7543 118.527 83.7543 118.62 83.7543C118.682 83.7543 118.728 83.7698 118.759 83.8009L118.852 83.9405C118.883 83.9871 118.883 84.0337 118.852 84.0647L117.832 84.8252C117.77 84.8718 117.724 84.8563 117.693 84.8097L117.6 84.67C117.569 84.6234 117.569 84.5614 117.616 84.4838C117.662 84.3751 117.662 84.2975 117.6 84.2199C117.585 84.2044 117.569 84.1733 117.539 84.1578L116.936 83.6146L116.133 84.2044L116.457 84.9183C116.472 84.9494 116.488 84.9649 116.488 84.9804C116.534 85.0425 116.627 85.0735 116.766 85.0891C116.859 85.0891 116.921 85.1201 116.951 85.1512L117.044 85.2908C117.075 85.3374 117.075 85.384 117.013 85.4305L116.38 85.8961C116.303 85.9427 116.256 85.9582 116.225 85.8961L116.102 85.7409C116.071 85.6944 116.071 85.6478 116.086 85.5857C116.133 85.4771 116.117 85.3374 116.055 85.1977L114.201 81.0847ZM115.128 81.9073L115.963 83.7233L116.596 83.2576L115.128 81.9073Z" fill="white"/>
<path d="M83.5312 72.1914C83.5312 72.6881 83.5312 73.4331 83.5312 73.5262C82.6196 73.5262 82.6042 72.6415 82.6042 72.6415V72.3156C82.6042 72.1759 82.4806 72.0517 82.3415 72.0517H81.6308C81.4763 72.0517 81.3681 72.1759 81.3681 72.3156V75.0007C81.3681 75.1559 81.4917 75.2645 81.6308 75.28H81.708C81.8471 75.2645 81.9707 75.1559 81.9707 75.0007V74.9851C81.9707 74.9851 81.9862 74.4574 82.5733 74.4574C82.5733 74.5195 82.5733 74.9541 82.5733 75.2645C82.5733 75.2956 82.5733 75.3421 82.5733 75.3576C82.5733 75.5128 82.5733 75.606 82.5733 75.606V75.7146C82.5733 76.0406 82.5733 76.4596 82.5733 76.5217C81.9707 76.5217 81.9707 76.0095 81.9707 76.0095V75.994C81.9707 75.8388 81.8471 75.7301 81.708 75.7146H81.6308C81.4763 75.7301 81.3681 75.8388 81.3681 75.994V78.7101C81.3681 79.1757 81.5844 79.0981 81.5844 79.3154H81.0591C80.9664 79.3154 80.9046 79.2378 80.9046 79.1602C80.9046 79.2533 80.8273 79.3154 80.7501 79.3154H80.2248C80.2248 79.0826 80.4411 79.1757 80.4411 78.7256V75.9474C80.4256 75.7612 80.3175 75.5905 80.163 75.4973C80.2402 75.4508 80.3484 75.4197 80.4411 75.4197V72.1138C80.4256 71.6637 80.2248 71.7569 80.2248 71.524H80.7501C80.8273 71.524 80.9046 71.6017 80.9046 71.6948C80.9046 71.6017 80.9819 71.524 81.0591 71.524H81.1673H81.569H82.3879H82.9132H83.2377H83.3458H83.7476C83.7476 71.8189 83.5312 71.7258 83.5312 72.1914ZM80.951 75.4818C80.951 75.2956 80.951 75.1248 80.951 74.9386C80.951 74.8455 80.9355 74.7679 80.9355 74.6747C80.9355 74.5816 80.9355 74.504 80.9355 74.4109C80.9201 74.085 80.9201 73.759 80.9201 73.4952C80.9046 73.371 80.9046 73.2313 80.9046 73.1227C80.9046 73.014 80.8892 72.9209 80.8892 72.8433C80.8892 72.7657 80.8737 72.7036 80.8737 72.6571C80.8737 72.6105 80.8737 72.5794 80.8737 72.5794C80.8737 72.5794 80.8583 72.595 80.8583 72.6571C80.8583 72.7036 80.8428 72.7502 80.8428 72.8433C80.8428 72.9364 80.8273 73.014 80.8273 73.1227C80.8119 73.2313 80.8119 73.3555 80.8119 73.4952C80.7965 73.759 80.7964 74.085 80.7964 74.4109C80.7964 74.504 80.7964 74.5816 80.7964 74.6747C80.7964 74.7679 80.7964 74.8455 80.781 74.9386C80.781 75.1248 80.781 75.2956 80.781 75.4818C80.781 75.6681 80.781 75.8388 80.781 76.025C80.781 76.0716 80.7964 76.1182 80.7964 76.1492C80.7964 76.1802 80.7964 76.2423 80.7964 76.2734C80.7964 76.3665 80.7964 76.4441 80.7964 76.5372C80.7964 76.7079 80.8119 76.8631 80.8119 77.0184C80.8119 77.1736 80.8273 77.3132 80.8273 77.4529C80.8428 77.5305 80.8428 77.5771 80.8428 77.6392C80.8428 77.7013 80.8583 77.7633 80.8583 77.8254C80.8583 77.9341 80.8737 78.0272 80.8737 78.1048C80.8737 78.1824 80.8892 78.2445 80.8892 78.291C80.8892 78.3376 80.9046 78.3687 80.9046 78.3687C80.9046 78.3687 80.9046 78.3531 80.9046 78.291C80.9046 78.2445 80.9201 78.1979 80.9201 78.1048C80.9201 78.0272 80.9355 77.9341 80.9355 77.8254C80.951 77.7633 80.951 77.7013 80.951 77.6392C80.951 77.5771 80.9664 77.515 80.9664 77.4529C80.9664 77.3132 80.9819 77.1736 80.9819 77.0184C80.9819 76.8631 80.9973 76.7079 80.9973 76.5372C80.9973 76.4441 80.9973 76.3665 80.9973 76.2734C80.9973 76.2268 80.9973 76.1802 81.0128 76.1492C81.0128 76.1026 81.0128 76.0561 81.0128 76.025C80.951 75.8388 80.951 75.6525 80.951 75.4818Z" fill="white"/>
<path d="M84.2265 78.1204C84.072 78.198 83.9793 78.3532 83.9639 78.5394V81.6901C83.9484 82.4817 83.3149 83.1025 82.5269 83.1025C81.1518 83.1025 81.2909 81.7833 82.0789 81.7833C82.357 81.7833 82.5733 82.0005 82.5733 82.2799C82.5733 82.4972 82.4188 82.699 82.2179 82.7611C82.5424 82.8852 82.8514 82.6369 82.9596 82.4351C83.0832 82.2023 83.0832 81.8764 83.0832 81.6746V78.5549C83.0677 78.3842 82.975 78.229 82.836 78.1359C82.9132 78.1048 82.9905 78.0738 83.0832 78.0738V77.7634V75.0473C83.0832 74.6127 82.8823 74.7058 82.8823 74.4885H83.3613C83.4386 74.4885 83.5158 74.5661 83.5158 74.6437C83.5158 74.5661 83.5776 74.4885 83.6703 74.4885H84.1647C84.1647 74.7058 83.9639 74.6127 83.9639 75.0473V77.7634V78.0738C84.0566 78.0428 84.1493 78.0738 84.2265 78.1204ZM83.5931 78.3687C83.5931 78.1825 83.5931 78.0117 83.5931 77.8255C83.5931 77.7323 83.5931 77.6392 83.5931 77.5616C83.5931 77.484 83.5931 77.3909 83.5931 77.2978C83.5776 76.9718 83.5776 76.6459 83.5622 76.3665C83.5622 76.2424 83.5467 76.1027 83.5467 75.994C83.5467 75.8854 83.5313 75.7923 83.5313 75.7147C83.5158 75.6371 83.5158 75.575 83.5158 75.5284C83.5004 75.4818 83.5003 75.4663 83.5003 75.4663C83.5003 75.4663 83.5003 75.4818 83.5003 75.5284C83.5003 75.575 83.4849 75.6371 83.4849 75.7147C83.4695 75.7923 83.4694 75.8854 83.4694 75.994C83.4694 76.1027 83.454 76.2268 83.454 76.3665C83.4385 76.6459 83.4386 76.9563 83.4386 77.2978C83.4386 77.3754 83.4231 77.4685 83.4231 77.5616C83.4231 77.6392 83.4231 77.7323 83.4231 77.8255C83.4231 77.9962 83.4231 78.1825 83.4231 78.3687C83.4231 78.5394 83.4231 78.7257 83.4231 78.9119C83.4231 78.9585 83.4231 78.9895 83.4231 79.0361C83.4231 79.0826 83.4231 79.1292 83.4231 79.1602C83.4231 79.2534 83.4386 79.331 83.4386 79.4241C83.4386 79.5948 83.4385 79.75 83.454 79.9208C83.454 80.076 83.4694 80.2157 83.4694 80.3553C83.4694 80.4174 83.4695 80.4795 83.4849 80.5571C83.4849 80.6192 83.4849 80.6813 83.4849 80.7278C83.5004 80.8365 83.5003 80.9296 83.5003 81.0072C83.5003 81.0848 83.5158 81.1469 83.5158 81.1779C83.5158 81.2245 83.5158 81.24 83.5158 81.24C83.5158 81.24 83.5158 81.2245 83.5313 81.1779C83.5313 81.1469 83.5312 81.0693 83.5467 81.0072C83.5467 80.9296 83.5622 80.8365 83.5622 80.7278C83.5622 80.6658 83.5622 80.6192 83.5776 80.5571C83.5776 80.495 83.5776 80.4329 83.5776 80.3553C83.5931 80.2157 83.5931 80.076 83.5931 79.9208C83.5931 79.7656 83.5931 79.5948 83.6085 79.4241C83.6085 79.3465 83.6085 79.2534 83.6085 79.1602C83.6085 79.1292 83.6085 79.0826 83.6085 79.0361C83.6085 78.9895 83.6085 78.9585 83.6085 78.9119C83.5931 78.7257 83.5931 78.5549 83.5931 78.3687Z" fill="white"/>
<path d="M47.3453 24.2324L47.1908 24.3256C47.1444 24.3566 47.0981 24.3411 47.0517 24.2945L46.2946 23.0684C46.2483 22.9908 46.2483 22.9287 46.3101 22.8977L46.4491 22.8045C46.48 22.789 46.5109 22.7735 46.5418 22.789C46.5727 22.8045 46.6345 22.8821 46.7581 23.0218C47.1908 23.534 47.577 23.6892 47.886 23.503C48.056 23.3943 48.1333 23.2546 48.1333 23.0529C48.1333 22.8511 48.0869 22.6493 47.9479 22.4476C47.8242 22.2303 47.6543 22.0751 47.438 21.9509C47.2217 21.8267 46.8817 21.7181 46.4028 21.5784C46.0319 21.4853 45.7693 21.3921 45.5993 21.3301C45.4294 21.2525 45.2594 21.1593 45.1049 21.0352C44.9504 20.911 44.8113 20.7403 44.6877 20.554C44.4714 20.1971 44.3787 19.8401 44.4096 19.4986C44.4405 19.1572 44.595 18.9088 44.8577 18.7381C44.9813 18.6605 45.1203 18.6139 45.3058 18.5984C45.383 18.5984 45.4294 18.5829 45.4603 18.5674C45.4912 18.5519 45.5066 18.5363 45.5221 18.4898C45.5375 18.4587 45.5684 18.4277 45.5993 18.4122L45.7229 18.3346C45.7847 18.288 45.8311 18.3035 45.8774 18.3656L46.5418 19.4365C46.5727 19.4831 46.5727 19.5297 46.5264 19.5607L46.3719 19.6538C46.3255 19.6849 46.2946 19.6849 46.2792 19.6693C46.2483 19.6538 46.1865 19.5917 46.0783 19.4676C45.692 19.064 45.383 18.9244 45.1512 19.064C45.0276 19.1416 44.9658 19.2503 44.9504 19.4055C44.9349 19.5607 44.9813 19.7004 45.0585 19.8401C45.1512 19.9953 45.3058 20.135 45.4912 20.2436C45.6766 20.3523 45.9856 20.4609 46.4182 20.5695C46.959 20.7092 47.3762 20.8644 47.6697 21.0507C47.9633 21.2369 48.1951 21.4697 48.3805 21.7802C48.6277 22.1837 48.7358 22.5872 48.674 22.9908C48.6122 23.3788 48.4423 23.6737 48.1487 23.8444C48.0097 23.922 47.8397 23.9841 47.6234 24.0307C47.5461 24.0462 47.4998 24.0617 47.4843 24.0617C47.4689 24.0772 47.438 24.1083 47.4225 24.1393C47.3762 24.2169 47.3607 24.2324 47.3453 24.2324Z" fill="white"/>
<path d="M49.3539 17.0308L49.1994 16.8135C49.153 16.7514 49.1221 16.7049 49.1221 16.7049C49.1067 16.6894 49.1221 16.6583 49.1376 16.6273L49.5547 16.053C49.5547 16.0375 49.5702 16.0375 49.5856 16.0375C49.6166 16.022 49.6475 16.022 49.6784 16.0685L53.0312 20.1194C53.093 20.197 53.1394 20.2436 53.1857 20.2591C53.2321 20.2746 53.2939 20.2902 53.3866 20.3057C53.4484 20.3057 53.4947 20.3367 53.5256 20.3678L53.6029 20.523C53.6338 20.5695 53.6183 20.6161 53.5874 20.6316L52.475 21.2369C52.4132 21.268 52.3668 21.2524 52.3359 21.2059L52.2587 21.0507C52.2278 21.0041 52.2432 20.942 52.2896 20.8644C52.3514 20.7713 52.3668 20.6782 52.3205 20.6006C52.305 20.585 52.2896 20.554 52.2741 20.523L51.7488 19.9021L50.8681 20.3833L51.0998 21.1283C51.1153 21.1593 51.1153 21.1904 51.1307 21.1904C51.1616 21.2524 51.2543 21.299 51.3934 21.33C51.4861 21.3456 51.5479 21.3766 51.5634 21.4232L51.6406 21.5784C51.6715 21.6249 51.6561 21.6715 51.5943 21.7181L50.899 22.0906C50.8217 22.1371 50.7599 22.1216 50.7445 22.075L50.6518 21.9043C50.6209 21.8577 50.6363 21.8112 50.6672 21.7491C50.729 21.6405 50.7445 21.5163 50.6981 21.3611L49.3539 17.0308ZM50.1728 17.9931L50.7445 19.9021L51.4398 19.5296L50.1728 17.9931Z" fill="white"/>
<path d="M55.6733 16.2392C56.4767 16.1306 57.033 16.41 57.3265 17.0774C57.4656 17.3723 57.512 17.6516 57.4811 17.9465C57.4502 18.2414 57.3265 18.4897 57.1411 18.707C56.9557 18.9243 56.724 19.095 56.4767 19.2037L55.4261 19.7004C55.3797 19.7159 55.3488 19.7004 55.3334 19.6693L55.2561 19.4986C55.2407 19.452 55.2407 19.3899 55.287 19.3123C55.3488 19.2037 55.3488 19.095 55.287 18.9864L53.3866 14.8889C53.3248 14.7648 53.2475 14.7027 53.1239 14.6872C53.0467 14.6717 53.0003 14.6406 52.9694 14.594L52.8921 14.4388C52.8767 14.3923 52.8921 14.3457 52.9385 14.3302L54.0355 13.818C54.4372 13.6318 54.8235 13.6007 55.1943 13.7249C55.5497 13.8491 55.8278 14.1129 55.9978 14.4854C56.1214 14.7648 56.1677 15.0441 56.1368 15.3546C56.1214 15.6495 55.9514 15.9443 55.6733 16.2392ZM54.0664 14.3147L54.9935 16.3168C55.4879 16.084 55.5651 15.6339 55.2561 14.9665C55.148 14.7182 55.0089 14.532 54.8699 14.3923C54.7308 14.2681 54.5917 14.1905 54.4836 14.1905C54.3754 14.206 54.2364 14.2371 54.0664 14.3147ZM55.1789 16.7204L56.1677 18.8622C56.3531 18.7691 56.4922 18.6605 56.5849 18.5363C56.6776 18.4121 56.7085 18.2725 56.6931 18.1017C56.6776 17.9155 56.6158 17.6982 56.4922 17.4499C56.3222 17.0774 56.1368 16.829 55.9205 16.7049C55.7197 16.5807 55.4724 16.5807 55.1789 16.7204Z" fill="white"/>
<path d="M61.4211 17.1705C60.9266 17.3568 60.4631 17.2637 60.0305 16.8601C59.5979 16.4566 59.2116 15.8202 58.8717 14.9355C58.5318 14.0509 58.3773 13.3059 58.4082 12.685C58.4545 12.0797 58.7017 11.6762 59.1652 11.49C59.5979 11.3192 60.0459 11.4279 60.4786 11.8004C60.9266 12.1729 61.3284 12.8247 61.6837 13.756C62.0546 14.7027 62.2091 15.4633 62.1318 16.0375C62.0855 16.6273 61.8382 16.9998 61.4211 17.1705ZM61.2357 16.798C61.3438 16.7515 61.4056 16.6428 61.452 16.4721C61.4983 16.3014 61.4056 15.8978 61.2048 15.2615C61.0039 14.6251 60.803 14.0509 60.6022 13.5387C60.4168 13.0731 60.2468 12.7006 60.0769 12.4212C59.9069 12.1418 59.7678 11.9711 59.6751 11.909C59.5824 11.8469 59.4743 11.8314 59.3661 11.878C59.2734 11.909 59.2116 11.9711 59.1652 12.0642C59.1189 12.1573 59.1189 12.297 59.1344 12.4833C59.1653 12.6695 59.258 13.0265 59.4279 13.5232C59.5979 14.0353 59.7833 14.5631 59.9841 15.0908C60.2468 15.7581 60.4786 16.2238 60.6794 16.4721C60.8803 16.7204 61.0503 16.8601 61.2357 16.798Z" fill="white"/>
<path d="M64.9592 12.8713L65.5773 14.8424C65.6236 14.9666 65.6854 15.0442 65.809 15.0907C65.8863 15.1062 65.9327 15.1528 65.9481 15.1994L65.9945 15.3701C66.0099 15.4322 65.9945 15.4632 65.9327 15.4787L64.8047 15.8357C64.7584 15.8512 64.712 15.8357 64.6966 15.7892L64.6502 15.6184C64.6348 15.5719 64.6502 15.5098 64.6966 15.4477C64.7738 15.3546 64.7893 15.2459 64.7429 15.1218L63.3987 10.807C63.3523 10.6828 63.2905 10.6052 63.1669 10.5742C63.0897 10.5587 63.0433 10.5121 63.0279 10.45L62.9815 10.2948C62.9661 10.2327 62.9815 10.2017 63.0433 10.1862L63.9858 9.89129C64.5266 9.72056 64.9747 9.72056 65.3301 9.87577C65.6854 10.031 65.9327 10.3414 66.0872 10.7915C66.3189 11.521 66.1335 12.0952 65.5155 12.5298C65.7472 12.5608 65.9327 12.6229 66.0717 12.7161C66.2108 12.8092 66.3498 12.9644 66.4734 13.1817L67.0915 14.2526C67.1687 14.3923 67.2305 14.4854 67.2923 14.5165C67.3387 14.563 67.416 14.5941 67.4932 14.6096C67.5241 14.6096 67.5396 14.6406 67.555 14.6717L67.6168 14.8734C67.6323 14.92 67.6168 14.9666 67.555 14.9821L66.8288 15.2149C66.7516 15.2304 66.7052 15.2149 66.6588 15.1373L65.5309 13.2903C65.4073 13.0886 65.2992 12.9644 65.2219 12.9178C65.1447 12.8557 65.052 12.8402 64.9592 12.8713ZM64.1558 10.2948L64.8202 12.4367C65.0829 12.3591 65.2528 12.2039 65.3146 12.0021C65.3919 11.8003 65.361 11.4899 65.2219 11.0553C65.0983 10.6363 64.9438 10.3879 64.7738 10.2948C64.6193 10.2327 64.4185 10.2172 64.1558 10.2948Z" fill="white"/>
<path d="M75.0951 13.2283L72.5457 13.7094C72.4839 13.725 72.453 13.6939 72.4376 13.6318L72.4066 13.4611C72.3912 13.4145 72.4221 13.3369 72.4994 13.2593C72.5612 13.1817 72.5766 13.0886 72.5612 12.9644L71.7114 8.55657C71.6805 8.43241 71.6187 8.33928 71.5105 8.29272C71.4332 8.26168 71.4023 8.21512 71.3869 8.15303L71.356 7.96679C71.3405 7.92022 71.3714 7.88918 71.4332 7.87366L73.3492 7.50117C73.3801 7.50117 73.4419 7.48565 73.55 7.4546C73.6427 7.42356 73.6891 7.42356 73.7045 7.40804C73.7818 7.39252 73.8281 7.40804 73.8436 7.4546L74.0599 8.55657C74.0753 8.61866 74.0753 8.6497 74.0599 8.66522C74.0444 8.68074 74.0135 8.69626 73.9672 8.69626L73.8281 8.7273C73.7663 8.74282 73.7354 8.71178 73.7045 8.63418C73.6427 8.44793 73.5655 8.29272 73.4573 8.16856C73.3646 8.04439 73.2101 7.99783 72.9938 8.04439L72.5303 8.13751L72.932 10.2638L73.1019 10.2328C73.2101 10.2173 73.2719 10.1707 73.3028 10.1242C73.3337 10.0776 73.3646 9.93791 73.3801 9.7051C73.3801 9.6275 73.3955 9.59646 73.3955 9.58094C73.3955 9.56542 73.4264 9.56542 73.4573 9.5499L73.6273 9.51886C73.6891 9.50333 73.7354 9.53438 73.7354 9.59646L73.9981 11.0088C74.0135 11.0709 73.9826 11.102 73.9208 11.1175L73.7509 11.1485C73.72 11.1485 73.6891 11.1485 73.6736 11.133C73.6582 11.1175 73.6273 11.0554 73.5809 10.9778C73.5037 10.8071 73.4264 10.7139 73.3801 10.6829C73.3182 10.6519 73.241 10.6519 73.1483 10.6674L72.9938 10.6984L73.4419 13.0731L73.9517 12.98C74.1371 12.9489 74.2608 12.8713 74.3071 12.7782C74.3689 12.6696 74.3998 12.4212 74.4307 12.0022C74.4462 11.909 74.4771 11.847 74.5389 11.847L74.6934 11.8159C74.7552 11.8004 74.7861 11.8314 74.8015 11.8935L75.0951 13.2283Z" fill="white"/>
<path d="M81.2755 12.5609C80.4875 12.3126 80.0394 11.3348 79.9467 9.65854C79.9003 8.68073 79.9776 7.92022 80.2093 7.37699C80.4411 6.81825 80.7965 6.53888 81.2909 6.50784C81.7853 6.47679 82.1871 6.72513 82.4806 7.25283C82.7742 7.78053 82.9442 8.51001 83.006 9.45677C83.0369 9.96895 83.0214 10.4191 82.9751 10.8071C82.9287 11.1951 82.8515 11.5055 82.7433 11.7538C82.6352 12.0022 82.5115 12.1884 82.3725 12.3126C82.2334 12.4367 82.0635 12.5299 81.8626 12.5919C82.0944 12.654 82.3261 12.7472 82.5424 12.8868C82.697 12.98 82.836 13.0265 82.9442 13.011C82.9596 13.011 83.006 13.011 83.0523 12.9955C83.0832 12.9955 83.0987 12.9955 83.0987 12.9955C83.1296 12.9955 83.145 13.011 83.145 13.042L83.1605 13.2128C83.1605 13.2749 83.1141 13.3525 82.9905 13.4145C82.8824 13.4921 82.7433 13.5232 82.6043 13.5387C82.357 13.5542 82.1098 13.4145 81.8471 13.1352C81.569 12.8248 81.3836 12.6385 81.2755 12.5609ZM81.6154 12.1729C81.7235 12.1729 81.8317 12.0798 81.909 11.9401C82.0017 11.7849 82.048 11.3813 82.048 10.7139C82.048 10.0466 82.0326 9.44125 82.0017 8.89802C81.9708 8.40136 81.9244 7.99782 81.8471 7.67189C81.7699 7.36147 81.6926 7.14418 81.6154 7.06658C81.5381 6.97346 81.4454 6.94242 81.3373 6.94242C81.2446 6.94242 81.1673 6.98898 81.0901 7.06658C81.0128 7.14418 80.9664 7.26835 80.9355 7.4546C80.9046 7.64085 80.8892 7.99782 80.8892 8.54105C80.8892 9.08427 80.9046 9.64302 80.9355 10.2173C80.9819 10.9312 81.0437 11.4434 81.1673 11.7538C81.2755 12.0332 81.43 12.1884 81.6154 12.1729Z" fill="white"/>
<path d="M87.9966 11.1174C87.9811 11.5675 87.8575 11.9245 87.6103 12.1728C87.3631 12.4212 87.0695 12.5453 86.6987 12.5298C86.3279 12.5143 86.0189 12.3746 85.8026 12.1107C85.5708 11.8469 85.4626 11.5054 85.4781 11.1019L85.6171 7.17516C85.6171 7.051 85.5708 6.94235 85.4781 6.88027C85.4163 6.83371 85.3854 6.77163 85.3854 6.72506V6.55434C85.3854 6.49225 85.4163 6.46121 85.4935 6.47673L86.6833 6.5233C86.7451 6.5233 86.7605 6.55434 86.7605 6.6009V6.77163C86.7605 6.83371 86.7296 6.88027 86.6523 6.92683C86.5596 6.98892 86.4978 7.08204 86.4978 7.22173L86.3588 11.1795C86.3433 11.7072 86.4978 11.9711 86.8532 11.9866C87.2395 12.0021 87.4403 11.6917 87.4558 11.0709L87.5948 7.23725C87.5948 7.11308 87.5485 7.00444 87.4558 6.94235C87.394 6.89579 87.3631 6.83371 87.3631 6.78715V6.61642C87.3631 6.55434 87.394 6.5233 87.4712 6.53882L88.321 6.56986C88.3828 6.56986 88.3983 6.6009 88.3983 6.64746V6.81819C88.3983 6.88027 88.3674 6.92683 88.2901 6.9734C88.1974 7.03548 88.1356 7.1286 88.1356 7.26829L87.9966 11.1174Z" fill="white"/>
<path d="M91.6893 7.6408V7.37694C91.6893 7.29934 91.6893 7.23726 91.6893 7.23726C91.6893 7.20622 91.7202 7.1907 91.7511 7.17518L92.431 6.95789C92.4464 6.95789 92.4464 6.95789 92.4619 6.95789C92.4928 6.95789 92.5237 6.98893 92.5237 7.03549L92.8945 12.297C92.8945 12.3901 92.91 12.4677 92.9409 12.4988C92.9563 12.5453 93.0027 12.5919 93.0799 12.654C93.1263 12.7005 93.1572 12.7471 93.1572 12.7937L93.1417 12.9644C93.1417 13.0265 93.1108 13.0575 93.0645 13.042L91.8129 12.8868C91.7511 12.8713 91.7202 12.8402 91.7202 12.7781L91.7357 12.6074C91.7357 12.5453 91.782 12.4988 91.8747 12.4677C91.9829 12.4212 92.0447 12.3591 92.0447 12.266C92.0447 12.2349 92.0447 12.2039 92.0447 12.1728L91.9829 11.3658L90.994 11.2416L90.7468 11.9866C90.7314 12.0176 90.7314 12.0487 90.7314 12.0642C90.7159 12.1418 90.7623 12.2349 90.8704 12.328C90.9322 12.4057 90.9631 12.4522 90.9631 12.4988L90.9477 12.6695C90.9477 12.7316 90.9013 12.7626 90.8241 12.7471L90.0361 12.654C89.9434 12.6385 89.9125 12.6074 89.9125 12.5453L89.9434 12.3436C89.9434 12.297 89.9897 12.2504 90.0361 12.2194C90.1442 12.1728 90.2215 12.0642 90.2833 11.9245L91.6893 7.6408ZM91.7975 8.89797L91.164 10.7915L91.952 10.8846L91.7975 8.89797Z" fill="white"/>
<path d="M95.3203 12.7471L96.2937 8.3392C96.3246 8.21503 96.2937 8.10639 96.2164 8.01326C96.1546 7.95118 96.1392 7.90462 96.1546 7.84253L96.1855 7.67181C96.201 7.60972 96.2319 7.5942 96.2937 7.60972L97.4525 7.87358C97.5143 7.8891 97.5298 7.92014 97.5143 7.9667L97.4834 8.13743C97.4679 8.19951 97.4216 8.24607 97.3598 8.26159C97.2516 8.30816 97.1898 8.38576 97.1589 8.50993L96.1392 13.1661L96.4482 13.2437C96.6336 13.2903 96.7881 13.2593 96.9117 13.1661C97.0353 13.073 97.1589 12.8868 97.2671 12.6229C97.3134 12.5143 97.3443 12.4677 97.3443 12.4522C97.3598 12.4367 97.3752 12.4367 97.4216 12.4367L97.5916 12.4677C97.6534 12.4832 97.6843 12.5143 97.6688 12.5764L97.3752 13.9111L95.0112 13.3834C94.934 13.3679 94.9031 13.3213 94.9185 13.2437L94.9494 13.1041C94.9649 13.042 95.0112 13.0109 95.0885 12.9799C95.2121 12.9644 95.2894 12.8712 95.3203 12.7471Z" fill="white"/>
<path d="M100.481 14.0819C100.45 14.206 100.465 14.3147 100.527 14.4078C100.574 14.4699 100.589 14.532 100.574 14.5785L100.527 14.7493C100.512 14.8113 100.465 14.8269 100.404 14.8113L99.2757 14.4699C99.2293 14.4544 99.1984 14.4233 99.2139 14.3612L99.2602 14.1905C99.2757 14.1439 99.322 14.0974 99.3993 14.0663C99.5074 14.0353 99.5847 13.9422 99.6156 13.818L100.913 9.48774C100.944 9.36357 100.929 9.25493 100.867 9.1618C100.821 9.09972 100.805 9.03764 100.821 8.99108L100.867 8.83587C100.883 8.77379 100.929 8.75827 100.991 8.77379L102.119 9.11524C102.165 9.13076 102.196 9.1618 102.18 9.22389L102.134 9.39461C102.119 9.4567 102.072 9.48774 101.995 9.51878C101.887 9.54982 101.81 9.64294 101.779 9.75159L100.481 14.0819Z" fill="white"/>
<path d="M104.421 10.1396L104.498 9.95334C104.513 9.9223 104.544 9.90678 104.606 9.93782L105.533 10.2948C106.059 10.4966 106.414 10.8846 106.599 11.4433C106.785 12.0021 106.692 12.7626 106.321 13.7249C106.136 14.2215 105.889 14.6716 105.611 15.0752C105.332 15.4787 105.023 15.7581 104.683 15.9133C104.344 16.0685 103.911 16.0219 103.339 15.8046L102.428 15.4477C102.381 15.4321 102.366 15.4011 102.381 15.3545L102.459 15.1683C102.474 15.1217 102.52 15.0752 102.598 15.0596C102.706 15.0286 102.783 14.951 102.829 14.8268L104.467 10.6207C104.513 10.4966 104.513 10.4034 104.452 10.3103C104.421 10.2638 104.405 10.2017 104.421 10.1396ZM105.394 10.7449L103.571 15.4321C103.803 15.5253 104.019 15.5408 104.189 15.4787C104.359 15.4166 104.56 15.1993 104.761 14.8424C104.962 14.4854 105.178 14.0508 105.363 13.5541C105.58 13.0109 105.719 12.5763 105.796 12.2504C105.873 11.9245 105.904 11.6606 105.904 11.4744C105.904 11.2881 105.858 11.1484 105.78 11.0398C105.703 10.9311 105.58 10.8225 105.394 10.7449Z" fill="white"/>
<path d="M110.169 13.1506L110.246 12.9023C110.277 12.8247 110.292 12.7781 110.292 12.7626C110.308 12.7471 110.323 12.7316 110.37 12.7316L111.08 12.7471C111.096 12.7471 111.096 12.7471 111.111 12.7626C111.142 12.7781 111.158 12.8092 111.142 12.8557L109.767 17.9465C109.736 18.0396 109.736 18.1017 109.736 18.1638C109.736 18.2104 109.767 18.2725 109.813 18.3501C109.844 18.4121 109.86 18.4587 109.844 18.5053L109.767 18.6605C109.736 18.7226 109.705 18.7381 109.659 18.707L108.515 18.1328C108.454 18.1017 108.438 18.0552 108.469 18.0086L108.546 17.8534C108.577 17.8068 108.624 17.7758 108.716 17.7758C108.824 17.7758 108.902 17.7292 108.948 17.6516C108.963 17.6361 108.963 17.6051 108.979 17.574L109.195 16.7825L108.299 16.3324L107.82 16.9532C107.805 16.9842 107.789 16.9998 107.774 17.0153C107.743 17.0774 107.758 17.186 107.82 17.3102C107.851 17.4033 107.866 17.4654 107.851 17.4964L107.774 17.6516C107.743 17.7137 107.696 17.7137 107.635 17.6827L106.924 17.3257C106.847 17.2791 106.816 17.2326 106.847 17.186L106.939 17.0153C106.97 16.9687 107.001 16.9377 107.078 16.9377C107.202 16.9222 107.31 16.8601 107.403 16.7359L110.169 13.1506ZM109.86 14.3612L108.624 15.9444L109.334 16.3013L109.86 14.3612Z" fill="white"/>
<path d="M114.325 14.8113L114.433 14.6406C114.448 14.6095 114.495 14.6095 114.541 14.6406L115.375 15.1683C115.854 15.4632 116.133 15.8978 116.225 16.4876C116.318 17.0773 116.086 17.8068 115.561 18.676C115.283 19.1261 114.974 19.5296 114.618 19.8711C114.263 20.228 113.923 20.4453 113.568 20.5229C113.212 20.6161 112.78 20.4919 112.27 20.1815L111.436 19.6693C111.389 19.6383 111.389 19.6072 111.405 19.5762L111.513 19.4054C111.544 19.3589 111.59 19.3278 111.667 19.3278C111.791 19.3123 111.884 19.2502 111.945 19.1416L114.309 15.2925C114.371 15.1838 114.387 15.0752 114.356 14.982C114.294 14.92 114.294 14.8579 114.325 14.8113ZM115.175 15.5563L112.548 19.84C112.764 19.9797 112.965 20.0263 113.151 19.9952C113.336 19.9642 113.552 19.7935 113.83 19.4675C114.093 19.1571 114.371 18.7691 114.649 18.3035C114.958 17.8068 115.175 17.4033 115.298 17.0929C115.437 16.7824 115.515 16.5341 115.545 16.3479C115.576 16.1616 115.561 16.0064 115.515 15.8978C115.453 15.8046 115.345 15.6805 115.175 15.5563Z" fill="white"/>
<path d="M117.832 23.9996L115.731 22.463C115.685 22.432 115.669 22.3854 115.715 22.3389L115.808 22.1992C115.839 22.1526 115.901 22.1371 116.009 22.1371C116.102 22.1371 116.179 22.075 116.256 21.9819L118.914 18.3345C118.991 18.2259 119.007 18.1172 118.976 18.0086C118.945 17.931 118.96 17.8689 118.991 17.8223L119.099 17.6671C119.13 17.6206 119.161 17.6206 119.223 17.6671L120.799 18.8312C120.83 18.8467 120.892 18.8933 120.969 18.9398C121.046 18.9864 121.092 19.0174 121.108 19.0329C121.17 19.0795 121.201 19.1261 121.17 19.1571L120.505 20.0573C120.474 20.1039 120.443 20.1349 120.428 20.1349C120.413 20.1349 120.382 20.1194 120.335 20.0884L120.227 20.0107C120.181 19.9797 120.165 19.9331 120.212 19.8711C120.304 19.7003 120.366 19.5296 120.397 19.3744C120.428 19.2192 120.351 19.0795 120.165 18.9398L119.779 18.6604L118.512 20.3988L118.651 20.5074C118.744 20.5695 118.806 20.6005 118.867 20.585C118.929 20.5695 119.037 20.4919 119.223 20.3522C119.285 20.3056 119.316 20.2901 119.331 20.2746C119.346 20.2746 119.362 20.2901 119.393 20.3056L119.532 20.3988C119.578 20.4453 119.594 20.4764 119.563 20.5385L118.713 21.7025C118.682 21.7491 118.636 21.7646 118.589 21.718L118.45 21.6094C118.419 21.5939 118.404 21.5628 118.404 21.5318C118.404 21.5007 118.419 21.4542 118.466 21.3455C118.528 21.1748 118.558 21.0506 118.543 20.9886C118.528 20.9265 118.481 20.8644 118.404 20.8178L118.28 20.7247L116.859 22.6803L117.276 22.9907C117.431 23.0994 117.57 23.1459 117.678 23.1149C117.786 23.0838 118.002 22.9442 118.342 22.6803C118.419 22.6182 118.481 22.6182 118.528 22.6493L118.667 22.7424C118.713 22.7734 118.728 22.82 118.682 22.8821L117.832 23.9996Z" fill="white"/>
</g>
<defs>
<clipPath id="clip0">
<rect width="165" height="99.6429" fill="white" transform="translate(0.019165 0.734131)"/>
</clipPath>
</defs>
</svg>
