<svg width="868" height="460" viewBox="0 0 868 460" fill="none" xmlns="http://www.w3.org/2000/svg">
<path fill-rule="evenodd" clip-rule="evenodd" d="M505.755 267.046C443.358 234.179 286.212 203.23 171.243 192.203C109.194 186.251 50.2271 191.402 24.4792 191.232C5.95539 184.995 78.11 168.938 134.981 158.717C271.672 134.152 473.305 181.904 587.392 173.799C702.78 165.602 805.863 96.3356 907.706 115.067C1010.77 134.023 1022.77 199.719 1014.41 252.34C1006.82 300.118 1039.75 232.904 963.386 270.074C868.747 316.139 623.697 343.623 505.755 267.046Z" fill="#40260F"/>
<path d="M456.044 213.44C587.63 234.061 708.115 243.982 825.496 217.569C862.588 209.222 898.165 201.217 937.191 202.793C1005.93 205.57 1022.06 226.808 1023.4 244.424C1024.63 260.419 988.369 276.768 943.98 291.582C902.215 305.521 849.973 318.943 786.278 323.564C603.743 336.805 436.112 259.418 271.546 217.667C231.854 207.597 86.7001 189.376 35.0247 190.305C145.859 168.057 212.108 177.781 274.538 187.191C317.795 193.711 403.021 205.131 456.044 213.44Z" fill="#6B3A0B"/>
</svg>
